<svg id="Grupo_139" data-name="Grupo 139" xmlns="http://www.w3.org/2000/svg" width="98.111" height="77.86" viewBox="0 0 98.111 77.86">
  <path id="Caminho_666" data-name="Caminho 666" d="M56.63,35.2c-4.314,0-10.194,3.3-15.339,9.913s-9.332,16.647-9.332,30.355A37.764,37.764,0,0,0,37.7,94.9a28.042,28.042,0,0,0,3.52,4.432c-4.84,6.3-8.846,11.077-8.846,11.077a1.556,1.556,0,1,0,2.292,2.1s4.026-4.8,8.9-11.132a16.646,16.646,0,0,0,10.384,3.894c6.248,0,12.2-3.1,17.4-7.569,1.086-.933,1.995-2.124,3.015-3.167A8.582,8.582,0,0,0,79.954,96.9c3.106,0,5.885-1.548,8.332-3.645a45.184,45.184,0,0,0,6.59-7.447c1.964-2.656,3.715-5.279,5.174-7.168a17.121,17.121,0,0,1,1.906-2.161,1.078,1.078,0,0,1,.386-.277,4.155,4.155,0,0,1,.216.991,38.394,38.394,0,0,1-.064,5.5c-.128,2.073-.3,4.172-.292,5.858a9.252,9.252,0,0,0,.213,2.277,2.761,2.761,0,0,0,.52,1.11,2.2,2.2,0,0,0,1.578.778c2.309,0,4.156-1.4,5.809-3.082s3.222-3.791,4.952-5.839c3.46-4.1,7.347-7.818,13.18-7.818a1.556,1.556,0,1,0,0-3.113c-7.169,0-11.948,4.651-15.557,8.925-1.8,2.137-3.373,4.216-4.8,5.669a5.638,5.638,0,0,1-2.742,1.638c-.014-.216-.041-.29-.043-.556-.006-1.453.155-3.542.286-5.654a38.96,38.96,0,0,0,.055-6.007,6.727,6.727,0,0,0-.62-2.444,2.884,2.884,0,0,0-2.38-1.572,4.081,4.081,0,0,0-2.772,1.295,19.172,19.172,0,0,0-2.3,2.581c-1.572,2.035-3.3,4.644-5.21,7.219A42.908,42.908,0,0,1,86.261,90.9c-2.132,1.827-4.254,2.894-6.307,2.894a5.522,5.522,0,0,1-3.523-1.426A66.973,66.973,0,0,0,84.4,81.471c3.353-5.889,5.571-11.755,6.095-16.424a10.609,10.609,0,0,0-.748-6.1,5.391,5.391,0,0,0-4.842-2.818c-4.318,0-8.323,2.86-11.226,7.2A30.712,30.712,0,0,0,68.9,80.282a22.327,22.327,0,0,0,2.8,11.4c.143.239.388.36.544.587-.988,1.016-1.882,2.184-2.924,3.079-4.847,4.164-10.169,6.818-15.375,6.818A13.647,13.647,0,0,1,45.395,98.9c2.012-2.692,3.775-4.794,5.931-8.052C59.654,78.258,68.093,62.17,68.093,47.639a14.92,14.92,0,0,0-1.751-7.311C64.779,37.585,61.625,35.2,56.63,35.2Zm0,3.113c4.086,0,5.887,1.591,7.007,3.556a12.415,12.415,0,0,1,1.344,5.769c0,13.3-8.069,29.124-16.25,41.489-2.063,3.117-3.741,5.111-5.672,7.7a25.843,25.843,0,0,1-2.733-3.6,35.134,35.134,0,0,1-5.253-17.764c0-13.077,3.965-22.391,8.675-28.443s10.386-8.712,12.882-8.712ZM84.905,59.238c1.232,0,1.654.316,2.079,1.137A8.179,8.179,0,0,1,87.4,64.7C86.96,68.664,84.9,74.31,81.7,79.93A64.144,64.144,0,0,1,74.36,90.043a19.534,19.534,0,0,1-2.347-9.761,27.75,27.75,0,0,1,4.253-15.223c2.515-3.765,5.733-5.821,8.639-5.821Z" transform="translate(-31.921 -35.2)"/>
</svg>
