<svg xmlns="http://www.w3.org/2000/svg" width="55.535" height="57" viewBox="0 0 55.535 57">
  <g id="Document_Flat" transform="translate(-73.54 -52.35)">
    <path id="Caminho_643" data-name="Caminho 643" d="M436.537,419.824s-.277,1.927-.467,1.818a7.349,7.349,0,0,1-.44-1.824l.479-.648Z" transform="translate(-309.033 -313.07)" fill="#24285b"/>
    <path id="Caminho_644" data-name="Caminho 644" d="M422,165.837V165.2a2.051,2.051,0,0,1,2.04-2.066h.158a2.051,2.051,0,0,1,2.069,2.032v.642Z" transform="translate(-297.4 -94.547)" fill="#f9bb0d"/>
    <rect id="Retângulo_101" data-name="Retângulo 101" width="4.271" height="31.101" transform="translate(124.597 71.294) rotate(-0.37)" fill="#4a128c"/>
    <path id="Caminho_645" data-name="Caminho 645" d="M422,181.448l4.27-.028.007,1.253.006.87.019,2.677-4.271.028-.018-2.677-.006-.87Z" transform="translate(-297.4 -110.157)" fill="#24285b"/>
    <path id="Caminho_646" data-name="Caminho 646" d="M427.653,393.67l-1.571,4.622a1.026,1.026,0,0,0-.91.048L423.38,393.7Z" transform="translate(-298.578 -291.307)" fill="#ffbeb3"/>
    <path id="Caminho_647" data-name="Caminho 647" d="M109.2,52.35H73.98a.44.44,0,0,0-.44.44V108.91a.44.44,0,0,0,.44.44H119.4a.44.44,0,0,0,.44-.44V63.965Z" transform="translate(0)" fill="#f2f2f2"/>
    <path id="Caminho_648" data-name="Caminho 648" d="M231.54,52.35v57h22.712a.44.44,0,0,0,.44-.44V63.926L244.435,52.35Z" transform="translate(-134.848)" fill="#f2f2f2"/>
    <path id="Caminho_649" data-name="Caminho 649" d="M319.54,52.35,329.8,63.926H319.98a.44.44,0,0,1-.44-.44Z" transform="translate(-209.954)" fill="#e2e2e2"/>
    <line id="Linha_20" data-name="Linha 20" x2="10.887" transform="translate(79.491 59.697)" fill="none" stroke="#2d2d2d" stroke-linecap="round" stroke-linejoin="round" stroke-width="2"/>
    <line id="Linha_21" data-name="Linha 21" x2="10.887" transform="translate(79.491 63.926)" fill="none" stroke="#2d2d2d" stroke-linecap="round" stroke-linejoin="round" stroke-width="2"/>
    <line id="Linha_22" data-name="Linha 22" x2="35.224" transform="translate(79.491 74.737)" fill="none" stroke="#2d2d2d" stroke-linecap="round" stroke-linejoin="round" stroke-width="2"/>
    <line id="Linha_23" data-name="Linha 23" x2="35.224" transform="translate(79.491 79.105)" fill="none" stroke="#2d2d2d" stroke-linecap="round" stroke-linejoin="round" stroke-width="2"/>
    <circle id="Elipse_5" data-name="Elipse 5" cx="10.108" cy="10.108" r="10.108" transform="translate(86.584 83.543)" fill="#ffd44d"/>
    <circle id="Elipse_6" data-name="Elipse 6" cx="7.457" cy="7.457" r="7.457" transform="translate(89.235 86.194)" fill="#f9bb0d"/>
    <path id="Caminho_650" data-name="Caminho 650" d="M218.09,317.178v-.621a3.688,3.688,0,0,1-2.09-.928l.621-.741a2.957,2.957,0,0,0,1.465.741v-1.653a3.461,3.461,0,0,1-1.41-.6,1.379,1.379,0,0,1-.44-1.111,1.556,1.556,0,0,1,.516-1.206,2.078,2.078,0,0,1,1.341-.51v-.426h.544v.44a3.545,3.545,0,0,1,1.77.639l-.554.782a2.742,2.742,0,0,0-1.216-.494v1.6h.025a3.448,3.448,0,0,1,1.439.621,1.414,1.414,0,0,1,.46,1.137,1.543,1.543,0,0,1-.529,1.213,2.2,2.2,0,0,1-1.4.511v.613Zm-.6-5.495a.655.655,0,0,0-.047.928,1.744,1.744,0,0,0,.648.319v-1.473A1.01,1.01,0,0,0,217.489,311.683Zm1.792,3.732a.657.657,0,0,0,.051-.966,1.869,1.869,0,0,0-.7-.328v1.533A1.188,1.188,0,0,0,219.281,315.416Z" transform="translate(-121.585 -219.999)" fill="#fff"/>
  </g>
</svg>
