<svg xmlns="http://www.w3.org/2000/svg" width="31.661" height="24.223" viewBox="0 0 31.661 24.223">
  <g id="Quero_Ajudar" transform="translate(0.258 0.5)">
    <g id="Grupo_98" data-name="Grupo 98" transform="translate(0)">
      <g id="Grupo_97" data-name="Grupo 97" transform="translate(0 8.743)">
        <g id="Grupo_96" data-name="Grupo 96" transform="translate(0 0)">
          <path id="Caminho_623" data-name="Caminho 623" d="M65.945,165.608a2.89,2.89,0,0,0-1.664.617l-4.124,3.084a3.671,3.671,0,0,0-3.494-1.32l-4.179.731a4.554,4.554,0,0,1-2.02-.105L50,168.481a7.539,7.539,0,0,0-6.937,1.479l-.19-1.087a.514.514,0,0,0-.6-.418l-4.583.8a.514.514,0,0,0-.418.6l1.759,10.056a.514.514,0,0,0,.6.418l4.582-.8a.514.514,0,0,0,.418-.6l-.094-.539,1.09-.885a2.145,2.145,0,0,1,1.533-.491l7.473.546c.027,0,.053,0,.08,0a7.757,7.757,0,0,0,4.559-1.492.5.5,0,0,0,.056-.047l8.9-8.715a.514.514,0,0,0,.029-.7,2.89,2.89,0,0,0-2.309-1Zm.181,1.027a1.863,1.863,0,0,1,.988.32l-8.484,8.32a6.735,6.735,0,0,1-3.921,1.286h-.022L47.233,176a3.162,3.162,0,0,0-2.261.715l-.64.517-1.061-6.069a6.517,6.517,0,0,1,6.445-1.694l.467.133a5.591,5.591,0,0,0,2.479.129L56.84,169a2.645,2.645,0,0,1,2.917,1.647l-6.313,1.1a.514.514,0,1,0,.177,1.013l6.869-1.2a.514.514,0,0,0,.418-.6,3.66,3.66,0,0,0-.225-.771l4.218-3.155.011-.009a1.863,1.863,0,0,1,1.213-.4Zm-24.181,2.923,1.582,9.043-3.569.624-1.582-9.042Z" transform="translate(-37.266 -165.605)" fill="#888" stroke="#888" stroke-width="0.5"/>
        </g>
      </g>
      <path id="Caminho_624" data-name="Caminho 624" d="M2.95,28.351A3.121,3.121,0,0,0,0,31.612a4.961,4.961,0,0,0,1.352,3.059,16.613,16.613,0,0,0,3.473,3.02.8.8,0,0,0,.446.138h.01a.8.8,0,0,0,.446-.137A16.613,16.613,0,0,0,9.2,34.672a4.961,4.961,0,0,0,1.353-3.06A3.121,3.121,0,0,0,7.6,28.351a2.79,2.79,0,0,0-2.071.942.463.463,0,0,1-.255.152.464.464,0,0,1-.256-.152,2.79,2.79,0,0,0-2.07-.941Zm0,.365a2.477,2.477,0,0,1,1.838.835.755.755,0,0,0,.489.258.754.754,0,0,0,.488-.258A2.478,2.478,0,0,1,7.6,28.716a2.772,2.772,0,0,1,2.62,2.9,4.6,4.6,0,0,1-1.267,2.814,16.61,16.61,0,0,1-3.4,2.954.5.5,0,0,1-.279.085h0A.488.488,0,0,1,5,37.38a16.609,16.609,0,0,1-3.4-2.954A4.6,4.6,0,0,1,.33,31.612a2.772,2.772,0,0,1,2.62-2.9Z" transform="translate(10.281 -28.351)" fill="#888" stroke="#888" stroke-width="1"/>
    </g>
  </g>
</svg>
