<svg xmlns="http://www.w3.org/2000/svg" width="17.619" height="21.043" viewBox="0 0 17.619 21.043">
  <g id="Icone_Senha" transform="translate(-25.35 -9.99)">
    <g id="Grupo_91" data-name="Grupo 91" transform="translate(25.6 10.24)">
      <path id="Caminho_620" data-name="Caminho 620" d="M34.16,10.24A5.57,5.57,0,0,0,28.6,15.8v2.568H26.884A1.291,1.291,0,0,0,25.6,19.656V29.5a1.291,1.291,0,0,0,1.284,1.284H41.435A1.291,1.291,0,0,0,42.719,29.5V19.656a1.291,1.291,0,0,0-1.284-1.284H39.723V15.8A5.57,5.57,0,0,0,34.16,10.24Zm0,.856A4.7,4.7,0,0,1,38.867,15.8v2.568H29.452V15.8A4.7,4.7,0,0,1,34.16,11.1Zm-7.276,8.132H41.435a.421.421,0,0,1,.428.428V29.5a.421.421,0,0,1-.428.428H26.884a.421.421,0,0,1-.428-.428V19.656A.421.421,0,0,1,26.884,19.228Z" transform="translate(-25.6 -10.24)" fill="#4a128c" stroke="#4a128c" stroke-width="0.5"/>
    </g>
  </g>
</svg>
