<svg xmlns="http://www.w3.org/2000/svg" width="27.428" height="24.317" viewBox="0 0 27.428 24.317">
  <g id="Icon_Like" transform="translate(-9.74 -35.34)">
    <g id="Grupo_116" data-name="Grupo 116" transform="translate(10.24 35.84)">
      <path id="Caminho_638" data-name="Caminho 638" d="M17.709,35.84a7.477,7.477,0,0,0-7.469,7.469c0,8.481,9.592,12.666,12.855,15.386l.359.305.359-.305c3.263-2.72,12.855-6.905,12.855-15.386a7.421,7.421,0,0,0-13.214-4.686A7.407,7.407,0,0,0,17.709,35.84Zm0,1.149a6.3,6.3,0,0,1,5.26,2.837l.485.718.485-.718a6.311,6.311,0,0,1,11.58,3.483c0,7.41-8.277,11.246-12.065,14.237-3.788-2.992-12.065-6.827-12.065-14.237A6.312,6.312,0,0,1,17.709,36.989Z" transform="translate(-10.24 -35.84)" fill="#888" stroke="#888" stroke-width="1"/>
    </g>
  </g>
</svg>
