<svg xmlns="http://www.w3.org/2000/svg" width="35.042" height="33.513" viewBox="0 0 35.042 33.513">
  <g id="Grupo_136" data-name="Grupo 136" transform="translate(-4.969 -5.296)">
    <g id="Grupo_135" data-name="Grupo 135" transform="translate(5.117 5.396)">
      <path id="Caminho_656" data-name="Caminho 656" d="M22.486,5.4a.725.725,0,0,0-.419.151L5.4,18.557A.725.725,0,1,0,6.288,19.7l1-.783V37.974a.725.725,0,0,0,.725.725H18.042a.725.725,0,0,0,.236,0H26.74a.725.725,0,0,0,.236,0H37.01a.725.725,0,0,0,.725-.725V18.918l1,.783a.725.725,0,1,0,.892-1.144L34.11,14.25l-4.349-3.395-6.8-5.307a.725.725,0,0,0-.473-.151Zm.027,1.644L36.285,17.787V37.249h-8.7V23.478H17.439V37.249h-8.7V17.787Zm10.148,6.079-1.45-1.133ZM18.889,24.927h7.248V37.249H18.889Z" transform="translate(-5.117 -5.396)" fill="#4a128c" stroke="#4a128c" stroke-width="0.2"/>
    </g>
  </g>
</svg>
