<svg xmlns="http://www.w3.org/2000/svg" width="15.619" height="16.189" viewBox="0 0 15.619 16.189">
  <g id="Grupo_155" data-name="Grupo 155" transform="translate(-22.02 -18.031)">
    <g id="Grupo_154" data-name="Grupo 154" transform="translate(22.27 18.281)">
      <path id="Caminho_698" data-name="Caminho 698" d="M35.6,19.385H34.425v-.746a.357.357,0,0,0-.715,0v.746H25.948v-.746a.357.357,0,1,0-.715,0v.746H24.057a1.789,1.789,0,0,0-1.787,1.787v11.01a1.789,1.789,0,0,0,1.787,1.787h8.774a.357.357,0,0,0,.244-.1l4.2-3.925a.357.357,0,0,0,.113-.261V21.172A1.789,1.789,0,0,0,35.6,19.385ZM24.057,20.1h1.176v1.07a.357.357,0,0,0,.715,0V20.1H33.71v1.07a.357.357,0,1,0,.715,0V20.1H35.6a1.074,1.074,0,0,1,1.072,1.072V23.3H22.985V21.172A1.074,1.074,0,0,1,24.057,20.1ZM22.985,32.183V24.011H36.673v5.333H33.837a1.432,1.432,0,0,0-1.43,1.43v2.481h-8.35A1.074,1.074,0,0,1,22.985,32.183Zm13.125-2.123-2.988,2.793V30.774a.716.716,0,0,1,.715-.715Z" transform="translate(-22.27 -18.281)" fill="#888" stroke="#888" stroke-width="0.5"/>
    </g>
  </g>
</svg>
