<svg xmlns="http://www.w3.org/2000/svg" width="38.006" height="34.934" viewBox="0 0 38.006 34.934">
  <g id="Grupo_133" data-name="Grupo 133" transform="translate(-11.75 -21.27)">
    <g id="Grupo_132" data-name="Grupo 132" transform="translate(12 21.52)">
      <path id="Caminho_655" data-name="Caminho 655" d="M46.273,28.795H35V22.167a.647.647,0,0,0-.647-.647h-7.2a.647.647,0,0,0-.647.647v6.628H15.233A3.233,3.233,0,0,0,12,32.028V52.721a3.233,3.233,0,0,0,3.233,3.233H46.273a3.233,3.233,0,0,0,3.233-3.233V32.028A3.233,3.233,0,0,0,46.273,28.795ZM27.914,39.568a2.839,2.839,0,1,1,2.839,2.845h0a2.845,2.845,0,0,1-2.839-2.845Zm2.839,4.139h0a6.143,6.143,0,0,1,5.878,4.378,8.187,8.187,0,0,1-11.795,0A6.143,6.143,0,0,1,30.753,43.707ZM37.6,46.94a7.424,7.424,0,0,0-4.333-4.061,4.132,4.132,0,1,0-5.031,0A7.424,7.424,0,0,0,23.9,46.94a8.23,8.23,0,1,1,13.7-.032Zm-3.88-24.094V33.334a9.364,9.364,0,0,0-5.91,0V22.813ZM48.213,52.721a1.94,1.94,0,0,1-1.94,1.94H15.233a1.94,1.94,0,0,1-1.94-1.94V32.028a1.94,1.94,0,0,1,1.94-1.94H26.5v3.783a9.512,9.512,0,1,0,8.5,0V30.088H46.273a1.94,1.94,0,0,1,1.94,1.94Z" transform="translate(-12 -21.52)" fill="#4a128c" stroke="#4a128c" stroke-width="0.5"/>
    </g>
  </g>
</svg>
