<svg xmlns="http://www.w3.org/2000/svg" width="55.823" height="57" viewBox="0 0 55.823 57">
  <g id="Grupo_148" data-name="Grupo 148" transform="translate(-12.699 -10.269)">
    <g id="Grupo_147" data-name="Grupo 147" transform="translate(12.699 10.269)">
      <g id="_x35_4">
        <path id="Caminho_667" data-name="Caminho 667" d="M56.825,13.692V63.845A3.425,3.425,0,0,1,53.4,67.269H16.123A3.425,3.425,0,0,1,12.7,63.845V21.073l10.788-10.8H53.4a3.425,3.425,0,0,1,3.424,3.424Z" transform="translate(-12.699 -10.269)" fill="#f2f2f2"/>
        <path id="Caminho_668" data-name="Caminho 668" d="M25.1,10.269V19.2a3.494,3.494,0,0,1-3.488,3.488H12.7V21.073l10.788-10.8H25.1Z" transform="translate(-12.7 -10.269)" fill="#e2e2e2"/>
        <path id="Caminho_669" data-name="Caminho 669" d="M23.488,10.269v8.937a1.867,1.867,0,0,1-1.867,1.867H12.7Z" transform="translate(-12.7 -10.269)" fill="#e2e2e2"/>
        <path id="Caminho_670" data-name="Caminho 670" d="M64.665,127.175a.773.773,0,0,1-.775.775H28.221a.773.773,0,0,1-.775-.775.763.763,0,0,1,.775-.763H63.89A.763.763,0,0,1,64.665,127.175Z" transform="translate(-23.876 -98.297)" fill="#2d2d2d"/>
        <path id="Caminho_671" data-name="Caminho 671" d="M64.665,109.984a.781.781,0,0,1-.775.775H28.221a.781.781,0,0,1-.775-.775.763.763,0,0,1,.775-.763H63.89A.763.763,0,0,1,64.665,109.984Z" transform="translate(-23.876 -85.267)" fill="#2d2d2d"/>
        <path id="Caminho_672" data-name="Caminho 672" d="M40.019,223.569a.773.773,0,0,1-.775.775H28.221a.769.769,0,1,1,0-1.537H39.244A.771.771,0,0,1,40.019,223.569Z" transform="translate(-23.876 -171.356)" fill="#2d2d2d"/>
        <path id="Caminho_673" data-name="Caminho 673" d="M46.327,195.938a.773.773,0,0,1-.775.775H28.221a.769.769,0,1,1,0-1.537H45.552A.771.771,0,0,1,46.327,195.938Z" transform="translate(-23.876 -150.414)" fill="#2d2d2d"/>
        <path id="Caminho_674" data-name="Caminho 674" d="M59.205,161.556a.773.773,0,0,1-.775.775H28.221a.769.769,0,1,1,0-1.537H58.43A.771.771,0,0,1,59.205,161.556Z" transform="translate(-23.876 -124.355)" fill="#2d2d2d"/>
        <path id="Caminho_675" data-name="Caminho 675" d="M59.205,178.747a.773.773,0,0,1-.775.775H28.221a.769.769,0,1,1,0-1.537H58.43A.771.771,0,0,1,59.205,178.747Z" transform="translate(-23.876 -137.385)" fill="#2d2d2d"/>
        <path id="Caminho_676" data-name="Caminho 676" d="M61.886,144.366a.773.773,0,0,1-.775.775H28.221a.773.773,0,0,1-.775-.775.763.763,0,0,1,.775-.763H61.111A.763.763,0,0,1,61.886,144.366Z" transform="translate(-23.876 -111.326)" fill="#2d2d2d"/>
        <g id="Grupo_141" data-name="Grupo 141" transform="translate(3.57 19.793)">
          <path id="Caminho_677" data-name="Caminho 677" d="M64.665,92.793a.773.773,0,0,1-.775.775H28.221a.769.769,0,1,1,0-1.537H63.89A.771.771,0,0,1,64.665,92.793Z" transform="translate(-27.446 -92.031)" fill="#2d2d2d"/>
        </g>
        <g id="Grupo_142" data-name="Grupo 142" transform="translate(3.57 15.631)">
          <path id="Caminho_678" data-name="Caminho 678" d="M64.665,75.6a.773.773,0,0,1-.775.775H28.221a.769.769,0,1,1,0-1.537H63.89a.771.771,0,0,1,.775.763Z" transform="translate(-27.446 -74.84)" fill="#2d2d2d"/>
        </g>
        <g id="Grupo_143" data-name="Grupo 143" transform="translate(14.033 3.342)">
          <path id="Caminho_679" data-name="Caminho 679" d="M94.625,29.675H73.471a2.8,2.8,0,0,1-2.8-2.8h0a2.8,2.8,0,0,1,2.8-2.8H94.625a2.8,2.8,0,0,1,2.8,2.8h0A2.8,2.8,0,0,1,94.625,29.675Z" transform="translate(-70.67 -24.074)" fill="#ffcb64"/>
        </g>
        <g id="Grupo_144" data-name="Grupo 144" transform="translate(14.033 3.343)">
          <path id="Caminho_680" data-name="Caminho 680" d="M77.416,29.678H73.471a2.8,2.8,0,1,1,0-5.6h3.945a2.8,2.8,0,1,0,0,5.6Z" transform="translate(-70.671 -24.077)" fill="#f9bb0d"/>
        </g>
        <g id="Grupo_145" data-name="Grupo 145" transform="translate(29.795 47.322)">
          <path id="Caminho_681" data-name="Caminho 681" d="M136.4,211.909a.6.6,0,0,1-.592-.537c-.018-.184-.412-4.528,2.565-5.375a.6.6,0,0,1,.758.549c.07,1.723.487,3.758.994,4.043.018.01.054.032.182-.04,1.221-.68,3.5-1.946,3.776-3.112a.91.91,0,0,0-.158-.758.6.6,0,0,1,.989-.665,2.107,2.107,0,0,1,.327,1.7c-.4,1.674-2.781,3-4.355,3.875a1.34,1.34,0,0,1-1.344.037c-1.039-.582-1.409-2.729-1.539-4.111-1.254,1.079-1.013,3.707-1.01,3.737a.6.6,0,0,1-.534.652l-.059,0Z" transform="translate(-135.779 -205.75)" fill="#2d2d2d"/>
        </g>
        <g id="Grupo_146" data-name="Grupo 146" transform="translate(36.109 7.626)">
          <path id="Caminho_682" data-name="Caminho 682" d="M220.559,44.286l-.314.963a.453.453,0,0,1-.571.29l-2.787-.91a.453.453,0,0,1-.29-.571l.314-.963a1.919,1.919,0,1,1,3.648,1.191Z" transform="translate(-203.331 -41.771)" fill="#fcb73e"/>
          <path id="Caminho_683" data-name="Caminho 683" d="M217.725,44.9l-.838-.274a.453.453,0,0,1-.29-.571l.314-.963a1.918,1.918,0,0,1,2.419-1.229,1.361,1.361,0,0,1,.4.193,1.905,1.905,0,0,0-1.982,1.309l-.314.963A.453.453,0,0,0,217.725,44.9Z" transform="translate(-203.33 -41.771)" fill="#fd982e"/>
          <path id="Caminho_684" data-name="Caminho 684" d="M187.911,51.6,178.68,79.877a1.147,1.147,0,0,1-1.446.744l-3.829-1.25a1.147,1.147,0,0,1-.729-1.454l9.231-28.278a1.144,1.144,0,0,1,1.443-.733l3.829,1.25a1.144,1.144,0,0,1,.733,1.443Z" transform="translate(-170.014 -47.136)" fill="#4a128c"/>
          <path id="Caminho_685" data-name="Caminho 685" d="M174.684,79.789l-1.28-.418a1.147,1.147,0,0,1-.729-1.454l9.231-28.278a1.144,1.144,0,0,1,1.443-.733l1.28.418a1.144,1.144,0,0,0-1.443.733l-9.231,28.278A1.147,1.147,0,0,0,174.684,79.789Z" transform="translate(-170.014 -47.136)" fill="#2a0258"/>
          <path id="Caminho_686" data-name="Caminho 686" d="M215.063,64.882,212.382,73.1a.894.894,0,1,1-1.7-.555l2.726-8.35a.341.341,0,0,0-.214-.421l-7-2.286.555-1.7,6.866,2.241a2.263,2.263,0,0,1,1.45,2.855Z" transform="translate(-195.462 -55.424)" fill="#fcb73e"/>
          <rect id="Retângulo_119" data-name="Retângulo 119" width="1.788" height="6.316" transform="translate(6.849 17.955) rotate(-71.922)" fill="#fcb73e"/>
          <path id="Caminho_687" data-name="Caminho 687" d="M175.233,176.3a.715.715,0,0,1-.9.458l-5.718-1.867a.715.715,0,0,1,.444-1.359l5.718,1.867A.715.715,0,0,1,175.233,176.3Z" transform="translate(-166.606 -141.608)" fill="#5b5e8b"/>
          <path id="Caminho_688" data-name="Caminho 688" d="M170.115,175.4l-1.507-.492a.717.717,0,0,1-.458-.9.71.71,0,0,1,.9-.458l1.507.492a.71.71,0,0,0-.9.458.717.717,0,0,0,.458.9Z" transform="translate(-166.602 -141.621)" fill="#312e4b"/>
          <path id="Caminho_689" data-name="Caminho 689" d="M169.2,185.207l.108-3.864-5.155-1.683-2.2,3.18a.519.519,0,0,0-.038.5l2.062,4.246.038.075a.5.5,0,0,0,.68.222l.075-.038,4.17-2.212A.466.466,0,0,0,169.2,185.207Zm-3.5-.226a1.253,1.253,0,0,1-.793-.259,1.338,1.338,0,0,1-.5-1.516,1.365,1.365,0,1,1,2.594.847,1.348,1.348,0,0,1-1.306.928Z" transform="translate(-161.865 -146.28)" fill="#fcb73e"/>
          <path id="Caminho_690" data-name="Caminho 690" d="M172.3,200.83l-.935,2.865-.075.038a.5.5,0,0,1-.68-.222l-.038-.075.935-2.865a1.252,1.252,0,0,0,.793.259Z" transform="translate(-168.467 -162.129)" fill="#fd982e"/>
          <rect id="Retângulo_120" data-name="Retângulo 120" width="1.788" height="1.347" transform="translate(10.731 6.06) rotate(-71.922)" fill="#fd982e"/>
          <rect id="Retângulo_121" data-name="Retângulo 121" width="1.788" height="1.347" transform="translate(6.847 17.956) rotate(-71.922)" fill="#fd982e"/>
        </g>
      </g>
    </g>
  </g>
</svg>
