<svg xmlns="http://www.w3.org/2000/svg" xmlns:xlink="http://www.w3.org/1999/xlink" width="430" height="413" viewBox="0 0 430 413">
  <defs>
    <clipPath id="clip-path">
      <rect id="Retângulo_184" data-name="Retângulo 184" width="430" height="413" fill="#fff" stroke="#707070" stroke-width="1"/>
    </clipPath>
    <clipPath id="clip-path-2">
      <path id="Caminho_975" data-name="Caminho 975" d="M282.168,129.838c-41.039,70.373-173.482,91.776-219.6,127.868C20.355,290.753-2.12,367.178.158,428.076,2.424,488.993,48.7,549.564,109.427,554.648c26.428,2.2,52.868-5.6,79.324-3.8,84.689,5.78,131.86,100.764,206.316,141.5,85.822,46.95,195.192,13.744,274.593-43.38,50.5-36.328,95.944-84.521,112.03-144.612s-4.777-132.863-59.534-162.378c-49.336-26.6-124.479-22.695-143.689-75.339-13.448-36.81,12.769-75.294,18.662-114.036,9.219-60.7-36.961-121.127-95.487-139.685S389.482-8.846,346.354,34.869c-20.126,20.4-49.751,70.214-64.187,94.969" transform="translate(-60.005 -555.954) rotate(30)" fill="#4a128c"/>
    </clipPath>
    <clipPath id="clip-path-3">
      <rect id="Retângulo_160" data-name="Retângulo 160" width="329.667" height="314.915" fill="none"/>
    </clipPath>
    <clipPath id="clip-path-8">
      <rect id="Retângulo_132" data-name="Retângulo 132" width="40.89" height="45.141" fill="#c2a9e9"/>
    </clipPath>
    <clipPath id="clip-path-9">
      <rect id="Retângulo_133" data-name="Retângulo 133" width="62.675" height="162.388" fill="none"/>
    </clipPath>
    <clipPath id="clip-path-10">
      <rect id="Retângulo_134" data-name="Retângulo 134" width="11.612" height="22.538" fill="none"/>
    </clipPath>
    <clipPath id="clip-path-11">
      <rect id="Retângulo_135" data-name="Retângulo 135" width="201.872" height="257.23" fill="none"/>
    </clipPath>
    <clipPath id="clip-path-12">
      <rect id="Retângulo_136" data-name="Retângulo 136" width="127.607" height="189.023" fill="none"/>
    </clipPath>
    <clipPath id="clip-path-13">
      <rect id="Retângulo_137" data-name="Retângulo 137" width="52.379" height="55.815" fill="none"/>
    </clipPath>
    <clipPath id="clip-path-14">
      <rect id="Retângulo_138" data-name="Retângulo 138" width="21.787" height="16.893" fill="#bfa6e7"/>
    </clipPath>
    <clipPath id="clip-path-15">
      <rect id="Retângulo_139" data-name="Retângulo 139" width="24.23" height="30.761" fill="#bfa6e7"/>
    </clipPath>
    <clipPath id="clip-path-16">
      <rect id="Retângulo_140" data-name="Retângulo 140" width="9.643" height="31.95" fill="#bfa6e7"/>
    </clipPath>
    <clipPath id="clip-path-17">
      <rect id="Retângulo_141" data-name="Retângulo 141" width="3.958" height="1.473" fill="none"/>
    </clipPath>
    <clipPath id="clip-path-18">
      <rect id="Retângulo_143" data-name="Retângulo 143" width="6.38" height="19.195" fill="none"/>
    </clipPath>
    <clipPath id="clip-path-19">
      <rect id="Retângulo_144" data-name="Retângulo 144" width="15.55" height="4.146" fill="none"/>
    </clipPath>
    <clipPath id="clip-path-20">
      <rect id="Retângulo_145" data-name="Retângulo 145" width="57.288" height="17.17" fill="none"/>
    </clipPath>
    <clipPath id="clip-path-21">
      <rect id="Retângulo_146" data-name="Retângulo 146" width="106.064" height="53.183" fill="#dcf"/>
    </clipPath>
    <clipPath id="clip-path-22">
      <rect id="Retângulo_147" data-name="Retângulo 147" width="98.457" height="22.468" fill="none"/>
    </clipPath>
    <clipPath id="clip-path-23">
      <rect id="Retângulo_149" data-name="Retângulo 149" width="33.457" height="33.752" fill="#bfa6e7"/>
    </clipPath>
    <clipPath id="clip-path-25">
      <rect id="Retângulo_151" data-name="Retângulo 151" width="15.429" height="17.84" fill="none"/>
    </clipPath>
    <clipPath id="clip-path-26">
      <rect id="Retângulo_152" data-name="Retângulo 152" width="30.879" height="58.537" fill="#f9b113"/>
    </clipPath>
    <clipPath id="clip-path-27">
      <rect id="Retângulo_153" data-name="Retângulo 153" width="22.387" height="61.085" fill="none"/>
    </clipPath>
    <clipPath id="clip-path-28">
      <rect id="Retângulo_154" data-name="Retângulo 154" width="18.831" height="28.379" fill="none"/>
    </clipPath>
    <clipPath id="clip-path-29">
      <rect id="Retângulo_155" data-name="Retângulo 155" width="57.296" height="90.546" fill="none"/>
    </clipPath>
    <clipPath id="clip-path-30">
      <rect id="Retângulo_156" data-name="Retângulo 156" width="7.26" height="19.086" fill="none"/>
    </clipPath>
    <clipPath id="clip-path-31">
      <rect id="Retângulo_157" data-name="Retângulo 157" width="34.78" height="58.282" fill="none"/>
    </clipPath>
    <clipPath id="clip-path-32">
      <rect id="Retângulo_158" data-name="Retângulo 158" width="40.486" height="86.737" fill="none"/>
    </clipPath>
  </defs>
  <g id="Grupo_de_máscara_18" data-name="Grupo de máscara 18" clip-path="url(#clip-path)">
    <g id="Grupo_de_máscara_17" data-name="Grupo de máscara 17" clip-path="url(#clip-path-2)">
      <path id="Caminho_616" data-name="Caminho 616" d="M282.168,129.838c-41.039,70.373-173.482,91.776-219.6,127.868C20.355,290.753-2.12,367.178.158,428.076,2.424,488.993,48.7,549.564,109.427,554.648c26.428,2.2,52.868-5.6,79.324-3.8,84.689,5.78,131.86,100.764,206.316,141.5,85.822,46.95,195.192,13.744,274.593-43.38,50.5-36.328,95.944-84.521,112.03-144.612s-4.777-132.863-59.534-162.378c-49.336-26.6-124.479-22.695-143.689-75.339-13.448-36.81,12.769-75.294,18.662-114.036,9.219-60.7-36.961-121.127-95.487-139.685S389.482-8.846,346.354,34.869c-20.126,20.4-49.751,70.214-64.187,94.969" transform="translate(-60.005 -555.954) rotate(30)" fill="#ffcb64"/>
      <path id="Caminho_618" data-name="Caminho 618" d="M282.168,129.838c-41.039,70.373-173.482,91.776-219.6,127.868C20.355,290.753-2.12,367.178.158,428.076,2.424,488.993,48.7,549.564,109.427,554.648c26.428,2.2,52.868-5.6,79.324-3.8,84.689,5.78,131.86,100.764,206.316,141.5,85.822,46.95,195.192,13.744,274.593-43.38,50.5-36.328,95.944-84.521,112.03-144.612s-4.777-132.863-59.534-162.378c-49.336-26.6-124.479-22.695-143.689-75.339-13.448-36.81,12.769-75.294,18.662-114.036,9.219-60.7-36.961-121.127-95.487-139.685S389.482-8.846,346.354,34.869c-20.126,20.4-49.751,70.214-64.187,94.969" transform="translate(-60.005 -555.954) rotate(30)" fill="#4a128c"/>
      <g id="Grupo_255" data-name="Grupo 255" transform="translate(38 43.946)">
        <g id="Grupo_254" data-name="Grupo 254" clip-path="url(#clip-path-3)">
          <g id="Grupo_164" data-name="Grupo 164">
            <g id="Grupo_163" data-name="Grupo 163" clip-path="url(#clip-path-3)">
              <path id="Caminho_701" data-name="Caminho 701" d="M51.734,178.471c-.129-1.333-.426-2.65-.646-3.975a38.567,38.567,0,0,0-3.379-9.142,13.1,13.1,0,0,0-1.569-2.2,4.681,4.681,0,0,0-6.479-.926,13.755,13.755,0,0,0-4.279,4.315c-2.472,3.744-4.178,7.8-3.866,12.357a14,14,0,0,0,6.2,11.11c4.369,2.964,9.519,1.736,12.217-2.81a14.043,14.043,0,0,0,1.8-8.731" transform="translate(-6.81 -34.9)" fill="#bfa6e7" opacity="0.43"/>
              <path id="Caminho_702" data-name="Caminho 702" d="M81.532,180.782a14.076,14.076,0,0,0,.036-14.293,20.736,20.736,0,0,0-11.106-9.445,9.9,9.9,0,0,0-2.639-.559,4.489,4.489,0,0,0-4.991,3.18,16.108,16.108,0,0,0-.662,7.193c.155,1.824.432,3.64.654,5.461a18.163,18.163,0,0,0,3.911,9.073,10.867,10.867,0,0,0,5.346,3.55,8.136,8.136,0,0,0,9.452-4.161" transform="translate(-13.424 -33.846)" fill="#bfa6e7" opacity="0.43"/>
              <path id="Caminho_703" data-name="Caminho 703" d="M101.184,202.666c4.154-3.046,5.832-7.28,5.4-12.374a14.042,14.042,0,0,0-.343-1.667,17.584,17.584,0,0,0-4.739-9.05,8.191,8.191,0,0,0-.756-.662c-2.649-2.029-5.179-1.775-7.36.758a18.367,18.367,0,0,0-3.349,6.416c-1,3.025-1.852,6.079-1.453,9.329a11.546,11.546,0,0,0,2.032,5.454,7.283,7.283,0,0,0,10.572,1.8" transform="translate(-19.14 -38.41)" fill="#bfa6e7" opacity="0.43"/>
              <path id="Caminho_704" data-name="Caminho 704" d="M38.577,228.038c.047.49.136.973.228,1.61,1.178,4.659,4.386,7.383,9.089,8.4a19.106,19.106,0,0,0,13.926-2.542,14.5,14.5,0,0,1,9.129-1.957,19.313,19.313,0,0,0,13.576-3.172c3.427-2.393,5.46-5.631,5.28-9.943a11.781,11.781,0,0,0-4.13-8.4,23.5,23.5,0,0,0-4.475-3.153,36.362,36.362,0,0,1-9.427-7.223,13.991,13.991,0,0,0-20.4-.313,13.646,13.646,0,0,0-3.551,6.352,19.154,19.154,0,0,1-4.59,8.491,16.316,16.316,0,0,0-4.686,10.693,8.942,8.942,0,0,0,.031,1.159" transform="translate(-8.337 -42.633)" fill="#bfa6e7" opacity="0.43"/>
              <path id="Caminho_705" data-name="Caminho 705" d="M18.324,207.051c1.263,5.58,4.23,9.12,9.158,10.839,5.043,1.76,9.585-.988,10.371-6.144a11.29,11.29,0,0,0-.491-5.348c-1.368-4.084-4.166-7.148-7.269-9.948a16.31,16.31,0,0,0-3.716-2.476c-2.773-1.358-5.185-.522-6.689,2.17a14.733,14.733,0,0,0-1.641,7.631c.024,1.259.21,2.515.277,3.276" transform="translate(-3.903 -41.822)" fill="#bfa6e7" opacity="0.43"/>
              <path id="Caminho_706" data-name="Caminho 706" d="M157.354,32.459c-.085-2.046-.427-4.082-.651-6.124-1.078-4.877-2.112-9.755-4.391-14.245A20.116,20.116,0,0,0,150.1,8.6c-2.668-3.325-6.057-3.964-9.814-1.958a21.01,21.01,0,0,0-6.9,6.229c-4.09,5.511-7.037,11.561-6.943,18.545.1,7.053,2.812,13.124,8.538,17.489,6.423,4.893,14.39,3.451,18.893-3.264a21.475,21.475,0,0,0,3.479-13.182" transform="translate(-27.352 -1.191)" fill="#dcf" opacity="0.52"/>
              <path id="Caminho_707" data-name="Caminho 707" d="M202.858,38.359c4.32-7,4.877-14.427,1.257-21.825A31.714,31.714,0,0,0,187.95,1.176,15.125,15.125,0,0,0,183.968.1c-3.726-.524-6.36.985-7.89,4.436-1.546,3.485-1.726,7.2-1.616,10.928.083,2.8.353,5.6.538,8.4.62,5.15,1.972,10.009,5.208,14.185a16.613,16.613,0,0,0,7.867,5.87,12.442,12.442,0,0,0,14.783-5.558" transform="translate(-37.734 0)" fill="#dcf" opacity="0.52"/>
              <path id="Caminho_708" data-name="Caminho 708" d="M230.844,73.515c6.6-4.3,9.519-10.627,9.281-18.443a21.224,21.224,0,0,0-.384-2.574,26.887,26.887,0,0,0-6.476-14.217,12.369,12.369,0,0,0-1.1-1.075c-3.874-3.322-7.76-3.146-11.3.538a28.1,28.1,0,0,0-5.653,9.516c-1.773,4.535-3.339,9.127-3,14.123a17.659,17.659,0,0,0,2.644,8.5c3.643,5.694,10.328,7.323,15.993,3.632" transform="translate(-45.895 -7.537)" fill="#dcf" opacity="0.52"/>
              <path id="Caminho_709" data-name="Caminho 709" d="M132.781,107.315c.031.752.125,1.5.213,2.478,1.407,7.214,6.077,11.644,13.172,13.593,7.49,2.056,14.683.734,21.481-2.712a22.178,22.178,0,0,1,14.1-2.22c7.4,1.217,14.525.31,21-3.7,5.435-3.367,8.811-8.14,8.9-14.739a18.022,18.022,0,0,0-5.6-13.181,35.9,35.9,0,0,0-6.568-5.19A55.622,55.622,0,0,1,185.7,69.819a21.4,21.4,0,0,0-31.128-2.194,20.87,20.87,0,0,0-5.958,9.4,29.288,29.288,0,0,1-7.723,12.58c-4.489,4.367-7.486,9.556-8.056,15.935a13.661,13.661,0,0,0-.05,1.773" transform="translate(-28.722 -13.397)" fill="#dcf" opacity="0.52"/>
              <path id="Caminho_710" data-name="Caminho 710" d="M104.08,73.173c1.458,8.628,5.693,14.282,13.074,17.322,7.552,3.112,14.721-.7,16.355-8.511a17.265,17.265,0,0,0-.3-8.207c-1.745-6.352-5.762-11.265-10.264-15.8a24.951,24.951,0,0,0-5.465-4.095c-4.121-2.306-7.875-1.232-10.4,2.752a22.523,22.523,0,0,0-3.148,11.515c-.07,1.925.109,3.858.147,5.027" transform="translate(-22.48 -11.396)" fill="#dcf" opacity="0.52"/>
              <path id="Caminho_711" data-name="Caminho 711" d="M365.611,139.946c.654-1.168,1.163-2.418,1.738-3.632a38.545,38.545,0,0,0,2.443-9.435,13.183,13.183,0,0,0-.034-2.7,4.68,4.68,0,0,0-4.792-4.456,13.742,13.742,0,0,0-5.976,1.1c-4.168,1.665-7.884,4.022-10.227,7.941a14,14,0,0,0-1.247,12.663c1.9,4.928,6.826,6.858,11.636,4.664a14.036,14.036,0,0,0,6.458-6.144" transform="translate(-74.965 -25.894)" fill="#ebebeb" opacity="0.52"/>
              <path id="Caminho_712" data-name="Caminho 712" d="M389.243,157.937a14.077,14.077,0,0,0,8.186-11.718,20.737,20.737,0,0,0-3.729-14.094,9.884,9.884,0,0,0-1.848-1.964,4.489,4.489,0,0,0-5.914-.237,16.1,16.1,0,0,0-4.648,5.528c-.915,1.588-1.724,3.237-2.581,4.859a18.164,18.164,0,0,0-1.967,9.682,10.864,10.864,0,0,0,2.365,5.966,8.134,8.134,0,0,0,10.135,1.978" transform="translate(-81.48 -27.89)" fill="#ebebeb" opacity="0.52"/>
              <path id="Caminho_713" data-name="Caminho 713" d="M392.593,187.729c5.15-.131,8.944-2.65,11.493-7.082a13.908,13.908,0,0,0,.669-1.564,17.581,17.581,0,0,0,1.273-10.136,8.126,8.126,0,0,0-.243-.975c-1.016-3.179-3.24-4.414-6.476-3.578a18.369,18.369,0,0,0-6.411,3.357c-2.544,1.916-4.99,3.935-6.517,6.832a11.549,11.549,0,0,0-1.444,5.638,7.283,7.283,0,0,0,7.656,7.508" transform="translate(-83.27 -35.507)" fill="#ebebeb" opacity="0.52"/>
              <path id="Caminho_714" data-name="Caminho 714" d="M324.6,174.57c-.241.429-.444.877-.732,1.452-1.691,4.5-.611,8.566,2.67,12.085a19.106,19.106,0,0,0,12.887,5.86,14.5,14.5,0,0,1,8.613,3.6A19.317,19.317,0,0,0,361,202.714c4.18-.01,7.7-1.509,10.011-5.151a11.785,11.785,0,0,0,1.4-9.258,23.416,23.416,0,0,0-1.875-5.142,36.37,36.37,0,0,1-3.618-11.312,13.992,13.992,0,0,0-16.574-11.9,13.647,13.647,0,0,0-6.541,3.19,19.15,19.15,0,0,1-8.615,4.353,16.315,16.315,0,0,0-9.95,6.106,8.788,8.788,0,0,0-.636.969" transform="translate(-69.89 -34.545)" fill="#ebebeb" opacity="0.52"/>
              <path id="Caminho_715" data-name="Caminho 715" d="M322.769,143.574c-2.147,5.3-1.73,9.9,1.335,14.127,3.137,4.323,8.435,4.658,12.023.873a11.285,11.285,0,0,0,2.648-4.671c1.208-4.135.658-8.247-.292-12.318a16.341,16.341,0,0,0-1.638-4.154c-1.5-2.7-3.961-3.387-6.731-2.034a14.726,14.726,0,0,0-5.7,5.33c-.7,1.047-1.263,2.185-1.643,2.848" transform="translate(-69.532 -29.144)" fill="#ebebeb"/>
            </g>
          </g>
          <g id="Grupo_166" data-name="Grupo 166">
            <g id="Grupo_165" data-name="Grupo 165" clip-path="url(#clip-path-3)">
              <path id="Caminho_716" data-name="Caminho 716" d="M179.157,91.5c5.078,3.451,12.332,3.106,12.332,3.106s4.047-6.03,3.715-12.159c-.276-5.111-3.965-8.723-7.62-7.9-5.239,1.172-1.991,9.614-1.991,9.614s-5.545-7.147-9.262-3.266c-2.59,2.7-1.407,7.729,2.825,10.609" transform="translate(-37.849 -16.1)" fill="#f9b113"/>
              <path id="Caminho_717" data-name="Caminho 717" d="M199.346,53.06c1.413,3.809,5.455,6.407,5.455,6.407s4.5-1.7,6.669-5.128c1.813-2.86,1.211-6.223-1.073-7.186-3.273-1.379-4.763,4.418-4.763,4.418s-.245-5.981-3.738-5.316c-2.434.463-3.726,3.626-2.55,6.8" transform="translate(-43.028 -9.995)" fill="#f9b113"/>
              <path id="Caminho_718" data-name="Caminho 718" d="M375.192,168.277c.824,3.978,4.431,7.153,4.431,7.153s4.7-1,7.363-4.067c2.223-2.556,2.132-5.972.019-7.265-3.03-1.855-5.372,3.653-5.372,3.653s.654-5.95-2.9-5.816c-2.476.092-4.228,3.026-3.542,6.343" transform="translate(-81.13 -35.03)" fill="#f9b113"/>
              <path id="Caminho_719" data-name="Caminho 719" d="M41.921,173.488c5.964,5.833,15.749,7.111,15.749,7.111s6.859-7.094,7.885-15.369c.857-6.9-3.211-12.619-8.3-12.4-7.288.31-4.968,12.381-4.968,12.381s-5.7-10.888-11.6-6.589c-4.113,3-3.736,10,1.234,14.868" transform="translate(-8.193 -33.059)" fill="#f9b113"/>
            </g>
          </g>
          <g id="Grupo_168" data-name="Grupo 168">
            <g id="Grupo_167" data-name="Grupo 167" clip-path="url(#clip-path-3)">
              <path id="Caminho_720" data-name="Caminho 720" d="M52.149,370.347c-3.831,2.32-8.067,4.977-12.718,4.249-4.293-.672-8.908-2.67-10.747-6.895-.523-1.205-.654-2.056.841-2.252,2.279-.3,4.864.956,6.961,1.679a45.241,45.241,0,0,0,8.292,2.115c1.986.291,4,.375,5.994.617.251.026.5.058.752.1.092.01.19.022.287.038.037-.017.076-.039.113-.059a.222.222,0,0,1,.208-.005.217.217,0,0,1,.067.05.235.235,0,0,1-.049.365" transform="translate(-6.127 -79.045)" fill="#455a64"/>
              <path id="Caminho_721" data-name="Caminho 721" d="M53.418,370.663c-3.469,1.859-7.09,4.085-11.14,3.288a18.256,18.256,0,0,1-5.356-2.1c-.758-.426-3.024-1.687-2.96-2.73.119-1.887,7.371,1.486,8.24,1.712a19.206,19.206,0,0,0,9.788-.295c.251.025.5.058.752.1a21.461,21.461,0,0,1-6.92.993c-3.251-.094-5.808-1.487-8.837-2.429-.655-.206-2.714-.972-2.675.2.026.771,2.229,2.017,2.7,2.283a18.164,18.164,0,0,0,5.074,2c4.076.864,7.721-1.281,11.263-3.072a.231.231,0,0,1,.067.05" transform="translate(-7.347 -79.727)" fill="#fff"/>
              <path id="Caminho_722" data-name="Caminho 722" d="M58.564,366.958c.049.169.105.335.158.505a.028.028,0,0,1,0,.016.119.119,0,0,1-.025.12.189.189,0,0,1-.249.035.139.139,0,0,1-.055-.093c-.005-.023-.011-.046-.015-.072-.01-.053-.021-.1-.031-.157a.054.054,0,0,1-.015-.006c-.01-.013-.025-.027-.036-.038-2.136-2.2-3.907-4.738-6.081-6.92-2.074-2.08-4.293-4.02-6.2-6.26-1.2-1.412-6.761-8.77-2.692-9.738,1.8-.428,4.129,1.23,5.472,2.249a18.824,18.824,0,0,1,4.493,5.007c2.971,4.72,3.658,10.139,5.276,15.351" transform="translate(-9.054 -74.476)" fill="#455a64"/>
              <path id="Caminho_723" data-name="Caminho 723" d="M59.989,368.711c-.047-.141-.086-.274-.133-.408a.333.333,0,0,0-.031-.094c-.11-.2-.227-.4-.345-.588a91.407,91.407,0,0,0-4.067-9.976,21.836,21.836,0,0,0-3.589-5.094c-.494-.525-2.9-3.033-3.848-2.406-.619.4-.024,1.732.157,2.179.768,1.9,2.351,3.393,3.66,4.921a83.814,83.814,0,0,1,7.241,9.937c.094.235.188.486.282.729l.235.588c0,.008.008.008.008.016.031.071.055.133.086.2a1.484,1.484,0,0,0,.071.165.183.183,0,0,0,.243-.039c-.063-.157-.118-.313-.18-.47l.212.353Zm-5.36-8.26c-1.168-1.544-2.406-3.017-3.675-4.467a20.12,20.12,0,0,1-2.03-2.578c-.431-.705-1.834-3.456.486-2.563,1.677.65,3.354,3.088,4.3,4.506a31.007,31.007,0,0,1,2.672,5.008c.854,1.967,1.575,4,2.335,6q-1.9-3.056-4.091-5.909" transform="translate(-10.319 -75.723)" fill="#fff"/>
              <path id="Caminho_724" data-name="Caminho 724" d="M67.709,384.194l0,0a1.285,1.285,0,0,1-.134.1c-3.675,1.814-8.249,4.807-12.541,4.1-3.172-.521-7.255-2.767-8.2-6.083-1.053-3.742,5.616-2.27,7.329-1.973a125.013,125.013,0,0,1,13.514,3.632c.026.015.055.023.081.038a.035.035,0,0,0,.013.008c.063.04.006.114-.064.176" transform="translate(-10.107 -82.161)" fill="#455a64"/>
              <path id="Caminho_725" data-name="Caminho 725" d="M68.88,384.741c-.274-.008-.549-.024-.831-.039-3.174-.165-6.348-.47-9.49-.933-.8-.118-6.818-1.45-6.708.165.063.98,2.273,1.818,2.994,2.116a12.552,12.552,0,0,0,4.067.9c3.213.157,6.277-1.136,9.373-1.928.141-.039.29-.078.439-.11a.316.316,0,0,0,.086,0h.008c.071-.063.125-.133.063-.172m-8.205,1.912a12.736,12.736,0,0,1-4.248-.36c-.917-.235-4.224-1.191-4.153-2.39.039-.627.423-.517,1.152-.556a8.435,8.435,0,0,1,1,.008c.823.063,1.63.212,2.437.345q2.128.364,4.263.611c2.343.29,4.686.47,7.037.58-2.516.541-4.929,1.544-7.484,1.763" transform="translate(-11.216 -82.882)" fill="#fff"/>
              <path id="Caminho_726" data-name="Caminho 726" d="M74.151,368.352A24.206,24.206,0,0,1,74,382.469a.188.188,0,0,1-.266.111.175.175,0,0,1-.1-.216c.029-.092.052-.189.079-.284-2.121-5.189-4.164-10.384-6.385-15.536-.523-1.212-3.7-9.023-.795-9.087,1.8-.038,3.561,2.9,4.43,4.183a24.355,24.355,0,0,1,3.186,6.711" transform="translate(-14.131 -77.326)" fill="#455a64"/>
              <path id="Caminho_727" data-name="Caminho 727" d="M74.941,379.789a29.645,29.645,0,0,0-.517-5.486,27.45,27.45,0,0,0-1.638-5.392c-.674-1.6-1.552-3.832-2.829-5.047-.345-.337-.792-.635-1.089-.1-.564,1.034,1,4.663,1.395,5.7,1.583,4.255,2.759,8.542,3.958,12.9.1.368.2.737.306,1.113-.016.133-.031.274-.055.408a.177.177,0,0,0,.219-.031.625.625,0,0,0-.024-.118c.024-.18.055-.368.071-.556a27.168,27.168,0,0,0,.2-3.385m-.392,3.393c-.031-.157-.055-.306-.094-.454a80.88,80.88,0,0,0-2.79-10.141c-.6-1.685-1.293-3.315-1.834-5.016-.219-.713-.933-2.727-.564-3.323.345-.58.752.125,1.042.509.2.274.5.815.658,1.089a28.272,28.272,0,0,1,3.613,17.068c-.008.094-.024.18-.031.266" transform="translate(-14.871 -78.627)" fill="#fff"/>
              <path id="Caminho_728" data-name="Caminho 728" d="M71.246,391.238h-.94c-.212-.368-.431-.729-.643-1.089-1.5-2.492-3.017-4.969-4.592-7.421-.893-1.4-1.795-2.782-2.743-4.122-.031-.047-.063-.086-.094-.141-.078-.1-.157-.212-.235-.321s-.172-.235-.259-.353a35.315,35.315,0,0,0-7.664-7.962c-1-.729-2.03-1.418-3.088-2.085H50.98c-.1-.063-.2-.125-.3-.188h-.008a.694.694,0,0,0-.078-.047.008.008,0,0,1-.008-.008c-.094-.063-.2-.125-.306-.18a.008.008,0,0,0-.008-.008c-.078-.047-.149-.094-.227-.141a.008.008,0,0,0-.008-.008c-3.276-1.983-6.724-3.707-10.078-5.509-.964-.509-1.928-1.027-2.876-1.552a1.145,1.145,0,0,1-.172-.094,1.914,1.914,0,0,1-.219-.11c-4.24-2.3-8.456-4.647-12.743-6.834-.165-.078-.016-.313.141-.227,2.876,1.426,5.784,2.79,8.683,4.177.384.18.776.368,1.16.556.768.36,1.528.729,2.288,1.1.008,0,.008.008.016.016,1.528.721,3.025,1.465,4.53,2.241a117.047,117.047,0,0,1,12.523,6.967c.29.2.58.408.87.619.188.125.368.259.541.392.212.141.415.3.619.455a37.839,37.839,0,0,1,8.691,9.914.008.008,0,0,0,.008.008c.157.259.329.509.494.776.071.118.157.243.235.368.039.063.078.125.125.188.047.086.1.165.157.259.039.063.078.125.118.2.141.219.274.447.415.674q2.28,3.726,4.475,7.484c.4.674.8,1.34,1.207,2.014" transform="translate(-5.166 -76.323)" fill="#455a64"/>
              <path id="Caminho_729" data-name="Caminho 729" d="M22.462,355.353c-3.425-1.539-8.964-5.567-7.656-10a3.516,3.516,0,0,1,3.919-2.584c2.139.252,3.985,1.952,5.44,3.4,3.892,3.865,7.386,8.067,11.555,11.657.044.01.354.307.449.384s-.042.2-.126.125c-.137-.116-.272-.234-.41-.349-4.378-.521-9.11-.809-13.172-2.635" transform="translate(-3.16 -74.143)" fill="#455a64"/>
              <path id="Caminho_730" data-name="Caminho 730" d="M37.032,358.836a.528.528,0,0,0-.094-.047,37.625,37.625,0,0,1-3.73-2.382,75.791,75.791,0,0,1-7.022-5.972c-.862-.815-4.969-4.859-5.619-1.975-.274,1.223.627,2.6,1.3,3.527a13.859,13.859,0,0,0,4.028,3.7,25.382,25.382,0,0,0,10.29,3.158c.165.023.329.047.486.063a1.175,1.175,0,0,0,.133.078.008.008,0,0,0,.008.008.353.353,0,0,0,.094.047.065.065,0,0,0,.063.016h.008a.129.129,0,0,0,.11-.141v-.008a.1.1,0,0,0-.055-.071m-1.066-.1a29.974,29.974,0,0,1-8.589-2.453,16.005,16.005,0,0,1-3.84-2.657,12.364,12.364,0,0,1-1.371-1.56,7.965,7.965,0,0,1-.839-1.317c-.525-1.011-.721-2.327-.188-2.758.65-.533,1.128-.243,2.077.321a8.291,8.291,0,0,1,.917.635,27.356,27.356,0,0,1,2.092,1.834c1.121,1.05,2.241,2.092,3.4,3.1.792.682,1.6,1.348,2.422,1.975a38.871,38.871,0,0,0,4.475,2.97c-.18-.024-.368-.055-.556-.086" transform="translate(-4.438 -75.159)" fill="#fff"/>
              <path id="Caminho_731" data-name="Caminho 731" d="M378.134,354.367c-1.938,2.3-4.029,4.472-6.141,6.613-1.2,1.216-2.407,2.418-3.6,3.639-1.317,1.342-2.8,2.619-3.394,4.451l.006.009a1.13,1.13,0,0,1-.125.227.106.106,0,0,1-.034.015.223.223,0,0,1-.286-.267c.013-.043.027-.082.04-.121,0-.016,0-.033,0-.049a7.281,7.281,0,0,1,.3-1.65A39.123,39.123,0,0,1,366,362.8a37.307,37.307,0,0,1,3.8-8.516,31.5,31.5,0,0,1,5.25-6.486c1.629-1.53,4.027-3.83,6.287-4.341,2.047-.458,1.76,2.223,1.451,3.472-.708,2.835-2.827,5.255-4.661,7.434" transform="translate(-78.86 -74.287)" fill="#455a64"/>
              <path id="Caminho_732" data-name="Caminho 732" d="M379.346,348.728c-.917-.6-3.5,1.92-4.647,2.986a30.1,30.1,0,0,0-4.773,5.635,39.107,39.107,0,0,0-5.2,12.147c-.047.172-.094.345-.133.517,0,.016.008.039,0,.055a1.2,1.2,0,0,0-.031.118.223.223,0,0,0,.29.266,9.666,9.666,0,0,1,.415-.917.481.481,0,0,1,.039-.094c.039-.071.071-.149.118-.219.1-.227.219-.447.337-.658a52.147,52.147,0,0,1,6.434-8.675c2.712-3.2,8.362-10.368,7.155-11.16m-1.246,2.994c-.266.462-.556.909-.854,1.356-.6.909-1.27,1.787-1.936,2.649-1.465,1.873-3.033,3.668-4.561,5.486a41.389,41.389,0,0,0-5.541,7.829c-.219.439-.415.878-.6,1.324.094-.353.188-.705.29-1.05a43.4,43.4,0,0,1,4.537-10.744,31.179,31.179,0,0,1,3.981-5.251A30.034,30.034,0,0,1,376,350.907c.384-.313,2.657-2.351,3.135-1.857.345.345-1.011,2.625-1.034,2.672" transform="translate(-78.86 -75.418)" fill="#fff"/>
              <path id="Caminho_733" data-name="Caminho 733" d="M386.8,376.835c-3.8,2.181-8.254,2.851-12.567,3.1-2.311.132-4.627.158-6.936.237a30.685,30.685,0,0,0-6.178.493c-.087.018-.178.041-.267.067a8.037,8.037,0,0,0-1.62.624.118.118,0,0,1-.111,0,1.734,1.734,0,0,1-.149.109.04.04,0,0,1-.056-.056c.038-.049.086-.1.124-.15.005,0,.006-.008.011-.012a.122.122,0,0,1,.072-.132.437.437,0,0,1,.063-.034c.041-.048.082-.1.125-.147,2.963-3.513,8.147-5.639,12.322-7.113a24.224,24.224,0,0,1,13.022-1.34c1.1.234,3.7.6,4.126,1.893.391,1.183-1.174,2-1.981,2.458" transform="translate(-77.64 -80.491)" fill="#455a64"/>
              <path id="Caminho_734" data-name="Caminho 734" d="M384.239,375.758c-.282-1.309-3.9-.87-4.788-.792a46.083,46.083,0,0,0-7.915,1.567,41.437,41.437,0,0,0-12.029,4.937v.008c-.055.016-.1.031-.149.047-.055.055-.094.1-.133.149a.466.466,0,0,0-.063.031.137.137,0,0,0-.071.141,2.023,2.023,0,0,1,.2-.063c.525-.172,1.058-.321,1.6-.455.086-.024.18-.055.266-.071a91.144,91.144,0,0,1,11.418-1.693,42.786,42.786,0,0,0,7.884-1.552c.65-.2,4.012-1.152,3.777-2.257m-1.873,1.277c-4.106,2-9.091,2.163-13.558,2.664a47.549,47.549,0,0,0-8.926,1.654,44.526,44.526,0,0,1,10.971-4.334,59.091,59.091,0,0,1,6.575-1.5,23.429,23.429,0,0,1,3.636-.361,9.337,9.337,0,0,1,2.179.18c1.324.392-.172,1.348-.878,1.693" transform="translate(-77.679 -81.085)" fill="#fff"/>
              <path id="Caminho_735" data-name="Caminho 735" d="M351.792,386.118a.241.241,0,0,1-.233-.015c0,.032,0,.058.005.088a.069.069,0,0,1-.063.074.064.064,0,0,1-.082-.053c-1.05-5.168-1.547-10.941-.375-16.123a20.633,20.633,0,0,1,2.468-6.219c.8-1.309,2.417-3.944,4.127-4.168,3.44-.442.263,8.864-.22,10.265-.879,2.554-1.972,5.027-2.9,7.563-1.014,2.777-1.825,5.621-2.637,8.461a.2.2,0,0,1-.089.125" transform="translate(-75.793 -77.809)" fill="#455a64"/>
              <path id="Caminho_736" data-name="Caminho 736" d="M356.6,364.09c-.666.2-2.453,3.636-2.845,4.569a28.441,28.441,0,0,0-1.771,6.661,46.308,46.308,0,0,0-.282,11.551c.008.118.016.227.031.337a.071.071,0,0,0,.063-.078.263.263,0,0,1,0-.078.206.206,0,0,0,.063.023.222.222,0,0,0,.172-.016v-.008c.008-.282.024-.556.047-.839a44.286,44.286,0,0,1,2.994-13.33,41.922,41.922,0,0,0,2.163-6.552c.1-.556.658-2.625-.635-2.241m.47,1.9a11.551,11.551,0,0,1-.525,2.186c-.337,1-.7,2-1.081,2.994-.752,1.983-1.536,3.965-2.139,6a34.545,34.545,0,0,0-1.465,8.989,53.552,53.552,0,0,1,.141-8.895,32.263,32.263,0,0,1,1.332-6.716,23.291,23.291,0,0,1,.987-2.539,14.938,14.938,0,0,1,1.011-1.881c.964-1.458,1.324-1.755,1.6-1.654.172.071.282.36.141,1.513" transform="translate(-76.031 -78.751)" fill="#fff"/>
              <path id="Caminho_737" data-name="Caminho 737" d="M366.326,390.674a13.079,13.079,0,0,1-4.78,2.905c-3.49,1.346-7.215,1.928-10.785,3.024-.532.164-1.063.338-1.59.529-.056.023-.633.4-.6.36.007-.01.173-.189.462-.487l0,0c1.416-1.473,5.775-5.867,8.782-7.609a26.809,26.809,0,0,1,5.921-2.686c.988-.274,3.231-.8,4.041.161.871,1.033-.773,3.1-1.454,3.8" transform="translate(-75.403 -83.57)" fill="#455a64"/>
              <path id="Caminho_738" data-name="Caminho 738" d="M365.36,389.109c-.643-1.364-6.638,1.787-7.429,2.186a37.3,37.3,0,0,0-8.072,5.5c-.282.235-.549.486-.823.737-.188.2-.329.345-.4.423a.354.354,0,0,0-.055.055,1,1,0,0,0,.18-.094l.125-.078c.063-.039.125-.078.172-.11s.1-.063.118-.071l.266-.094c.172-.063.353-.125.525-.18.266-.086.533-.172.792-.251h.008c2.375-1.019,4.773-2,7.131-3.072a35.408,35.408,0,0,0,4.914-2.664c.353-.235,2.829-1.693,2.547-2.288m-1.215,1.2c-4.334,3.315-9.663,4.686-14.537,6.959-.086.039-.157.078-.243.11.11-.086.212-.18.321-.266a42.675,42.675,0,0,1,6.622-4.655,41.407,41.407,0,0,1,4.436-2.163,21.861,21.861,0,0,1,2.523-.987c.384-.094,1.434-.329,1.583-.078.2.353-.423.862-.705,1.081" transform="translate(-75.406 -84.1)" fill="#fff"/>
              <path id="Caminho_739" data-name="Caminho 739" d="M406.83,353.992c-7.972,5.27-18.59,3.237-26.831,7.957l-.042.025q-.377.215-.747.452a.178.178,0,0,1-.266-.12.127.127,0,0,1,.066-.131,1.939,1.939,0,0,1,.179-.111,45.673,45.673,0,0,1,12.85-9.943c4.04-2.193,8.615-3.726,13.26-3.244,1.146.116,3.426.274,3.914,1.629.519,1.434-1.4,2.838-2.383,3.486" transform="translate(-81.974 -75.451)" fill="#455a64"/>
              <path id="Caminho_740" data-name="Caminho 740" d="M403.744,353.246c-.212-.564-1.066-.6-1.528-.643a14.548,14.548,0,0,0-3.5.078,24.246,24.246,0,0,0-6.865,2.085,50.2,50.2,0,0,0-10.572,6.285c-.721.58-1.419,1.183-2.085,1.826-.086.078-.165.157-.251.235a.182.182,0,0,0,.266.125c.235-.149.455-.282.69-.415.008-.008.023-.016.031-.023a.282.282,0,0,1,.071-.039,29.6,29.6,0,0,1,5-2.712,69.075,69.075,0,0,1,8.479-2.563c1.121-.3,11-2.3,10.266-4.24m-1.614,1.371a32.682,32.682,0,0,1-6.787,2.132c-2.288.627-4.584,1.215-6.865,1.873a33.085,33.085,0,0,0-5.282,2,26.031,26.031,0,0,0-4.052,2.406,34.693,34.693,0,0,1,3.644-2.868.068.068,0,0,1,.047-.024,65.647,65.647,0,0,1,7.116-4.169c.023-.016.063-.031.094-.047a30.248,30.248,0,0,1,6.747-2.641,17.247,17.247,0,0,1,3.911-.5c1.489,0,2.7.157,2.743.666.023.345-.7.854-1.317,1.176" transform="translate(-81.974 -76.261)" fill="#fff"/>
              <path id="Caminho_741" data-name="Caminho 741" d="M383.26,357.1c-2.3,1.45-4.592,2.954-6.865,4.467q-1.611,1.07-3.2,2.139a.284.284,0,0,0-.071.039c-.008.008-.023.016-.031.023-.376.243-.752.494-1.121.745a78.619,78.619,0,0,0-10.211,7.5A34.88,34.88,0,0,0,357.43,377c-.008.008-.016.023-.023.031-.133.188-.266.368-.407.556v.008l-.212.306c-.047.055-.078.118-.118.172-1.1,1.575-2.132,3.205-3.127,4.8-1.387,2.218-2.61,4.506-3.809,6.818a.008.008,0,0,0-.008.008.993.993,0,0,0-.1.2c-.063.1-.117.2-.172.313a1.469,1.469,0,0,0-.078.157c-.055.1-.11.2-.165.3-.251.486-.5.964-.76,1.45H347.5a52.833,52.833,0,0,1,3.268-6.653v-.008a.746.746,0,0,1,.078-.133c.118-.219.251-.447.376-.658.157-.274.306-.533.47-.8,0-.008.008-.008.008-.016.392-.635.768-1.27,1.16-1.889a55.161,55.161,0,0,1,7.805-10.337c.086-.078.172-.157.259-.243a.678.678,0,0,1,.11-.1c.055-.063.118-.117.18-.18l.306-.274c.18-.165.368-.321.549-.478l.165-.141.008-.008a84.781,84.781,0,0,1,9.49-6.512c.588-.368,1.168-.737,1.763-1.1.321-.2.65-.4.98-.6.5-.3,1.011-.6,1.513-.893a.068.068,0,0,1,.047-.024c2.367-1.4,4.757-2.751,7.116-4.169.11-.063.219.125.11.188" transform="translate(-75.173 -77.205)" fill="#455a64"/>
            </g>
          </g>
          <g id="Grupo_227" data-name="Grupo 227">
            <g id="Grupo_226" data-name="Grupo 226" clip-path="url(#clip-path-3)">
              <path id="Caminho_742" data-name="Caminho 742" d="M322.833,308.135S337.38,350.29,344.541,367.4a22.212,22.212,0,0,0,5.383,7.294c1.215,1.216,48.625.174,49.493,0s-5.036-11.548-8.336-13.111-28.306,3.039-28.306,3.039-.926-49.493-.636-51a42.766,42.766,0,0,0,.231-5.491l.579,7.576s1.679-5.673,1.737-8.278-1.563-28.364-1.563-28.364Z" transform="translate(-69.836 -60.369)" fill="#dcf"/>
              <path id="Caminho_744" data-name="Caminho 744" d="M406.437,391.454c2.465,1.58,5.145,4.7,4.118,7.812-.168-3.142-2.4-5.342-4.118-7.812" transform="translate(-87.922 -84.681)" fill="#263238"/>
              <path id="Caminho_745" data-name="Caminho 745" d="M412.642,391.084c2.465,1.58,5.144,4.7,4.117,7.812-.168-3.142-2.4-5.342-4.117-7.812" transform="translate(-89.264 -84.601)" fill="#263238"/>
              <g id="Grupo_174" data-name="Grupo 174" transform="translate(252.999 218.699)" opacity="0.76">
                <g id="Grupo_173" data-name="Grupo 173">
                  <g id="Grupo_172" data-name="Grupo 172" clip-path="url(#clip-path-8)">
                    <path id="Caminho_746" data-name="Caminho 746" d="M363.726,288.927c-4.6,8.972-11.385,18.553-13.714,20.548a178.522,178.522,0,0,1-21.546,14.733c-3.28-9.264-5.63-16.074-5.63-16.074l40.284-29.067s.282,4.46.606,9.859" transform="translate(-322.836 -279.068)" fill="#c2a9e9"/>
                  </g>
                </g>
              </g>
              <path id="Caminho_747" data-name="Caminho 747" d="M117.11,314.238l-2.8,11.229c-23.359-18.014-45.559-47.089-53.886-74.746-1.8-5.987-5.907-18.96-5.986-24.315-.079-5.615,2.869-13.7,3.117-14.358a56.136,56.136,0,0,0,.023,14.268c.045-1.013.124-2,.236-2.994,3.545-32.371,49.014-60.243,49.014-60.243S84.737,196.756,87.314,241.46c.911,15.786,6.56,31.461,12.692,44.2-2.835-6.189-5.457-16.225-5.614-16.844.473,1.114,13.12,30.875,17.856,38.448.18.281.338.518.484.731.124.18.225.338.315.484,2.464,3.679,4.062,5.761,4.062,5.761" transform="translate(-11.776 -35.278)" fill="#bfa6e7"/>
              <g id="Grupo_180" data-name="Grupo 180" transform="translate(93.722 267.652)" opacity="0.1">
                <g id="Grupo_179" data-name="Grupo 179">
                  <g id="Grupo_178" data-name="Grupo 178" clip-path="url(#clip-path-10)">
                    <path id="Caminho_749" data-name="Caminho 749" d="M131.2,352.841l-2.8,11.229c-2.971-2.284-5.918-4.748-8.81-7.37l4.366-15.168c.911,1.789,1.721,3.274,2.385,4.332.18.281.338.518.484.731.124.18.225.338.315.484,2.464,3.679,4.062,5.761,4.062,5.761" transform="translate(-119.593 -341.534)"/>
                  </g>
                </g>
              </g>
              <path id="Caminho_750" data-name="Caminho 750" d="M125.349,310.738c.3,3.987-.521,19.1,14.587,19.1H214.61c9.725,0,78.037-56.11,89.555-69.117s21.414-28.654,22.8-41.157-11.866-69.29-26.281-95.86c0,0-.116-12.5-3.415-22.576s-12.5-24.486-22.923-27.785S215.3,78.381,210.442,87.933s-4.515,26.4-4.515,26.4-41.85,17.884-41.676,20.836,16.671,20.666,30.564,22.055,40.634-9.2,40.634-9.2a20.634,20.634,0,0,1-.174,9.551c-1.389,4.516-36.642,52.98-43.068,57.749s-42.025,17.793-49.84,31.164-18.581,43.242-17.018,64.254" transform="translate(-27.083 -15.707)" fill="#ffc727"/>
              <path id="Caminho_751" data-name="Caminho 751" d="M125.349,310.738c.3,3.987-.521,19.1,14.587,19.1H214.61c9.725,0,78.037-56.11,89.555-69.117s21.414-28.654,22.8-41.157-11.866-69.29-26.281-95.86c0,0-.116-12.5-3.415-22.576s-12.5-24.486-22.923-27.785S215.3,78.381,210.442,87.933s-4.515,26.4-4.515,26.4-41.85,17.884-41.676,20.836,16.671,20.666,30.564,22.055,40.634-9.2,40.634-9.2a20.634,20.634,0,0,1-.174,9.551c-1.389,4.516-36.642,52.98-43.068,57.749s-42.025,17.793-49.84,31.164-18.581,43.242-17.018,64.254" transform="translate(-27.083 -15.707)" fill="#dcf"/>
              <g id="Grupo_186" data-name="Grupo 186" transform="translate(98.112 125.109)" opacity="0.1">
                <g id="Grupo_185" data-name="Grupo 185">
                  <g id="Grupo_184" data-name="Grupo 184" clip-path="url(#clip-path-12)">
                    <path id="Caminho_753" data-name="Caminho 753" d="M149.317,263.743c-5.556,7.3-12.126,49.329-5.023,64.254,6.037,12.7,40.346,19.635,60.943,20.669h-65.3c-15.113,0-14.3-15.113-14.591-19.1-1.567-21.014,9.2-50.886,17.025-64.254s43.407-26.393,49.841-31.166,41.673-53.235,43.062-57.747a20.649,20.649,0,0,0,.177-9.547s10.633-5.034,14.55-7.207c0,0,2.788,10.215,2.8,15.938,0,5.744-47.8,58.019-56.023,61.8s-41.9,19.072-47.459,26.361" transform="translate(-125.194 -159.644)" fill="#bfa6e7"/>
                  </g>
                </g>
              </g>
              <g id="Grupo_189" data-name="Grupo 189" transform="translate(103.112 204.727)" opacity="0.2">
                <g id="Grupo_188" data-name="Grupo 188">
                  <g id="Grupo_187" data-name="Grupo 187" clip-path="url(#clip-path-13)">
                    <path id="Caminho_754" data-name="Caminho 754" d="M183.953,261.239c-1.055,12.961-7.562,31.991-17.286,42.843-9.881,11.029-29.558,12.711-35.093,12.972,3.488-11.969,8.209-22.988,12.178-29.766,5.827-9.964,27.092-19.74,40.2-26.049" transform="translate(-131.574 -261.239)"/>
                  </g>
                </g>
              </g>
              <g id="Grupo_192" data-name="Grupo 192" transform="translate(165.306 198.343)">
                <g id="Grupo_191" data-name="Grupo 191">
                  <g id="Grupo_190" data-name="Grupo 190" clip-path="url(#clip-path-14)">
                    <path id="Caminho_755" data-name="Caminho 755" d="M211.016,265.18c1.145,5.032,11.288,5.845,16.15,3.674s7.642-9.8,3.647-14.493-21.187,4.715-19.8,10.819" transform="translate(-210.937 -253.093)" fill="#bfa6e7"/>
                  </g>
                </g>
              </g>
              <g id="Grupo_195" data-name="Grupo 195" transform="translate(177.12 158.187)">
                <g id="Grupo_194" data-name="Grupo 194">
                  <g id="Grupo_193" data-name="Grupo 193" clip-path="url(#clip-path-15)">
                    <path id="Caminho_756" data-name="Caminho 756" d="M250.222,213.925c-.261,6.162-5.64,16.064-11.457,18.058-4.324,1.484-9.891.23-12.753-2.58,6.507-8.313,14.278-18.852,20.43-27.552,2.684,1.984,3.979,7.5,3.78,12.073" transform="translate(-226.012 -201.852)" fill="#bfa6e7"/>
                  </g>
                </g>
              </g>
              <g id="Grupo_198" data-name="Grupo 198" transform="translate(264.946 150.576)" opacity="0.69">
                <g id="Grupo_197" data-name="Grupo 197">
                  <g id="Grupo_196" data-name="Grupo 196" clip-path="url(#clip-path-16)">
                    <path id="Caminho_757" data-name="Caminho 757" d="M340.977,223.893a45.244,45.244,0,0,0,1.079-14.621.435.435,0,0,1,.749-.311c.73.792,2.786,3.016,3.088,3.361-.013-.295-.026-.589-.051-.876q-.129-1.489-.4-2.953a36.131,36.131,0,0,0-1.539-5.765,34.615,34.615,0,0,0-2.487-5.421c-1-1.749-2.189-3.368-3.329-5.041-.049-.072.081-.168.152-.107a23.8,23.8,0,0,1,4.079,4.781,32.44,32.44,0,0,1,2.893,5.287,30.529,30.529,0,0,1,1.855,5.789q.326,1.543.5,3.121a8.73,8.73,0,0,1,.012,3.091c-.166.676-1.158.574-1.44.1-.171-.284-2.776-3.481-3.173-3.944a30.274,30.274,0,0,1-1.609,13.571c-.08.222-.433.15-.387-.062" transform="translate(-338.081 -192.141)" fill="#bfa6e7"/>
                  </g>
                </g>
              </g>
              <g id="Grupo_201" data-name="Grupo 201" transform="translate(203.994 131.785)" opacity="0.1">
                <g id="Grupo_200" data-name="Grupo 200">
                  <g id="Grupo_199" data-name="Grupo 199" clip-path="url(#clip-path-17)">
                    <path id="Caminho_758" data-name="Caminho 758" d="M264.262,168.163c-.647.261-2.037.783-3.958,1.473Z" transform="translate(-260.304 -168.163)"/>
                  </g>
                </g>
              </g>
              <path id="Caminho_759" data-name="Caminho 759" d="M224.841,365.81s-2,7.069-.463,8.6,66.338.755,66.454,0S280.876,360,274.508,359.3s-26.744,5.21-26.744,5.21,37.25-46.338,26.328-74.037c-4.806-12.192-33.622-16.931-70.554-2.026-33.561,13.545-25.47,73.772-7.062,80.372s28.364-3.01,28.364-3.01" transform="translate(-39.05 -60.385)" fill="#dcf"/>
              <path id="Caminho_761" data-name="Caminho 761" d="M212.894,287c16.616-6.7,51.176-16.109,65.518-1.876,11.478,12.151,3.648,33.421-2.687,46.449A181.646,181.646,0,0,1,254.767,364.2c3.794-5.231,7.378-10.608,10.691-16.144,8.984-15.092,25.278-44.876,12.681-61.042-13.086-14.859-48.751-5.677-65.245-.011" transform="translate(-46.054 -60.072)" fill="#bfa6e7"/>
              <path id="Caminho_762" data-name="Caminho 762" d="M221.675,283.082a24.032,24.032,0,0,1,11.142-.624,104.284,104.284,0,0,1-11.142.624" transform="translate(-47.953 -61.02)" fill="#bfa6e7"/>
              <path id="Caminho_763" data-name="Caminho 763" d="M236.485,394.766a1.3,1.3,0,0,1-.817-1.117,20.074,20.074,0,0,1-.133-4.255,78.76,78.76,0,0,1,2.266-13.926c.246-.909.47-1.823.754-2.723-.109.937-.258,1.864-.375,2.8-.262,1.751-.994,6.53-1.272,8.344-.4,2.775-.874,5.546-1.026,8.345.008.853-.287,2.022.6,2.535" transform="translate(-50.941 -80.633)" fill="#bfa6e7"/>
              <path id="Caminho_764" data-name="Caminho 764" d="M236.758,374.351c.317,1.608.476,3.283.65,4.885.483,3.49-.861-.221-.951-1.531a7.531,7.531,0,0,1,.3-3.354" transform="translate(-51.138 -80.981)" fill="#bfa6e7"/>
              <path id="Caminho_765" data-name="Caminho 765" d="M304.574,391.454c2.465,1.58,5.145,4.7,4.118,7.812-.168-3.142-2.4-5.342-4.118-7.812" transform="translate(-65.886 -84.681)" fill="#bfa6e7"/>
              <path id="Caminho_766" data-name="Caminho 766" d="M310.779,391.084c2.465,1.58,5.144,4.7,4.117,7.812-.168-3.142-2.4-5.342-4.117-7.812" transform="translate(-67.229 -84.601)" fill="#bfa6e7"/>
              <path id="Caminho_767" data-name="Caminho 767" d="M349.129,130.9s1.838-17.8,2.663-19.319,9.595-3.647,12.025-1.867-13.458,22.581-13.458,22.581Z" transform="translate(-75.525 -23.587)" fill="#455a64"/>
              <path id="Caminho_768" data-name="Caminho 768" d="M353.3,128.457c-.219.313-.438.606-.637.888-1.065-.4-2.11-.773-3.154-1.139.031-.334.073-.689.114-1.065,1.212.418,2.434.857,3.676,1.316m2.622-8.658c-1.766-.637-3.489-1.243-5.191-1.817-.052.344-.094.7-.136,1.055,1.65.563,3.331,1.149,5.045,1.775.324.115.647.23.982.355q.721.252,1.441.533c.208-.292.408-.595.606-.888-.6-.23-1.18-.449-1.766-.647-.334-.136-.658-.251-.981-.365m3.353-8.4c-.335-.114-.658-.23-.982-.344-1.065-.386-2.131-.752-3.175-1.107a16.257,16.257,0,0,0-1.6.564c1.473.5,2.977,1.013,4.512,1.556.313.115.647.23.971.345,1.285.459,2.58.94,3.9,1.441.168-.334.324-.647.46-.95-1.378-.523-2.737-1.023-4.084-1.5m-.5-2.214c-.157.616-.313,1.233-.48,1.87-.084.334-.178.668-.261,1.012q-.987,3.7-2.11,7.729c-.094.334-.188.668-.282,1.013-.679,2.4-1.41,4.889-2.172,7.426.574-.783,1.2-1.65,1.849-2.569q.674-2.288,1.306-4.5.141-.5.281-1c.762-2.694,1.462-5.284,2.1-7.75.105-.334.188-.679.272-1.013.208-.794.408-1.567.606-2.318-.366.02-.731.063-1.107.1" transform="translate(-75.606 -23.597)" fill="#37474f"/>
              <g id="Grupo_207" data-name="Grupo 207" transform="translate(273.604 88.117)" opacity="0.3">
                <g id="Grupo_206" data-name="Grupo 206">
                  <g id="Grupo_205" data-name="Grupo 205" clip-path="url(#clip-path-18)">
                    <path id="Caminho_769" data-name="Caminho 769" d="M349.129,131.636s2.012-18.842,5.485-19.189-4.2,16.931-5.485,19.189" transform="translate(-349.129 -112.441)"/>
                  </g>
                </g>
              </g>
              <path id="Caminho_770" data-name="Caminho 770" d="M350.061,135.162s13.063-5.506,14.431-5.632c2.548-.234,5.142,4.381,4.849,6.756s-19.771.27-19.771.27Z" transform="translate(-75.62 -28.018)" fill="#455a64"/>
              <path id="Caminho_771" data-name="Caminho 771" d="M369.937,130.081c-.564.292-1.128.585-1.713.877-.3.168-.616.324-.919.481.125.324.262.647.4.971.313-.157.626-.324.929-.48.731-.376,1.451-.741,2.151-1.117a5.4,5.4,0,0,0-.846-.731m-1.306,1.849-.408-.972c-.177-.438-.345-.856-.532-1.284-.262.084-.6.188-.982.324l.595,1.442c.125.324.262.647.4.971q.986,2.429,1.953,4.961c.386-.021.752-.053,1.076-.094-.69-1.817-1.4-3.6-2.1-5.348" transform="translate(-79.328 -28.051)" fill="#37474f"/>
              <path id="Caminho_772" data-name="Caminho 772" d="M357.658,136.49c.167.408.324.825.491,1.233-.386-.021-.773-.053-1.149-.074-.094-.24-.187-.469-.281-.7-.4.188-.8.387-1.2.585-.741-.052-1.441-.115-2.068-.167.971-.47,1.932-.93,2.882-1.389-.292-.741-.595-1.462-.887-2.183.313-.136.637-.262.961-.4.282.7.574,1.41.857,2.121,2.506-1.233,4.908-2.434,7.175-3.593.125.324.261.647.4.971-2.266,1.16-4.668,2.36-7.175,3.593" transform="translate(-76.459 -28.539)" fill="#37474f"/>
              <g id="Grupo_210" data-name="Grupo 210" transform="translate(274.441 102.998)" opacity="0.3">
                <g id="Grupo_209" data-name="Grupo 209">
                  <g id="Grupo_208" data-name="Grupo 208" clip-path="url(#clip-path-19)">
                    <path id="Caminho_773" data-name="Caminho 773" d="M350.2,135.575s13.847-5.9,15.433-3.625-13.369,3.644-15.433,3.625" transform="translate(-350.196 -131.429)"/>
                  </g>
                </g>
              </g>
              <path id="Caminho_774" data-name="Caminho 774" d="M265.567,161.32c.694,2.518,51.649,16.136,55.556,14.312,2.924-1.364,13.168-36.95,10.826-40.148-.983-1.344-2.932,2-26.89,12.073-11.115,4.675-40.055,11.726-39.493,13.763" transform="translate(-57.447 -29.247)" fill="#ffcb64"/>
              <path id="Caminho_775" data-name="Caminho 775" d="M272.851,157.992c-.011-.02-.011-.042-.021-.063-.334.115-.668.23-.982.345.011.021.011.031.021.053.178.491.376,1,.553,1.514.335-.094.668-.188,1.013-.271-.2-.533-.4-1.066-.585-1.578m.94,2.559-1,.282c.48,1.337.971,2.715,1.462,4.126.4.125.814.25,1.232.386-.563-1.64-1.128-3.248-1.692-4.795m11.551,5.828c-.1-.334-.219-.658-.324-.982v-.01c-.867-2.569-1.733-5.045-2.59-7.395-.125-.334-.24-.658-.355-.982-.219-.585-.428-1.149-.637-1.712-.345.1-.679.208-1.013.313.209.554.429,1.128.637,1.7.125.324.241.647.366.982.856,2.36,1.734,4.835,2.59,7.4.114.324.23.658.334.992.157.47.313.94.47,1.42.4.115.794.219,1.2.335-.219-.69-.449-1.389-.679-2.068m17.119-5.713c-.334.115-.658.24-.992.355q1.238,3.635,2.433,7.51c.335-.115.658-.23.992-.356-.793-2.579-1.618-5.086-2.433-7.509m0,0c-.334.115-.658.24-.992.355q1.238,3.635,2.433,7.51c.335-.115.658-.23.992-.356-.793-2.579-1.618-5.086-2.433-7.509m0,0c-.334.115-.658.24-.992.355q1.238,3.635,2.433,7.51c.335-.115.658-.23.992-.356-.793-2.579-1.618-5.086-2.433-7.509m-8.523,2.966c-.115-.334-.219-.668-.335-1-.877-2.58-1.765-5.066-2.621-7.416-.125-.324-.251-.647-.365-.971-.2-.533-.386-1.045-.574-1.556-.335.1-.668.208-1.013.3.2.523.386,1.045.6,1.578.114.324.24.658.365.992.867,2.349,1.744,4.825,2.611,7.4.114.324.23.658.334.992.763,2.235,1.5,4.554,2.225,6.925.355.094.721.178,1.076.272.042.01.073.02.115.031a.153.153,0,0,0-.021-.063c-.773-2.559-1.578-5.066-2.392-7.489m8.523-2.966c-.334.115-.658.24-.992.355q1.238,3.635,2.433,7.51c.335-.115.658-.23.992-.356-.793-2.579-1.618-5.086-2.433-7.509m0,0c-.334.115-.658.24-.992.355q1.238,3.635,2.433,7.51c.335-.115.658-.23.992-.356-.793-2.579-1.618-5.086-2.433-7.509m0,0c-.334.115-.658.24-.992.355q1.238,3.635,2.433,7.51c.335-.115.658-.23.992-.356-.793-2.579-1.618-5.086-2.433-7.509M306.5,173.6c-.429-1.493-.867-2.976-1.306-4.428-.1-.335-.209-.668-.3-.993-.793-2.579-1.618-5.086-2.433-7.509-.114-.335-.23-.658-.345-.992-.888-2.59-1.786-5.076-2.653-7.416-.125-.334-.251-.657-.365-.981q-.252-.674-.5-1.317c-.324.115-.658.23-.992.335.167.439.334.888.5,1.337.125.313.24.647.365.981.878,2.34,1.765,4.826,2.664,7.416-2.465.877-4.983,1.755-7.531,2.6.115.334.219.668.335,1,2.559-.857,5.066-1.733,7.53-2.611q1.238,3.635,2.433,7.51c.105.334.209.658.3.992.386,1.253.763,2.517,1.128,3.8v.01c.4.084.784.178,1.17.261m9.421.063c-.71-2.58-1.451-5.128-2.235-7.613q3.87-1.473,7.479-2.914c-.115-.334-.219-.658-.324-.982-2.392.951-4.888,1.922-7.457,2.9-.815-2.591-1.65-5.108-2.476-7.52-.125-.335-.241-.668-.345-.992-.908-2.6-1.817-5.087-2.705-7.426-.125-.335-.25-.658-.365-.982-.178-.459-.355-.9-.522-1.347-.011-.011-.011-.031-.021-.042-.313.156-.606.281-.888.418a.151.151,0,0,0-.063.02c.178.439.345.878.512,1.327.125.324.251.647.376.982.877,2.329,1.786,4.815,2.694,7.415q-3.635,1.394-7.468,2.768c.115.334.23.657.345.992,2.548-.919,5.044-1.838,7.468-2.758.835,2.413,1.672,4.93,2.476,7.52.1.324.208.648.313.982q1.159,3.729,2.224,7.614c.094.334.188.668.272,1h.01c.021.094.042.2.073.292.4.063.773.115,1.128.168-.073-.272-.147-.554-.219-.825l-.282-1m6.2-10.914c-.105-.334-.209-.658-.313-.992-.835-2.59-1.682-5.107-2.527-7.53-.115-.324-.23-.658-.345-.982-.929-2.621-1.859-5.117-2.747-7.436-.125-.334-.251-.647-.376-.971-.219-.564-.439-1.118-.647-1.661l-.951.428c.208.533.418,1.076.637,1.629.114.313.24.637.365.971.9,2.319,1.817,4.815,2.747,7.426.115.324.23.658.345.992.857,2.413,1.7,4.93,2.527,7.53.105.324.209.648.324.982.773,2.476,1.535,5.024,2.277,7.614.052.2.1.4.167.606.1-.251.209-.522.314-.794.1-.251.209-.522.313-.794q-1.018-3.588-2.11-7.019m5.483-11.99c-.125-.324-.241-.658-.356-.982-.95-2.632-1.89-5.117-2.788-7.425-.125-.324-.251-.648-.376-.961-.292-.721-.563-1.421-.835-2.1q-.454.235-.94.469.407.987.814,2.037c.125.313.251.637.376.961.9,2.319,1.839,4.8,2.8,7.436q.156.487.344.972.925,2.585,1.849,5.348c.168-.606.335-1.2.491-1.807q-.69-2.021-1.378-3.948m4.668-12.982c-.292-.731-.763-1.786-1.065-2.527a6.3,6.3,0,0,0-.982.386c.324.784.794,1.807,1.1,2.57q.188.47.376.971c.147.345.282.7.428,1.066.063-.47.1-.909.147-1.317.031-.355.052-.689.063-.992v-.021c-.021-.042-.042-.083-.063-.136M272.422,159.84q-3.289.909-6.6,1.744c.063.052.136.1.219.167s.178.115.292.178a6.863,6.863,0,0,0,.794.407q2.837-.721,5.661-1.5c-.125-.334-.241-.668-.366-.992m59.857-22.069c-.313.147-.627.292-.951.429q-3.321,1.488-7.238,3.186c-.313.125-.637.261-.961.407q-3.462,1.473-7.311,3.04c-.314.136-.637.261-.961.4-2.36.951-4.815,1.933-7.363,2.9-.324.125-.647.251-.982.376q-3.6,1.394-7.415,2.768c-.335.114-.658.24-.992.355-2.444.877-4.951,1.755-7.489,2.611-.324.1-.658.219-.992.324-2.476.835-5,1.65-7.552,2.443-.335.105-.679.209-1.013.3-2.517.783-5.066,1.525-7.624,2.256.115.324.23.658.355.981q3.854-1.08,7.635-2.255c.334-.094.668-.2,1-.3q3.838-1.191,7.562-2.433c.867,2.349,1.744,4.825,2.611,7.4.334-.1.668-.219,1-.334-.877-2.58-1.765-5.066-2.621-7.416,2.538-.857,5.044-1.723,7.489-2.6.878,2.34,1.765,4.826,2.664,7.416-2.465.877-4.983,1.755-7.531,2.6.115.334.219.668.335,1,2.559-.857,5.066-1.733,7.53-2.611.334-.115.658-.24.992-.355,2.548-.919,5.044-1.838,7.468-2.758.324-.136.648-.25.982-.375,2.549-.982,5.024-1.954,7.4-2.914-.114-.334-.23-.668-.345-.992q-3.571,1.441-7.4,2.914c-.908-2.6-1.817-5.087-2.705-7.426,2.538-.982,5-1.953,7.363-2.915.9,2.319,1.817,4.815,2.747,7.426.324-.125.648-.261.972-.386-.929-2.621-1.859-5.117-2.747-7.436,2.569-1.034,5.013-2.058,7.311-3.05.324-.136.647-.271.961-.407,2.611-1.118,5.034-2.183,7.238-3.175.2-.083.386-.167.574-.251.031-.355.052-.689.063-.992v-.177a.151.151,0,0,1-.063.02m-22.7,19.134q-3.635,1.394-7.468,2.768c-.888-2.59-1.786-5.076-2.653-7.416,2.538-.918,5.013-1.849,7.426-2.767.877,2.329,1.786,4.815,2.694,7.415m17.672-7.134c-.313.147-.626.282-.95.418-2.319.982-4.784,2.006-7.363,3.05-.324.125-.647.261-.972.386q-3.571,1.441-7.4,2.914c-.324.125-.647.251-.971.365h-.011q-3.635,1.394-7.468,2.768c-.324.125-.658.241-.981.355-2.465.877-4.983,1.755-7.531,2.6-.334.114-.668.23-1,.334q-3.744,1.253-7.583,2.423v.01c-.334.094-.668.2-1,.3-1.243.376-2.486.741-3.739,1.107.156.042.324.094.491.146.459.125.919.261,1.378.4.742-.219,1.473-.439,2.2-.658.335-.1.668-.209.992-.313,2.56-.783,5.1-1.588,7.593-2.423.335-.1.679-.219,1-.324,2.559-.857,5.066-1.733,7.53-2.611.334-.115.658-.24.992-.355,2.548-.919,5.044-1.838,7.468-2.758.324-.136.648-.25.982-.375,2.549-.982,5.024-1.954,7.4-2.914.324-.136.647-.261.972-.4,2.58-1.034,5.045-2.058,7.363-3.06.324-.136.648-.271.962-.408.919-.386,1.817-.773,2.684-1.149.1-.418.2-.846.3-1.263-1.075.469-2.193.95-3.342,1.43m-5.441,11.98c-.324.125-.647.261-.972.4-2.392.951-4.888,1.922-7.457,2.9-.815-2.591-1.65-5.108-2.476-7.52-.334.125-.658.24-.982.375.835,2.413,1.672,4.93,2.476,7.52q-3.667,1.379-7.51,2.747c-.334.125-.657.241-.992.356q-3.712,1.315-7.572,2.59l-.094.031c.042.01.073.02.115.031l1.755.439c2.067-.69,4.094-1.389,6.1-2.1.334-.115.669-.23.992-.355q3.853-1.364,7.52-2.758c.324-.115.647-.24.971-.365q3.87-1.473,7.479-2.914c.324-.125.637-.261.961-.386,1.775-.71,3.509-1.42,5.17-2.11l.376-1.284q-2.82,1.174-5.859,2.4m1.629,8.993c-2.423.961-4.94,1.943-7.52,2.914-.324.125-.647.241-.982.366-.752.282-1.5.563-2.266.835.711.136,1.389.251,2.027.365h.01c.167-.063.324-.125.5-.2h.01c.324-.114.658-.24.982-.365q3.7-1.394,7.175-2.768c.073-.177.157-.355.23-.543.1-.251.209-.522.314-.794-.157.063-.324.125-.48.188" transform="translate(-57.503 -29.256)" fill="#f9b113"/>
              <g id="Grupo_213" data-name="Grupo 213" transform="translate(213.091 129.383)" opacity="0.1">
                <g id="Grupo_212" data-name="Grupo 212">
                  <g id="Grupo_211" data-name="Grupo 211" clip-path="url(#clip-path-20)">
                    <path id="Caminho_776" data-name="Caminho 776" d="M329.2,165.1c-2.5,8.575-5.368,16.376-6.705,17-3.175,1.484-37.548-7.269-50.582-11.928,13.076,3.854,46.4,9.14,49.465,7.635,2.1-1.034,6.507-10.058,7.823-12.71" transform="translate(-271.912 -165.098)"/>
                  </g>
                </g>
              </g>
              <path id="Caminho_777" data-name="Caminho 777" d="M266.474,244.478s24.544,16.583,38.552,19.42,41.794-18.893,41.794-18.893,10.8,16.866,12.464,18.893,10.459,3.167,12.08,1.5,1.5-9.428,0-13.711-17.713-22.923-24.2-22.344-25.347,10.268-26.733,10.073c-2.2-.31-14.291-15.051-23.165-26.4" transform="translate(-57.644 -46.08)" fill="#ffc727"/>
              <g id="Grupo_216" data-name="Grupo 216" transform="translate(208.829 166.936)">
                <g id="Grupo_215" data-name="Grupo 215">
                  <g id="Grupo_214" data-name="Grupo 214" clip-path="url(#clip-path-21)">
                    <path id="Caminho_778" data-name="Caminho 778" d="M266.474,244.478s24.544,16.583,38.552,19.42,41.794-18.893,41.794-18.893,10.8,16.866,12.464,18.893,10.459,3.167,12.08,1.5,1.5-9.428,0-13.711-17.713-22.923-24.2-22.344-25.347,10.268-26.733,10.073c-2.2-.31-14.291-15.051-23.165-26.4" transform="translate(-266.474 -213.016)" fill="#dcf"/>
                  </g>
                </g>
              </g>
              <g id="Grupo_219" data-name="Grupo 219" transform="translate(216.434 197.653)" opacity="0.1">
                <g id="Grupo_218" data-name="Grupo 218">
                  <g id="Grupo_217" data-name="Grupo 217" clip-path="url(#clip-path-22)">
                    <path id="Caminho_779" data-name="Caminho 779" d="M373.467,273.875c-1.619,1.671-10.424.533-12.084-1.494s-12.46-18.894-12.46-18.894-27.793,21.724-41.8,18.894c-9.076-1.838-22.57-9.452-30.947-14.58,4.825,2.559,27.5,8.084,33.84,8.846,6.6.784,38.906-14.434,38.906-14.434s13.746,17.253,15.134,17.994,6.8,2.866,8.423,2.358c1-.311,1.937-3.61,2.114-5.918.168,3.217-.187,6.256-1.128,7.228" transform="translate(-276.177 -252.213)" fill="#bfa6e7"/>
                  </g>
                </g>
              </g>
              <path id="Caminho_780" data-name="Caminho 780" d="M391.633,271.09c2.465,1.58,5.145,4.7,4.118,7.812-.168-3.142-2.4-5.342-4.118-7.812" transform="translate(-84.719 -58.643)" fill="#bfa6e7"/>
              <path id="Caminho_781" data-name="Caminho 781" d="M397.7,267.676c2,2.259,4.119,6.308,2.244,9.166.718-3.248-1.168-6.177-2.244-9.166" transform="translate(-86.031 -57.905)" fill="#bfa6e7"/>
              <path id="Caminho_782" data-name="Caminho 782" d="M273.713,257.619c9.247,4.608,18.476,9.43,28.157,13.035l2.424.787c.411.094,1.429.37,1.825.464,12.545,1.884,31.6-11.517,42.268-18.07-8.226,6.338-16.853,12.359-26.413,16.569-5.211,2.134-11.094,4.205-16.814,2.825a72.6,72.6,0,0,1-13.331-5.43c-6.219-3.081-12.238-6.519-18.115-10.18" transform="translate(-59.21 -54.91)" fill="#bfa6e7"/>
              <path id="Caminho_783" data-name="Caminho 783" d="M365.9,249.062c3.733,5.436,7.6,11.239,10.968,16.9a79.626,79.626,0,0,1-10.968-16.9" transform="translate(-79.152 -53.878)" fill="#bfa6e7"/>
              <path id="Caminho_784" data-name="Caminho 784" d="M278.293,264.648c3.259.632,6.282,1.577,9.508,2.346a16.29,16.29,0,0,1-9.508-2.346" transform="translate(-60.201 -57.249)" fill="#bfa6e7"/>
              <path id="Caminho_785" data-name="Caminho 785" d="M309.862,218.207l11.458,12.95c2.762,2.915,5.259,6.214,8.483,8.589a37.4,37.4,0,0,0,3.918-1.561c5.284-2.274,10.558-4.646,16.039-6.556a28.8,28.8,0,0,1,6.395-1.643,4.673,4.673,0,0,1,2.276.467,27.346,27.346,0,0,1,7.229,4.832,30.27,30.27,0,0,0-7.494-4.11,3.988,3.988,0,0,0-1.93-.293,31.762,31.762,0,0,0-6.052,1.895c-4.624,1.825-11.215,4.82-15.841,6.847a43.149,43.149,0,0,1-4.154,1.618,1.425,1.425,0,0,1-1-.1,13.96,13.96,0,0,1-3.071-2.643c-2-2.121-3.887-4.31-5.718-6.547-3.678-4.456-7.164-9.055-10.533-13.743" transform="translate(-67.03 -47.203)" fill="#bfa6e7"/>
              <path id="Caminho_786" data-name="Caminho 786" d="M316.112,221.584a9.934,9.934,0,0,1,3.037,7.079c-.969-2.451-2.138-4.6-3.037-7.079" transform="translate(-68.382 -47.934)" fill="#bfa6e7"/>
              <path id="Caminho_787" data-name="Caminho 787" d="M284.446,73.19c7.566,6.871,9.649,34.889,16.48,44.613s31.023,6.715,34.556-6.831S319.913,74.851,308.8,72.42s-24.353.77-24.353.77" transform="translate(-61.532 -15.469)" fill="#bfa6e7"/>
              <path id="Caminho_789" data-name="Caminho 789" d="M171.929,149.917c-.2,2.25,8.943,9.638,12.938,9.117s7.7-12.99,5.991-15.63-18.669,3.647-18.929,6.512" transform="translate(-37.192 -30.885)" fill="#263238"/>
              <path id="Caminho_790" data-name="Caminho 790" d="M186.5,160.183c3.2,2.386,12.327,10.711,16.144,8.547,3.247-1.965,3.979-6.476,4.617-9.961-.2,3.708-.786,8.458-4.273,10.629-4.583,2.525-13.35-6.125-16.488-9.215" transform="translate(-40.345 -34.345)" fill="#263238"/>
              <path id="Caminho_791" data-name="Caminho 791" d="M192.286,168.768a15.321,15.321,0,0,0,3.806,1.926c-.1.036-.1.147-.1.111-2.321-3.259-5.534-5.82-8.062-8.968a48.553,48.553,0,0,1,6.362,5.718,10.452,10.452,0,0,1,2.291,3.14c-.039,1.875-3.748-1.452-4.292-1.929" transform="translate(-40.653 -35.009)" fill="#263238"/>
              <g id="Grupo_225" data-name="Grupo 225" transform="translate(184.027 82.036)" opacity="0.2">
                <g id="Grupo_224" data-name="Grupo 224">
                  <g id="Grupo_223" data-name="Grupo 223" clip-path="url(#clip-path-23)">
                    <path id="Caminho_792" data-name="Caminho 792" d="M243.544,106.97c9.29-5.3,18.027-.828,22.774,7.5,3.845,6.747,2.257,16.778-6.66,21.86s-19.045.128-22.655-6.207-3.548-17.407,6.541-23.156" transform="translate(-234.825 -104.681)" fill="#bfa6e7"/>
                  </g>
                </g>
              </g>
              <path id="Caminho_793" data-name="Caminho 793" d="M240.95,120.547c4.587-3.638,9.685-1.948,12.948,2.165a8.786,8.786,0,0,1-1.784,12.383c-4.4,3.491-10.3,1.654-12.775-1.473a9.234,9.234,0,0,1,1.612-13.074" transform="translate(-51.342 -25.645)" fill="#263238"/>
              <path id="Caminho_794" data-name="Caminho 794" d="M241.32,122.127c4.311-3.42,9.1-1.831,12.171,2.034a8.258,8.258,0,0,1-1.677,11.64c-4.138,3.282-9.677,1.555-12.009-1.385a8.681,8.681,0,0,1,1.516-12.29" transform="translate(-51.469 -26.013)" fill="#fff"/>
              <path id="Caminho_795" data-name="Caminho 795" d="M240.7,124.608c3.52-2.792,7.433-1.494,9.936,1.661a6.741,6.741,0,0,1-1.37,9.5,7.182,7.182,0,0,1-9.8-1.131,7.086,7.086,0,0,1,1.237-10.033" transform="translate(-51.469 -26.624)" fill="#263238"/>
            </g>
          </g>
          <g id="Grupo_253" data-name="Grupo 253">
            <g id="Grupo_252" data-name="Grupo 252" clip-path="url(#clip-path-3)">
              <path id="Caminho_796" data-name="Caminho 796" d="M29.242,245c.607-5.378,3.122-20.472,4.077-21.773s11.8,3.816,16.481,13.966Z" transform="translate(-6.326 -48.247)" fill="#f9b113"/>
              <g id="Grupo_230" data-name="Grupo 230" transform="translate(24.109 178.464)" opacity="0.1">
                <g id="Grupo_229" data-name="Grupo 229">
                  <g id="Grupo_228" data-name="Grupo 228" clip-path="url(#clip-path-25)">
                    <path id="Caminho_797" data-name="Caminho 797" d="M30.764,245.566c.451-4.4,2.31-16.625,3.02-17.689s8.931,3.531,12.41,11.83Z" transform="translate(-30.764 -227.726)"/>
                  </g>
                </g>
              </g>
              <path id="Caminho_798" data-name="Caminho 798" d="M36.1,246.515s.339-2.176-.071-2.768a7.328,7.328,0,0,0-1.042-1.145,6.79,6.79,0,0,1,1.819.751,7.7,7.7,0,0,1,.884.98,3.359,3.359,0,0,0-.956-2.364,14.536,14.536,0,0,0-2.529-1.552s3.331.016,4.518.74,2.6,1.25,3.273,1.6a11.615,11.615,0,0,0,2.566.594Z" transform="translate(-7.4 -52.008)" fill="#ffc727"/>
              <path id="Caminho_799" data-name="Caminho 799" d="M91.175,331.29c-1.817,1.321-8.23,13.076-6.928,17.24s9.193,18.847,9.778,19.758,4.858,12.554,4.663,13.075-5.4,2.667-5.4,3.524,13.011.7,13.207.322a15.993,15.993,0,0,0,.26-2.914c0-.2,6.758-16.221,7.933-19.149s-1.951-16.915-1.951-18.216-1.523-28.214-21.561-13.641" transform="translate(-18.187 -70.732)" fill="#ffc727"/>
              <g id="Grupo_233" data-name="Grupo 233" transform="translate(65.886 256.243)" opacity="0.1">
                <g id="Grupo_232" data-name="Grupo 232">
                  <g id="Grupo_231" data-name="Grupo 231" clip-path="url(#clip-path-26)">
                    <path id="Caminho_800" data-name="Caminho 800" d="M91.175,331.29c-1.817,1.321-8.23,13.076-6.928,17.24s9.193,18.847,9.778,19.758,4.858,12.554,4.663,13.075-5.4,2.667-5.4,3.524,13.011.7,13.207.322a15.993,15.993,0,0,0,.26-2.914c0-.2,6.758-16.221,7.933-19.149s-1.951-16.915-1.951-18.216-1.523-28.214-21.561-13.641" transform="translate(-84.073 -326.976)" fill="#f9b113"/>
                  </g>
                </g>
              </g>
              <path id="Caminho_801" data-name="Caminho 801" d="M63.714,331.427c-1.817,1.321-5.465,13.076-4.164,17.24s12.476,18.672,13.062,19.583,5.758,13.337,5.563,13.858-4.342,2.306-4.342,3.163,13.32.451,13.515.076a36.323,36.323,0,0,0,.546-4.278c0-.2,7.227-12.321,8.4-15.249s4.436-14.615,4.436-15.916-16.98-33.05-37.018-18.477" transform="translate(-12.823 -70.869)" fill="#f9b113"/>
              <path id="Caminho_802" data-name="Caminho 802" d="M184.976,297.561c3.685,3.536,9.908,17.907,10.3,22.655s-2.407,27.518-2.082,28.495c.23.687,4.381,8.408,7.244,12.816.395.609,2.067,2.919,2.125,3.188.2.911-1.042,3.708-1.5,4.294s-9.021,7.958-9.541,7.438,1.409-5.573,1.409-5.9-14.547-8.387-15.549-9.216c-1.886-1.562-15.614-16.987-16.915-25.249s13.1-49.463,24.508-38.521" transform="translate(-34.695 -63.972)" fill="#f9b113"/>
              <g id="Grupo_236" data-name="Grupo 236" transform="translate(125.688 231.759)" opacity="0.1">
                <g id="Grupo_235" data-name="Grupo 235">
                  <g id="Grupo_234" data-name="Grupo 234" clip-path="url(#clip-path-27)">
                    <path id="Caminho_803" data-name="Caminho 803" d="M182.77,296.1l-9.577,60.723c-4.766-5.586-11.816-14.932-12.729-20.739-1.216-7.733,11.337-44.362,22.306-39.984" transform="translate(-160.383 -295.733)"/>
                  </g>
                </g>
              </g>
              <path id="Caminho_804" data-name="Caminho 804" d="M76.644,233.4c2.147-3.773,13.4-16.37,15.744-16.578s7.547,16.578,8.392,20.156,0,15.956,0,15.956Z" transform="translate(-16.58 -46.904)" fill="#f9b113"/>
              <g id="Grupo_239" data-name="Grupo 239" transform="translate(60.718 173.693)" opacity="0.1">
                <g id="Grupo_238" data-name="Grupo 238">
                  <g id="Grupo_237" data-name="Grupo 237" clip-path="url(#clip-path-28)">
                    <path id="Caminho_805" data-name="Caminho 805" d="M77.478,234.974c1.7-2.985,10.022-13.17,11.874-13.333s5.97,13.113,6.639,15.944.074,12.434.074,12.434Z" transform="translate(-77.478 -221.639)"/>
                  </g>
                </g>
              </g>
              <path id="Caminho_806" data-name="Caminho 806" d="M82.65,240.8s2.2-1.649,2.443-2.6a9.981,9.981,0,0,0,.241-2.09,9.209,9.209,0,0,1,.856,2.532,10.363,10.363,0,0,1-.214,1.781,4.561,4.561,0,0,0,1.566-3.09,19.708,19.708,0,0,0-.67-3.974s2.958,3.423,3.279,5.284.581,4.55.823,5.553,1.1,4.226,1.1,4.226Z" transform="translate(-17.879 -50.481)" fill="#ffc727"/>
              <path id="Caminho_807" data-name="Caminho 807" d="M24.91,260.987c-.52,1.3-7.043,12.111-6.653,15.234s7.693,14.953,23.7,21.2c0,0,1.692,1.432,2.082,5.856s-1.673,14.962-1.475,18.13a10.178,10.178,0,0,0,1.171,3.9s-.161-4.121.353-4.988a47.063,47.063,0,0,0,1.74,7.352,6.393,6.393,0,0,0,2.44,2.472l-1.713-4.533s2.657,5.411,12.058,10.149c7.975,4.02,39.642,2.776,43.372,2.776s34.256-4.5,37.17-10.41c.962-1.948,10.832-19.762,11.582-24.549.406-2.589,6.82-12.986,4.97-17.074s-8.162-11.2-14.47-14.848c-4.945-2.863-27.455-3.513-45.8,3.9a12.086,12.086,0,0,0-1.518-1.3,6.22,6.22,0,0,0-2.461-.994s-3-18-4.045-20.258-16.134-14.4-20.385-16.048-21.339.607-24.549,1.3-14.833,7.633-15.614,9.628-1.951,13.1-1.951,13.1" transform="translate(-3.946 -51.132)" fill="#f9b113"/>
              <g id="Grupo_242" data-name="Grupo 242" transform="translate(14.294 196.755)" opacity="0.1">
                <g id="Grupo_241" data-name="Grupo 241">
                  <g id="Grupo_240" data-name="Grupo 240" clip-path="url(#clip-path-29)">
                    <path id="Caminho_808" data-name="Caminho 808" d="M75.535,341.613c-7.194-.345-13.84-1.113-16.927-2.672-9.106-4.592-11.881-9.812-12.045-10.133l1.7,4.514a6.38,6.38,0,0,1-2.437-2.469,47.028,47.028,0,0,1-1.74-7.351c-.517.862-.353,4.984-.353,4.984a10.171,10.171,0,0,1-1.176-3.9c-.2-3.166,1.865-13.707,1.481-18.126s-2.085-5.854-2.085-5.854c-16-6.246-23.307-18.079-23.7-21.206s6.136-13.926,6.653-15.227c0,0,1.168-11.1,1.951-13.1-1.128,6.23-.541,13.777-.674,14.3S21.6,276.623,22.661,279.4s15.689,18.934,24.725,21.089c0,0,3,8.534,2.633,12.445s.321,14.725,1.081,17.194,4.036,4.326,6.928,6.975c2.8,2.571,16.645,4.4,17.507,4.514" transform="translate(-18.24 -251.067)"/>
                  </g>
                </g>
              </g>
              <path id="Caminho_809" data-name="Caminho 809" d="M123.788,363.37c-3.164.736-6.32,1.45-9.532,1.965-5.409.484-10.816.373-16.235.332a88.214,88.214,0,0,1-13-.888,34.384,34.384,0,0,1-11.535-6.009c1.873,1.079,3.777,2.09,5.733,2.972,5.831,3.045,12.448,2.5,18.828,2.762,5.361.056,10.774.3,16.124.122,2.211-.241,7.356-.973,9.62-1.256" transform="translate(-15.896 -77.61)" fill="#de9e10"/>
              <path id="Caminho_810" data-name="Caminho 810" d="M48.5,307.571c1.358.443,13.13-.71,15.659-1.545,2.117-.7,14.439-9.531,23.835-15.951,5.49-3.751,10.471-6.78,10.858-6.78,0,0,2.77,1.349,3.127,2.012a53.4,53.4,0,0,0-7.091,2.733c-1.588.986-6.354,4.091-6.354,4.091S70.056,308.4,65.756,309.382s-16.093,1.107-16.093,1.107a6.536,6.536,0,0,1-.944-1.694c-.1-.553-.218-1.224-.218-1.224" transform="translate(-10.492 -61.284)" fill="#455a64"/>
              <path id="Caminho_811" data-name="Caminho 811" d="M98.643,293.242a54.354,54.354,0,0,1,7.847-5.371,27.972,27.972,0,0,1,6.336-1.493c-2.014.761-4.063,1.372-6.042,2.19-2.539,1.387-5.491,3.5-8.141,4.674" transform="translate(-21.339 -61.95)" fill="#263238"/>
              <path id="Caminho_812" data-name="Caminho 812" d="M109.946,283.45c-.959.578-2.264,1.474-3.23,2.065a14.438,14.438,0,0,0-1.421,1.188,12.223,12.223,0,0,1-1.574,1.149,14.914,14.914,0,0,1,2.14-2.686,8.68,8.68,0,0,1,4.085-1.715" transform="translate(-22.437 -61.317)" fill="#263238"/>
              <path id="Caminho_813" data-name="Caminho 813" d="M37.717,259.419c-3.569-.365-5.729,3.015-6.155,7.178-.346,3.372,1.421,7.032,4.846,7.382s5.958-3.479,6.282-6.645-1.1-7.519-4.973-7.915" transform="translate(-6.818 -56.112)" fill="#263238"/>
              <path id="Caminho_814" data-name="Caminho 814" d="M38.144,260.578c-3.355-.343-5.385,2.834-5.786,6.747-.324,3.17,1.336,6.609,4.556,6.939s5.6-3.27,5.9-6.247-1.031-7.066-4.675-7.439" transform="translate(-6.991 -56.364)" fill="#fff"/>
              <path id="Caminho_815" data-name="Caminho 815" d="M39.9,260.714c-2.626-.269-4.215,2.219-4.529,5.282-.254,2.48,1.045,5.174,3.566,5.432s4.385-2.56,4.623-4.889-.808-5.533-3.66-5.824" transform="translate(-7.644 -56.394)" fill="#263238"/>
              <path id="Caminho_816" data-name="Caminho 816" d="M71.593,259.059c4.866-.931,8.027,2.335,8.862,6.7a7.434,7.434,0,0,1-6.191,8.587,7.92,7.92,0,0,1-9-6.112,7.814,7.814,0,0,1,6.333-9.173" transform="translate(-14.09 -56.006)" fill="#263238"/>
              <path id="Caminho_817" data-name="Caminho 817" d="M71.326,260.343c4.574-.875,7.545,2.2,8.33,6.3a6.988,6.988,0,0,1-5.82,8.072,7.445,7.445,0,0,1-8.463-5.746,7.344,7.344,0,0,1,5.953-8.622" transform="translate(-14.116 -56.286)" fill="#fff"/>
              <path id="Caminho_818" data-name="Caminho 818" d="M74.04,260.816c3.733-.715,6.16,1.792,6.8,5.14a5.7,5.7,0,0,1-4.751,6.589,6.078,6.078,0,0,1-6.91-4.69,6,6,0,0,1,4.86-7.039" transform="translate(-14.944 -56.394)" fill="#263238"/>
              <path id="Caminho_819" data-name="Caminho 819" d="M54.441,271.708c-.051.445-2.713,2.107-3.022,2.109s-3.034-1.631-3.107-2.075,2.416-.618,3.052-.621,3.132.148,3.077.588" transform="translate(-10.451 -58.649)" fill="#263238"/>
              <path id="Caminho_820" data-name="Caminho 820" d="M45.8,275.213a21.389,21.389,0,0,0,1.382,1.814,4.767,4.767,0,0,0,.788.749.735.735,0,0,0,.374.152.758.758,0,0,0,.344-.166,2.807,2.807,0,0,0,.6-.806,7.93,7.93,0,0,0,.446-1,16.638,16.638,0,0,0,.645-2.132l.3-1.328.456,1.286a16.128,16.128,0,0,0,1.123,2.478,6.882,6.882,0,0,0,.748,1.1,2.118,2.118,0,0,0,.954.7l.13.023.13,0a1.832,1.832,0,0,0,.292-.049,2.483,2.483,0,0,0,.58-.244,5.2,5.2,0,0,0,1.048-.833,13.609,13.609,0,0,0,1.72-2.179,10.5,10.5,0,0,1-1.45,2.425,5.193,5.193,0,0,1-1.057,1,2.1,2.1,0,0,1-1.512.433,2.576,2.576,0,0,1-1.34-.827,7.6,7.6,0,0,1-.88-1.177,15.243,15.243,0,0,1-1.233-2.6l.759-.042a15.057,15.057,0,0,1-.73,2.236,8.518,8.518,0,0,1-.543,1.065,3.064,3.064,0,0,1-.846.946,1.239,1.239,0,0,1-.71.23,1.175,1.175,0,0,1-.655-.31,4.633,4.633,0,0,1-.778-.915,12.359,12.359,0,0,1-1.092-2.038" transform="translate(-9.907 -58.947)" fill="#263238"/>
              <path id="Caminho_821" data-name="Caminho 821" d="M23.444,272.4c-1.962-.088-3.923-.11-5.883-.086s-3.918.072-5.873.21c-.979.043-1.954.127-2.932.2-.975.091-1.951.182-2.924.292-1.951.2-3.888.5-5.833.777.958-.213,1.917-.433,2.884-.61s1.936-.338,2.911-.469c1.947-.283,3.907-.451,5.87-.584,1.964-.105,3.932-.158,5.9-.119q1.474.032,2.947.114c.98.074,1.961.143,2.935.276" transform="translate(0 -58.839)" fill="#263238"/>
              <path id="Caminho_822" data-name="Caminho 822" d="M23.154,273.993c-.883.071-1.765.14-2.644.229s-1.76.166-2.639.264c-1.756.192-3.512.4-5.258.659-.876.112-1.748.252-2.621.383l-2.612.45-1.3.235-1.3.263c-.871.153-1.729.373-2.6.538,1.694-.517,3.409-.974,5.145-1.334,1.732-.375,3.483-.668,5.237-.926,1.756-.231,3.518-.442,5.285-.57s3.538-.215,5.31-.191" transform="translate(-0.471 -59.27)" fill="#263238"/>
              <path id="Caminho_823" data-name="Caminho 823" d="M24.9,275.389c-.723.147-1.447.291-2.165.453s-1.441.307-2.158.477c-1.433.336-2.867.668-4.293,1.035s-2.851.737-4.271,1.128-2.834.807-4.257,1.2c.686-.274,1.376-.534,2.07-.788s1.4-.482,2.1-.7c1.4-.461,2.83-.849,4.26-1.219s2.876-.682,4.329-.948,2.913-.5,4.385-.633" transform="translate(-1.678 -59.573)" fill="#263238"/>
              <path id="Caminho_824" data-name="Caminho 824" d="M87.538,276.226c1.208-.157,2.425-.241,3.642-.328,1.217-.064,2.436-.113,3.655-.137,2.439-.047,4.879.012,7.315.14,2.434.154,4.867.357,7.283.694,1.21.155,2.413.354,3.615.559.6.1,1.2.225,1.795.349l1.788.376c-2.41-.362-4.814-.737-7.235-.982-1.208-.138-2.419-.248-3.63-.36-1.212-.088-2.424-.191-3.639-.242-2.426-.161-4.859-.214-7.291-.231s-4.866.028-7.3.162" transform="translate(-18.936 -59.65)" fill="#263238"/>
              <path id="Caminho_825" data-name="Caminho 825" d="M88.748,278.2c2.2-.016,4.395.095,6.586.257s4.378.415,6.558.7c2.176.312,4.347.67,6.5,1.121,2.156.434,4.286.987,6.394,1.6-1.078-.213-2.141-.488-3.222-.683l-1.612-.329-1.618-.293c-1.078-.2-2.161-.373-3.241-.556-1.084-.162-2.166-.335-3.254-.472-2.17-.317-4.349-.566-6.53-.79q-1.636-.172-3.276-.306c-1.093-.1-2.188-.178-3.284-.252" transform="translate(-19.198 -60.181)" fill="#263238"/>
              <path id="Caminho_826" data-name="Caminho 826" d="M87.9,279.932c1.824.176,3.634.473,5.435.807s3.589.743,5.371,1.174c1.772.465,3.545.933,5.291,1.488.875.269,1.743.564,2.611.854s1.723.621,2.578.948c-1.761-.5-3.511-1.032-5.276-1.511s-3.526-.963-5.3-1.4c-1.768-.462-3.552-.86-5.335-1.26-.891-.2-1.786-.39-2.682-.572s-1.793-.363-2.693-.532" transform="translate(-19.015 -60.556)" fill="#263238"/>
              <path id="Caminho_827" data-name="Caminho 827" d="M34.763,253.335a3.854,3.854,0,0,1,2.473-2.445,4.016,4.016,0,0,1,3.469.228,12.769,12.769,0,0,1-1.529.711,42.258,42.258,0,0,1-4.414,1.506" transform="translate(-7.52 -54.212)" fill="#263238"/>
              <path id="Caminho_828" data-name="Caminho 828" d="M82.571,254.855a42.313,42.313,0,0,1-4.328-1.737,12.833,12.833,0,0,1-1.489-.79,4.016,4.016,0,0,1,3.476-.045,3.855,3.855,0,0,1,2.341,2.573" transform="translate(-16.604 -54.494)" fill="#263238"/>
              <path id="Caminho_829" data-name="Caminho 829" d="M57.106,295.245a13.739,13.739,0,0,1-2.609-3.591.131.131,0,0,0-.241.039c-.06.321-.231,1.222-.253,1.359-.044-.078-.088-.156-.127-.234-.137-.269-.26-.544-.37-.823a10.892,10.892,0,0,1-.527-1.73,10.491,10.491,0,0,1-.23-1.792c-.024-.61.023-1.217.047-1.829,0-.027-.048-.031-.056,0a7.207,7.207,0,0,0-.281,1.882,9.881,9.881,0,0,0,.1,1.823,9.29,9.29,0,0,0,.45,1.786c.108.3.232.595.369.884a2.659,2.659,0,0,0,.49.8c.15.147.388-.037.385-.2,0-.1.154-1.339.182-1.522a9.191,9.191,0,0,0,2.577,3.236c.056.045.135-.03.089-.078" transform="translate(-11.347 -62.003)" fill="#de9e10"/>
              <g id="Grupo_245" data-name="Grupo 245" transform="translate(72.628 211.23)" opacity="0.1">
                <g id="Grupo_244" data-name="Grupo 244">
                  <g id="Grupo_243" data-name="Grupo 243" clip-path="url(#clip-path-30)">
                    <path id="Caminho_830" data-name="Caminho 830" d="M95.195,269.537a45.121,45.121,0,0,1,4.67,10.437c.772,3.151-4.909,7.035-7.189,8.649,1.4-1.282,2.786-2.575,4.062-3.954.973-1.171,2.251-2.364,2.454-3.911a14.353,14.353,0,0,0-.92-3.279c-.931-2.569-2.1-5.372-3.077-7.943" transform="translate(-92.676 -269.537)"/>
                  </g>
                </g>
              </g>
              <path id="Caminho_831" data-name="Caminho 831" d="M110.49,314.111c-2.155,3.573-7.113,24.375-4.424,29.32s26.89,15.094,27.758,16.134,5.031,15.961,4.771,16.395-4.711,2.306-4.6,3.2c.076.6,10.972.181,11.624.181s1.447-2.287,1.345-2.122c-.172.279,11.888-21.278,14.287-25.5,1.179-2.078-3.271-8.588-3.271-10.019s10.438-14.183,10.41-20.948c-.016-3.809-6.116-19.257-20.558-21.34s-32.4,6.506-37.344,14.7" transform="translate(-22.776 -64.701)" fill="#f9b113"/>
              <g id="Grupo_248" data-name="Grupo 248" transform="translate(82.512 256.456)" opacity="0.1">
                <g id="Grupo_247" data-name="Grupo 247">
                  <g id="Grupo_246" data-name="Grupo 246" clip-path="url(#clip-path-31)">
                    <path id="Caminho_832" data-name="Caminho 832" d="M139.782,382.327c-1.971.964-3.733,1.69-4.226,2.6-.094.172.071.376.4.6-1.152-.039-1.936-.125-1.959-.282-.11-.893,4.342-2.766,4.6-3.2s-3.9-15.352-4.773-16.395-25.07-11.191-27.758-16.136c-1.873-3.448-.031-14.623,1.991-22.272-.494,3.722.313,18.463,3.433,21.653s24.521,12.837,25.352,14,4.22,18.8,2.941,19.423" transform="translate(-105.288 -327.247)"/>
                  </g>
                </g>
              </g>
              <path id="Caminho_833" data-name="Caminho 833" d="M119.185,357.677c-4.692-2.095-9.978-3.925-13.386-8.014-1.1-1.518-1.014-3.53-1.069-5.311a66.011,66.011,0,0,1,3.922-20.343c-1.466,7.522-3.092,15.173-2.641,22.857a4.292,4.292,0,0,0,.7,2.168c3.171,3.929,8.209,6,12.472,8.643" transform="translate(-22.656 -70.091)" fill="#de9e10"/>
              <path id="Caminho_834" data-name="Caminho 834" d="M106.527,326.976a42.412,42.412,0,0,1,.314,6.564,8.3,8.3,0,0,1-.314-6.564" transform="translate(-22.931 -70.732)" fill="#de9e10"/>
              <path id="Caminho_835" data-name="Caminho 835" d="M179.644,304.864a71.356,71.356,0,0,1,4.431,13.4,7.132,7.132,0,0,1,.087,2.8c-1.883,7.148-6.134,13.45-9.939,19.693-.284.475-1.1,1.733-1.335,2.205-.073-.189.056.237.15.466,1.027,2.717,2.487,5.363,3.146,8.247a1.491,1.491,0,0,1-.181.962,25.033,25.033,0,0,1-2.279,3.783,32.51,32.51,0,0,0,1.918-3.926,1.081,1.081,0,0,0,.095-.737c-.92-2.918-2.531-5.562-3.709-8.42a1.008,1.008,0,0,1-.087-.476,15.986,15.986,0,0,1,1.4-2.639c3.577-6.251,7.782-12.437,9.834-19.384.391-3.106-.824-6.207-1.544-9.232-.6-2.261-1.3-4.5-1.992-6.74" transform="translate(-37.194 -65.949)" fill="#de9e10"/>
              <path id="Caminho_836" data-name="Caminho 836" d="M196.149,228.172a19.864,19.864,0,0,0,2.534-2.128,17.242,17.242,0,0,1-2.058,3.31c-.548.344-2.566,2.23-3.483,2.833-6.2,9.5-14.461,21.2-17.192,29.549-2.348,7.16,0,12.231,0,12.231l-8.725-7.935c-1.557-2.144-5.853-8.976-4.288-20.558s10.854-25.894,1.972-41.764-17.685-11.273-30.5-3.889c0,0,13.076-21.319,36.2-21.748,15-.277,27.342,32.853,26.271,45.725a4.79,4.79,0,0,0,.492-1.19c.2-1.064.29-6.135.29-6.135s1.346,4.922.955,7.09c-.282,1.574-1.737,3.3-2.911,4.813.14-.071.289-.133.438-.2" transform="translate(-29.076 -38.521)" fill="#f9b113"/>
              <path id="Caminho_837" data-name="Caminho 837" d="M171.62,280.211c1.616,3.5,3.22,7.091,3.54,10.988-1.107-3.69-2.679-7.212-3.54-10.988" transform="translate(-37.125 -60.616)" fill="#de9e10"/>
              <path id="Caminho_838" data-name="Caminho 838" d="M174.08,287.222a5.152,5.152,0,0,1-.214,3.451,14.662,14.662,0,0,1,.214-3.451" transform="translate(-37.601 -62.133)" fill="#de9e10"/>
              <path id="Caminho_839" data-name="Caminho 839" d="M186.136,290.326l.154,2.316c.03,2.33.758,4.521.981,6.825a14.322,14.322,0,0,1-1.135-9.141" transform="translate(-40.195 -62.804)" fill="#de9e10"/>
              <path id="Caminho_840" data-name="Caminho 840" d="M186.371,295.927a26.439,26.439,0,0,1,2.146,3.168,5.739,5.739,0,0,1-2.146-3.168" transform="translate(-40.316 -64.016)" fill="#de9e10"/>
              <g id="Grupo_251" data-name="Grupo 251" transform="translate(105.335 140.762)" opacity="0.1">
                <g id="Grupo_250" data-name="Grupo 250">
                  <g id="Grupo_249" data-name="Grupo 249" clip-path="url(#clip-path-32)">
                    <path id="Caminho_841" data-name="Caminho 841" d="M167.216,266.354c-1.575-2.163-5.846-8.989-4.279-20.548,1.56-11.583,10.854-25.893,1.975-41.762s-17.688-11.277-30.5-3.887c0,0,9.8-15.971,27.421-20.54-6.395,2.265-12.7,9.2-15.462,12.437,0,0,10.917-1.56,15.462,2.085s11.011,17.852,12.86,25.415-9.42,23.385-10.266,31.143c-.831,7.531,2.594,15.227,2.79,15.658" transform="translate(-134.411 -179.617)"/>
                  </g>
                </g>
              </g>
            </g>
          </g>
        </g>
      </g>
    </g>
    <circle id="Elipse_7" data-name="Elipse 7" cx="60.5" cy="60.5" r="60.5" transform="translate(156 292)" fill="#fff"/>
    <circle id="Elipse_8" data-name="Elipse 8" cx="50.5" cy="50.5" r="50.5" transform="translate(165 302)" fill="#4a128c"/>
    <g id="Grupo_318" data-name="Grupo 318" transform="translate(178.072 288.486)">
      <g id="Grupo_317" data-name="Grupo 317" transform="translate(15.845 47.891)">
        <path id="Caminho_976" data-name="Caminho 976" d="M58.8,47.892a2.148,2.148,0,0,0-1.477.65L30.914,74.95,19.544,63.58a2.148,2.148,0,1,0-3.038,3.038L29.4,79.507a2.148,2.148,0,0,0,3.038,0L60.36,51.58A2.148,2.148,0,0,0,58.8,47.892Z" transform="translate(-15.845 -47.891)" fill="#fff" stroke="#f5f5f5" stroke-width="4"/>
      </g>
    </g>
  </g>
</svg>
