<svg xmlns="http://www.w3.org/2000/svg" xmlns:xlink="http://www.w3.org/1999/xlink" width="430" height="297" viewBox="0 0 430 297">
  <defs>
    <clipPath id="clip-path">
      <rect id="Retângulo_69" data-name="Retângulo 69" width="430" height="297" fill="#fff" stroke="#707070" stroke-width="1"/>
    </clipPath>
    <clipPath id="clip-path-2">
      <path id="Caminho_618" data-name="Caminho 618" d="M245.7,108.854c-34.407,59-145.445,76.944-184.112,107.2C26.2,243.763,7.355,307.836,9.265,358.892c1.9,51.072,40.693,101.854,91.61,106.116,22.157,1.847,44.324-4.7,66.5-3.186,71,4.846,110.55,84.479,172.972,118.629C412.3,619.812,504,591.973,570.566,544.082,612.9,513.625,651,473.22,664.49,422.841s-4-111.39-49.912-136.135c-41.362-22.3-104.362-19.027-120.467-63.163-11.274-30.861,10.705-63.125,15.646-95.606C517.486,77.046,478.77,26.386,429.7,10.828S335.668-7.417,299.511,29.233C282.638,46.336,257.8,88.1,245.7,108.854" transform="translate(-58.216 -470.669) rotate(30)" fill="#ffcb64"/>
    </clipPath>
    <clipPath id="clip-path-3">
      <rect id="Retângulo_62" data-name="Retângulo 62" width="379.175" height="319.424" fill="none"/>
    </clipPath>
    <clipPath id="clip-path-7">
      <rect id="Retângulo_38" data-name="Retângulo 38" width="97.197" height="64.4" fill="none"/>
    </clipPath>
    <clipPath id="clip-path-8">
      <rect id="Retângulo_39" data-name="Retângulo 39" width="64.375" height="47.36" fill="none"/>
    </clipPath>
    <clipPath id="clip-path-9">
      <rect id="Retângulo_40" data-name="Retângulo 40" width="32.697" height="49.212" fill="none"/>
    </clipPath>
    <clipPath id="clip-path-11">
      <rect id="Retângulo_44" data-name="Retângulo 44" width="25.088" height="27.696" fill="none"/>
    </clipPath>
    <clipPath id="clip-path-12">
      <rect id="Retângulo_45" data-name="Retângulo 45" width="45.261" height="95.182" fill="none"/>
    </clipPath>
    <clipPath id="clip-path-13">
      <rect id="Retângulo_46" data-name="Retângulo 46" width="7.505" height="13.926" fill="none"/>
    </clipPath>
    <clipPath id="clip-path-14">
      <rect id="Retângulo_47" data-name="Retângulo 47" width="131.715" height="165.989" fill="none"/>
    </clipPath>
    <clipPath id="clip-path-15">
      <rect id="Retângulo_48" data-name="Retângulo 48" width="32.136" height="34.245" fill="none"/>
    </clipPath>
    <clipPath id="clip-path-16">
      <rect id="Retângulo_49" data-name="Retângulo 49" width="13.368" height="10.364" fill="#4a128c"/>
    </clipPath>
    <clipPath id="clip-path-17">
      <rect id="Retângulo_50" data-name="Retângulo 50" width="14.866" height="18.874" fill="#4a128c"/>
    </clipPath>
    <clipPath id="clip-path-18">
      <rect id="Retângulo_51" data-name="Retângulo 51" width="5.916" height="19.603" fill="#bfa6e7"/>
    </clipPath>
    <clipPath id="clip-path-19">
      <rect id="Retângulo_52" data-name="Retângulo 52" width="2.429" height="0.904" fill="none"/>
    </clipPath>
    <clipPath id="clip-path-20">
      <rect id="Retângulo_55" data-name="Retângulo 55" width="20.342" height="20.571" fill="#4a128c"/>
    </clipPath>
    <clipPath id="clip-path-21">
      <rect id="Retângulo_56" data-name="Retângulo 56" width="10.626" height="7.118" fill="none"/>
    </clipPath>
    <clipPath id="clip-path-22">
      <rect id="Retângulo_57" data-name="Retângulo 57" width="8.885" height="4.863" fill="none"/>
    </clipPath>
    <clipPath id="clip-path-23">
      <rect id="Retângulo_58" data-name="Retângulo 58" width="29.572" height="26.269" fill="#ffc727"/>
    </clipPath>
  </defs>
  <g id="Ilustração_Login" clip-path="url(#clip-path)">
    <g id="Grupo_de_máscara_1" data-name="Grupo de máscara 1" clip-path="url(#clip-path-2)">
      <path id="Caminho_616" data-name="Caminho 616" d="M245.7,108.854c-34.407,59-145.445,76.944-184.112,107.2C26.2,243.763,7.355,307.836,9.265,358.892c1.9,51.072,40.693,101.854,91.61,106.116,22.157,1.847,44.324-4.7,66.5-3.186,71,4.846,110.55,84.479,172.972,118.629C412.3,619.812,504,591.973,570.566,544.082,612.9,513.625,651,473.22,664.49,422.841s-4-111.39-49.912-136.135c-41.362-22.3-104.362-19.027-120.467-63.163-11.274-30.861,10.705-63.125,15.646-95.606C517.486,77.046,478.77,26.386,429.7,10.828S335.668-7.417,299.511,29.233C282.638,46.336,257.8,88.1,245.7,108.854" transform="translate(-58.216 -470.669) rotate(30)" fill="#ffcb64"/>
      <g id="Grupo_78" data-name="Grupo 78" transform="translate(-32 33.291)">
        <g id="Grupo_77" data-name="Grupo 77" clip-path="url(#clip-path-3)">
          <g id="Grupo_5" data-name="Grupo 5">
            <g id="Grupo_4" data-name="Grupo 4" clip-path="url(#clip-path-3)">
              <path id="Caminho_16" data-name="Caminho 16" d="M306.178,121.543c-30.441,61.385-102.848,97.814-102.848,97.814s-72.41-36.428-102.792-97.814C75.187,70.341,91.247,15,131.258,2.913c57.353-17.345,72.071,48.435,72.071,48.435s14.717-65.781,72.127-48.436c40.01,12.088,56.07,67.429,30.721,118.63" transform="translate(-13.868 0)" fill="#f9b113" opacity="0.36"/>
              <path id="Caminho_17" data-name="Caminho 17" d="M53.1,160.121c5.534,3.76,13.438,3.384,13.438,3.384s4.41-6.571,4.049-13.249c-.3-5.57-4.321-9.505-8.3-8.614-5.709,1.277-2.169,10.476-2.169,10.476s-6.043-7.788-10.093-3.558c-2.822,2.947-1.533,8.424,3.078,11.561" transform="translate(-7.619 -22.214)" fill="#f9b113"/>
              <path id="Caminho_18" data-name="Caminho 18" d="M361.574,16.319a12.826,12.826,0,0,0,4.569,5.367,12.806,12.806,0,0,0,5.587-4.294c1.519-2.4,1.014-5.213-.9-6.019-2.742-1.156-3.989,3.7-3.989,3.7s-.207-5.01-3.132-4.453c-2.039.389-3.121,3.038-2.136,5.7" transform="translate(-56.701 -1.66)" fill="#f9b113"/>
              <path id="Caminho_19" data-name="Caminho 19" d="M342.562,120.658c3.49,10.2,14.038,17.365,14.038,17.365s12.041-4.2,18.038-13.15c5-7.468,3.633-16.429-2.361-19.134-8.59-3.881-12.933,11.4-12.933,11.4s-.249-15.882-9.56-14.352c-6.489,1.066-10.128,9.369-7.223,17.875" transform="translate(-53.615 -16.118)" fill="#f9b113"/>
            </g>
          </g>
          <g id="Grupo_7" data-name="Grupo 7">
            <g id="Grupo_6" data-name="Grupo 6" clip-path="url(#clip-path-3)">
              <path id="Caminho_20" data-name="Caminho 20" d="M0,366.6c121.461-.516,257.713-.52,379.175,0-121.462.52-257.713.516-379.175,0" transform="translate(0 -57.487)" fill="#263238"/>
            </g>
          </g>
          <g id="Grupo_18" data-name="Grupo 18">
            <g id="Grupo_17" data-name="Grupo 17" clip-path="url(#clip-path-3)">
              <path id="Caminho_21" data-name="Caminho 21" d="M169.221,142.616c.938,4.823,1.867,9.672,3.016,14.449a86.158,86.158,0,0,0,2.584,8.531,20.193,20.193,0,0,0,4.4,1.636c-.26-.708-.508-1.416-.754-2.108a99.547,99.547,0,0,1-2.891-10.2c-.03-.115.151-.143.181-.028.989,3.507,2.268,6.964,3.57,10.368.285.74.593,1.474.909,2.2a30.666,30.666,0,0,0,4.388.588c-.335-.8-.651-1.616-.964-2.408-.744-1.871-1.445-3.755-2.087-5.665a99.8,99.8,0,0,1-3.091-11.495c-.035-.162.206-.19.248-.036,1.088,3.932,2.328,7.833,3.7,11.674.649,1.816,1.329,3.629,2.052,5.417.347.857.728,1.7,1.1,2.561a50.554,50.554,0,0,0,8.095-.388c7.721-.942,15.178-4.417,21.785-8.513a44.021,44.021,0,0,0,14.3-13.912,35.364,35.364,0,0,1-7.406-7.651.09.09,0,0,1,.137-.115q2.48,2.548,5.167,4.863c.844.726,1.72,1.4,2.6,2.088.052-.089.1-.175.152-.263.335-.576.685-1.186,1.016-1.83a56.621,56.621,0,0,1-4.889-4.665,50.988,50.988,0,0,1-6.023-7.379.163.163,0,0,1,.25-.21c2.132,2.26,4.2,4.577,6.363,6.806,1.524,1.568,3.16,3.037,4.73,4.564.9-1.981,1.457-4.159.59-6.254A14.059,14.059,0,0,0,229,130.991a47.805,47.805,0,0,1-4.068-4.517c-9.809-12.58-18.078-43.057-29.343-42.377-.072-.076-20.085-3.757-27.646,6.828-12,16.8-1.721,63.729-.094,67.375a14.8,14.8,0,0,0,5.676,6.548c-.822-2.369-1.465-4.807-2.033-7.188a142.376,142.376,0,0,1-2.514-15.009.125.125,0,0,1,.248-.036" transform="translate(-25.461 -13.095)" fill="#263238"/>
              <path id="Caminho_22" data-name="Caminho 22" d="M173.062,161.387c10.153,17.712,24.349,41.984,30.823,44.081,16.816,5.446,50.064,8.086,61.377,4.372,4.256-1.4,1.356-36.3-3.245-34.963-8.5,2.466-43.725,3.667-46.463,2.614-1.9-.732-18.526-16.141-31.393-25.333-18.253-13.041-14.74,2.878-11.1,9.229" transform="translate(-26.708 -23.102)" fill="#d3766a"/>
              <g id="Grupo_10" data-name="Grupo 10" transform="translate(143.431 124.068)" opacity="0.1">
                <g id="Grupo_9" data-name="Grupo 9">
                  <g id="Grupo_8" data-name="Grupo 8" clip-path="url(#clip-path-7)">
                    <path id="Caminho_23" data-name="Caminho 23" d="M173.062,161.387c10.153,17.712,24.349,41.984,30.823,44.081,16.816,5.446,50.064,8.086,61.377,4.372,4.256-1.4,1.356-36.3-3.245-34.963-8.5,2.466-43.725,3.667-46.463,2.614-1.9-.732-18.526-16.141-31.393-25.333-18.253-13.041-14.74,2.878-11.1,9.229" transform="translate(-170.139 -147.17)"/>
                  </g>
                </g>
              </g>
              <path id="Caminho_24" data-name="Caminho 24" d="M325.518,184.866a1.9,1.9,0,0,1-1.076,1.4c2.505,1.843,4.067,3.939,3.092,6.067-.563,1.248-1.817,1.79-3.429,1.816,1.091,1.121,1.442,2.317.623,3.553-1.436,2.168-7.28,1.486-13,.166,3.775,1.527,6.636,3.424,5.432,5.423-3.217,5.3-15.712.984-24.585-.748a29.1,29.1,0,0,0-8.37-.6,7.193,7.193,0,0,0-1.234.26c-1.106.33-1.85.911-1.942,1.847-.154,1.672,3.436,3.077,6.014,3.242,4.892.292,10.81,4.976,10.659,8.043-.212,4.491-11.344,2.332-15.407,2.543-5.437.286-14.362-2.324-15.034-2.414,0,0-.815-3.294-1.685-7.927-1.674-8.834-3.553-22.519-.488-27.378,0,0,17.019-7.489,34.83-9.273,6.055-.6,27.129,7.955,25.6,13.986" transform="translate(-41.356 -26.819)" fill="#d3766a"/>
              <g id="Grupo_13" data-name="Grupo 13" transform="translate(222.097 144.031)" opacity="0.1">
                <g id="Grupo_12" data-name="Grupo 12">
                  <g id="Grupo_11" data-name="Grupo 11" clip-path="url(#clip-path-8)">
                    <path id="Caminho_25" data-name="Caminho 25" d="M325.518,184.866a1.9,1.9,0,0,1-1.076,1.4c2.505,1.843,4.067,3.939,3.092,6.067-.563,1.248-1.817,1.79-3.429,1.816,1.091,1.121,1.442,2.317.623,3.553-1.436,2.168-7.28,1.486-13,.166,3.775,1.527,6.636,3.424,5.432,5.423-3.217,5.3-15.712.984-24.585-.748a29.1,29.1,0,0,0-8.37-.6,7.193,7.193,0,0,0-1.234.26c-1.106.33-1.85.911-1.942,1.847-.154,1.672,3.436,3.077,6.014,3.242,4.892.292,10.81,4.976,10.659,8.043-.212,4.491-11.344,2.332-15.407,2.543-5.437.286-14.362-2.324-15.034-2.414,0,0-.815-3.294-1.685-7.927-1.674-8.834-3.553-22.519-.488-27.378,0,0,17.019-7.489,34.83-9.273,6.055-.6,27.129,7.955,25.6,13.986" transform="translate(-263.453 -170.85)"/>
                  </g>
                </g>
              </g>
              <path id="Caminho_26" data-name="Caminho 26" d="M296.3,196.908a22.276,22.276,0,0,1,10.252.427c4.608,1.2,6.807,2.784,10.967,4.638.11.049.039.221-.071.172-1.981-.88-8.707-3.513-10.723-4.153a21.323,21.323,0,0,0-10.417-1.019c-.041.006-.048-.057-.008-.065" transform="translate(-46.508 -30.846)" fill="#263238"/>
              <path id="Caminho_27" data-name="Caminho 27" d="M297.661,187.458a49.624,49.624,0,0,1,11.407.283c4.645.667,8.876,2.907,13.012,5.04q3.725,1.921,7.365,4.008c.1.059.037.228-.071.172q-6.325-3.335-12.842-6.284a33.419,33.419,0,0,0-12.756-3.04c-2.517-.087-3.594-.213-6.107-.105-.047,0-.057-.072-.008-.074" transform="translate(-46.721 -29.396)" fill="#263238"/>
              <path id="Caminho_28" data-name="Caminho 28" d="M299.1,178.631c4.041-.52,7.619-1.072,11.665-.185,5.356,1.174,10.363,3.989,12.419,5.085,2.272,1.211,4.5,2.5,6.712,3.815.09.054,0,.212-.092.16a133.332,133.332,0,0,0-15.489-7.525,21.23,21.23,0,0,0-7.115-1.657,47.1,47.1,0,0,0-8.1.334.014.014,0,1,1,0-.028" transform="translate(-46.949 -27.938)" fill="#263238"/>
              <path id="Caminho_29" data-name="Caminho 29" d="M207.375,167.337,191.06,194.788s-18.417-29.9-21.35-40.227c-3.3-11.618,3.36-10.765,13.435-5.262s24.231,18.037,24.231,18.037" transform="translate(-26.506 -22.824)" fill="#f9b113"/>
              <path id="Caminho_30" data-name="Caminho 30" d="M205.539,169.061c-2.552,3.214-8.842,13.932-9.9,15.694-.558.928-2.619,4.73-3.183,5.652-.072.118.124.207.2.09,1.075-1.759,2.336-3.41,3.428-5.164,1.117-1.795,7.886-12.425,9.6-16.186a.081.081,0,0,0-.135-.085" transform="translate(-30.208 -26.534)" fill="#263238"/>
              <g id="Grupo_16" data-name="Grupo 16" transform="translate(142.351 122.755)" opacity="0.1">
                <g id="Grupo_15" data-name="Grupo 15">
                  <g id="Grupo_14" data-name="Grupo 14" clip-path="url(#clip-path-9)">
                    <path id="Caminho_31" data-name="Caminho 31" d="M201.554,177.168l-10.492,17.657s-18.418-29.908-21.355-40.232c-1.579-5.57-.87-8.274,1.4-8.98h.009Z" transform="translate(-168.857 -145.613)"/>
                  </g>
                </g>
              </g>
              <path id="Caminho_32" data-name="Caminho 32" d="M299.646,349.844c2.763-.922.31-8.9-2.764-11.359a79.656,79.656,0,0,0-9.148-4.818c-10.008-4.813-24.394-11.243-24.394-11.243L275.6,270.5l-49.953.271s-13.641,48.771-13.558,51.8q.006.281.012.561c.427,13.765,1.109,25.032,2.242,25.739,3.027,1.918,82.522,1.9,85.3.972" transform="translate(-33.293 -42.461)" fill="#d3766a"/>
              <path id="Caminho_33" data-name="Caminho 33" d="M299.648,358.179c-2.782.936-82.278.953-85.3-.969-1.13-.708-1.812-11.971-2.242-25.738,0-.185-.008-.379-.008-.565a57.771,57.771,0,0,1,1.56-7.292h51.373l-1.686,7.149s14.39,6.432,24.4,11.238a78.905,78.905,0,0,1,9.147,4.822c3.077,2.462,5.522,10.437,2.765,11.356" transform="translate(-33.293 -50.8)" fill="#ebebeb"/>
              <path id="Caminho_34" data-name="Caminho 34" d="M300.416,359.771c-2.828.95-83.773.857-86.85-1.106-1.183-.726-1.856-12.521-2.261-26.8,0-.149-.006-.3-.009-.448l52.223-.523-.021.886s30.967,13.894,34.126,16.409c3.133,2.5,5.622,10.641,2.793,11.578" transform="translate(-33.168 -51.943)" fill="#4a128c"/>
              <path id="Caminho_35" data-name="Caminho 35" d="M300.6,361.37c-13.644-.351-68.71-.477-82.224.212-.11.006-.11.081,0,.086,13.516.643,68.582.324,82.225-.074.287-.009.287-.217,0-.224" transform="translate(-34.267 -56.682)" fill="#263238"/>
              <path id="Caminho_36" data-name="Caminho 36" d="M277.14,331.008c-5.368-1.008-11.936-.191-16.044,3.629-.158.148.054.372.228.318a75.461,75.461,0,0,1,15.793-3.268.344.344,0,0,0,.022-.679" transform="translate(-40.977 -51.898)" fill="#263238"/>
              <path id="Caminho_37" data-name="Caminho 37" d="M281.734,333.784c-5.368-1.008-11.936-.191-16.044,3.629-.159.148.054.373.228.318a75.431,75.431,0,0,1,15.793-3.268.344.344,0,0,0,.023-.679" transform="translate(-41.698 -52.334)" fill="#263238"/>
              <path id="Caminho_38" data-name="Caminho 38" d="M286.329,336.56c-5.368-1.008-11.936-.191-16.044,3.629-.159.148.053.372.228.318a75.417,75.417,0,0,1,15.793-3.268.344.344,0,0,0,.023-.679" transform="translate(-42.42 -52.77)" fill="#263238"/>
              <path id="Caminho_39" data-name="Caminho 39" d="M285.351,316.882c-2.107-2.908-6.037-1.606-8.281.276a28.656,28.656,0,0,0-8.284,12.29.144.144,0,0,0,.126.194.666.666,0,0,0,.841.672c4.435-1.637,9.38-2.837,13.182-5.787,2.219-1.721,4.407-4.893,2.415-7.645m-9.379,9.574c-2.162.858-4.353,1.6-6.483,2.543a85.97,85.97,0,0,1,5-7.072,30.892,30.892,0,0,1,2.849-3.071c1.6-1.452,7.927-4.538,6.974,1.352-.525,3.247-5.76,5.225-8.336,6.248" transform="translate(-42.192 -49.475)" fill="#263238"/>
              <path id="Caminho_40" data-name="Caminho 40" d="M251.753,328.659c4.423,1.891,9.51,1.8,14.216,2.263a.667.667,0,0,0,.644-.862.143.143,0,0,0,.073-.219,28.65,28.65,0,0,0-11.124-9.8c-2.646-1.252-6.778-1.517-8.08,1.829-1.232,3.166,1.688,5.68,4.271,6.785m-2.419-3.832c-2.414-5.458,4.491-4.073,6.4-3.073a31.058,31.058,0,0,1,3.534,2.251,85.74,85.74,0,0,1,6.622,5.577c-2.3-.368-4.606-.536-6.915-.819-2.752-.338-8.315-.927-9.644-3.936" transform="translate(-38.803 -50.104)" fill="#263238"/>
              <path id="Caminho_41" data-name="Caminho 41" d="M145.127,222.038s-8.955,32.415,6.677,42.009c10.437,6.405,56.557-2.453,58.519-8.154,3.708-10.769,3.714-14.717,3.714-14.717l-11.842,57.1,58.1.681s10.9-47.237,8.1-97.373c-1.036-18.537-25.953-24.146-43.288-14.925-16.807,8.94-46.9,33.757-46.9,33.757Z" transform="translate(-22.381 -28.617)" fill="#4a128c"/>
              <path id="Caminho_42" data-name="Caminho 42" d="M219.107,270.084c3.13-7.663,2.885-10.671,10.7-34.454,1.045-3.179,1.92-6.411,2.854-9.625.969-3.332,2.114-6.651,2.849-10.044.036-.165.3-.1.255.065-.9,2.94-1.488,5.976-2.266,8.95-.761,2.913-1.534,5.821-2.347,8.719-.352,1.252-.721,2.5-1.077,3.749.158-.26.314-.517.462-.771.683-1.173,1.369-2.341,2.08-3.5,1.464-2.382,3.24-4.621,4.524-7.1.077-.151.318-.015.229.128-1.477,2.376-2.527,5.014-3.912,7.448-.671,1.181-1.374,2.338-2.093,3.489a22.642,22.642,0,0,1-2.087,3.084c-1.067,3.672-3.358,12.516-4.5,16.166-3.595,11.5-2.415,7.756-5.1,13.929-.14.323-.716.1-.579-.232" transform="translate(-34.391 -33.886)" fill="#263238"/>
              <path id="Caminho_43" data-name="Caminho 43" d="M245.595,308.433c-8.746-.092-17.478-.588-26.221-.754-.166,0-.191-.261-.021-.262,8.716-.051,17.423-.39,26.141-.287,8.75.1,17.474.535,26.217.829.223.008.259.353.027.353-8.716.019-17.424.213-26.142.121" transform="translate(-34.415 -48.209)" fill="#263238"/>
              <path id="Caminho_44" data-name="Caminho 44" d="M225.074,294.3c.8-3.861,1.917-7.658,2.937-11.465s2.044-7.623,3.1-11.426c2.107-7.61,4.3-15.193,6.491-22.779,1.243-4.306,2.586-8.59,3.906-12.874a.1.1,0,0,1,.195.048q-5.845,22.946-12.564,45.66c-1.265,4.3-2.416,8.651-3.926,12.869a.07.07,0,0,1-.136-.034" transform="translate(-35.331 -36.997)" fill="#263238"/>
              <path id="Caminho_45" data-name="Caminho 45" d="M151.8,271.189c-15.63-9.592-6.677-42.005-6.677-42.005L173,227.821l37.953,33.352c-.2.6-.407,1.222-.631,1.869-1.96,5.7-48.084,14.558-58.524,8.147" transform="translate(-22.38 -35.762)" fill="#370078"/>
              <path id="Caminho_46" data-name="Caminho 46" d="M271.685,311.057c-.183.864-.291,1.312-.291,1.312l-58.1-.68,9.111-43.941Z" transform="translate(-33.482 -42.03)" fill="#263238"/>
              <path id="Caminho_47" data-name="Caminho 47" d="M7.972,359.991c-.522,2.865,7.646,4.556,11.286,3.048a79.654,79.654,0,0,0,8.628-5.7c9.037-6.452,21.6-15.963,21.6-15.963l42.693,2.581L116,300.053S76.74,297.784,74.042,296.4l-.5-.26c-12.269-6.255-22.472-11.085-23.637-10.433-3.139,1.73-41.414,71.4-41.936,74.288" transform="translate(-1.248 -44.839)" fill="#d3766a"/>
              <path id="Caminho_48" data-name="Caminho 48" d="M81.536,297.525,59.075,341.962l-9.589-.583s-12.565,9.505-21.6,15.962a80.776,80.776,0,0,1-8.623,5.7c-3.638,1.513-11.807-.186-11.286-3.05.524-2.887,38.8-72.556,41.937-74.287,1.159-.647,11.373,4.178,23.634,10.436.173.081.333.172.495.252.666.345,3.536.74,7.5,1.136" transform="translate(-1.248 -44.839)" fill="#ebebeb"/>
              <path id="Caminho_49" data-name="Caminho 49" d="M7,360.426c.529-2.936,39.6-73.829,42.8-75.58,1.206-.687,11.867,4.4,24.572,10.924l.4.208L50.072,342l-.766-.446s-27.091,20.448-30.816,22c-3.7,1.539-12.033-.2-11.492-3.129" transform="translate(-1.094 -44.704)" fill="#4a128c"/>
              <path id="Caminho_50" data-name="Caminho 50" d="M10.742,361.9c6.879-11.789,33.512-59.985,39.416-72.161.047-.1-.018-.136-.076-.042-7.074,11.536-33.315,59.947-39.537,72.1-.131.255.051.356.2.107" transform="translate(-1.648 -45.467)" fill="#263238"/>
              <path id="Caminho_51" data-name="Caminho 51" d="M54.5,355.636c3.469-4.219,5.916-10.368,4.546-15.808-.053-.211-.352-.132-.388.047a75.477,75.477,0,0,1-4.743,15.415.344.344,0,0,0,.584.346" transform="translate(-8.459 -53.325)" fill="#263238"/>
              <path id="Caminho_52" data-name="Caminho 52" d="M49.855,358.326c3.469-4.218,5.917-10.368,4.546-15.808-.052-.21-.352-.131-.388.047a75.527,75.527,0,0,1-4.742,15.415.343.343,0,0,0,.583.346" transform="translate(-7.73 -53.747)" fill="#263238"/>
              <path id="Caminho_53" data-name="Caminho 53" d="M45.21,361.015c3.469-4.219,5.917-10.368,4.546-15.808-.053-.211-.352-.132-.388.047a75.476,75.476,0,0,1-4.742,15.415.343.343,0,0,0,.583.346" transform="translate(-7.001 -54.169)" fill="#263238"/>
              <path id="Caminho_54" data-name="Caminho 54" d="M61.711,368.72c3.563-.445,4.315-4.517,3.747-7.39a28.653,28.653,0,0,0-6.781-13.178.143.143,0,0,0-.23.018.666.666,0,0,0-.994.413c-.7,4.676-2.032,9.588-1.278,14.339.44,2.774,2.166,6.22,5.536,5.8m-3.873-12.831c.29-2.308.69-4.588.894-6.905a85.69,85.69,0,0,1,3.791,7.784,30.85,30.85,0,0,1,1.319,3.976c.5,2.1.159,9.133-4.544,5.46-2.593-2.024-1.8-7.564-1.461-10.314" transform="translate(-8.783 -54.641)" fill="#263238"/>
              <path id="Caminho_55" data-name="Caminho 55" d="M66.792,334.428C63,337.394,60.632,341.9,57.961,345.8a.667.667,0,0,0,.446.98.143.143,0,0,0,.157.169A28.644,28.644,0,0,0,72.5,341.916c2.372-1.716,4.6-5.209,2.29-7.962-2.181-2.6-5.792-1.256-8,.475m4.523-.275c5.944.514,1.406,5.9-.392,7.093a31.033,31.033,0,0,1-3.675,2.012,85.75,85.75,0,0,1-8.077,3.117c1.43-1.836,2.689-3.778,4.049-5.665,1.621-2.248,4.818-6.841,8.095-6.557" transform="translate(-9.082 -52.194)" fill="#263238"/>
              <path id="Caminho_56" data-name="Caminho 56" d="M174.169,222.139a236.664,236.664,0,0,1,1.345,23.8s55.19,28.923,57.709,56.417c.893,9.739-.408,27.983-19.5,36.3-21.335,9.291-139.244,2.894-139.244,2.894l14.73-54.287,52,.022s-36.7,5.836-40.682-18.617c-3.705-22.728,10.255-46.524,10.255-46.524Z" transform="translate(-11.691 -34.87)" fill="#4a128c"/>
              <path id="Caminho_57" data-name="Caminho 57" d="M88.922,351.752c1.3-6.254,2.557-12.539,4.008-18.76q2.181-9.355,4.643-18.631c.464-1.746.942-3.488,1.414-5.23.225-.832.45-1.662.693-2.487a25.937,25.937,0,0,1,.76-2.5c.037-.09.136-.038.128.047a41.476,41.476,0,0,1-.936,4.8c-.328,1.509-.642,3.022-.973,4.53q-1.02,4.655-2.083,9.3c-1.426,6.2-3.006,12.355-4.619,18.506q-1.375,5.242-2.767,10.476c-.053.2-.31.154-.267-.053" transform="translate(-13.958 -47.737)" fill="#263238"/>
              <path id="Caminho_58" data-name="Caminho 58" d="M132.34,299.294c4.213-.3,8.434-.438,12.657-.523s8.446-.04,12.671.034c4.222.137,8.446.3,12.658.681a92.039,92.039,0,0,1,12.543,1.811l-3.139-.407-3.148-.3c-2.1-.18-4.2-.353-6.3-.447-4.206-.24-8.418-.413-12.633-.483-4.213-.146-8.429-.178-12.647-.233Z" transform="translate(-20.774 -46.893)" fill="#263238"/>
              <path id="Caminho_59" data-name="Caminho 59" d="M127.86,227.421a152.55,152.55,0,0,0-4.9,14.768,95.848,95.848,0,0,0-3,15.217,43.227,43.227,0,0,0-.163,7.707,19.173,19.173,0,0,0,1.874,7.326,10.324,10.324,0,0,0,2.25,2.94,18.522,18.522,0,0,0,3.094,2.173A34.405,34.405,0,0,0,134.1,280.4a96.106,96.106,0,0,0,15.218,2.762c5.145.6,10.319,1.016,15.493,1.544a112.468,112.468,0,0,1,15.466,2.4,30.4,30.4,0,0,1,7.431,2.74,35.123,35.123,0,0,1,6.464,4.58l1.168,1.04-1.576-.021-42.05-.567-21.026-.169c-7.009-.027-14.018-.04-21.026.148,7-.408,14.014-.517,21.023-.642s14.021-.139,21.032-.159l21.033.015,21.031.2-.409,1.019a33.966,33.966,0,0,0-6.237-4.381,29.037,29.037,0,0,0-7.156-2.6,124.209,124.209,0,0,0-15.3-2.36c-5.154-.551-10.332-1-15.5-1.62a97.151,97.151,0,0,1-15.389-2.873,33.208,33.208,0,0,1-7.3-3.017,19.49,19.49,0,0,1-3.234-2.344,11.281,11.281,0,0,1-2.417-3.242,20,20,0,0,1-1.866-7.688,43.965,43.965,0,0,1,.271-7.843,90.194,90.194,0,0,1,3.325-15.251,136.985,136.985,0,0,1,5.29-14.658" transform="translate(-17.214 -35.7)" fill="#263238"/>
              <path id="Caminho_60" data-name="Caminho 60" d="M185.591,221.279a.1.1,0,0,1,.206-.011c.217,1.881.875,12.619,1.2,16.665.115,1.442.037,4.011,2.139,4.009,1.663,0,2.491-1.815,2.676-3.225.224-1.718-.7-14.184-.91-18.333-.006-.119.186-.124.207-.011.765,4.156,2.246,17.378,1.806,19.232a4.233,4.233,0,0,1-2.571,3.322,26.962,26.962,0,0,1-.07,4.9c-.014.136-.436.172-.467.063l-.009,0c.072-.97-.443-4.737-.43-4.758a2.983,2.983,0,0,1-2.675-1.22c-1.459-1.946-1.14-15.853-1.1-20.636" transform="translate(-29.125 -34.581)" fill="#263238"/>
              <path id="Caminho_61" data-name="Caminho 61" d="M178.528,257.36c1.5-1.037,3.06-1.981,4.627-2.908s3.16-1.8,4.765-2.663c1.614-.84,3.232-1.673,4.891-2.427s3.323-1.5,5.047-2.1c-.781.475-1.583.9-2.366,1.367l-2.382,1.325c-1.584.889-3.187,1.741-4.789,2.6-1.612.838-3.217,1.688-4.852,2.484l-2.451,1.2c-.831.374-1.647.776-2.489,1.132" transform="translate(-28.025 -38.813)" fill="#263238"/>
              <path id="Caminho_62" data-name="Caminho 62" d="M132.034,245.436c2.929-.012,12.056.523,16.409-3.154,3.52-2.973,5.068-13.127,5.675-15.913.029-.138.231-.092.234.037a31.832,31.832,0,0,1-1.181,9.319c-.706,2.571-1.659,5.443-3.737,7.245-2.187,1.9-5.155,2.563-7.953,2.908a36.593,36.593,0,0,1-9.455-.131.156.156,0,0,1,.008-.312" transform="translate(-20.702 -35.521)" fill="#263238"/>
              <path id="Caminho_63" data-name="Caminho 63" d="M181.608,201.176l-1.974,22.732-72.074.438s20.192-56.865,40.512-76.138c8.083-7.666,15.639-5.453,21.433.345,1.322,1.324,17.34,27.414,18.729,36.762,1.14,7.675-6.626,15.861-6.626,15.861" transform="translate(-16.884 -22.492)" fill="#f9b113"/>
              <path id="Caminho_64" data-name="Caminho 64" d="M179.444,206.92a57.928,57.928,0,0,0-10.793,1.367c-1.776.427-3.529.956-5.283,1.535-.876.288-1.751.54-2.631.785a9.255,9.255,0,0,1-2.788.437c-.083,0-.094.156-.013.165a12.193,12.193,0,0,0,5.195-.244c1.8-.411,3.6-.929,5.4-1.364,3.633-.878,7.266-1.755,10.928-2.3.169-.025.159-.393-.011-.384" transform="translate(-24.783 -32.481)" fill="#263238"/>
              <path id="Caminho_65" data-name="Caminho 65" d="M190.178,212.391a60.961,60.961,0,0,0-8.8-1.292,40.781,40.781,0,0,0-4.449-.029c-.711.029-1.422.075-2.133.132-.781.062-1.564.26-2.344.308-.082.005-.1.168-.013.165.737-.016,1.474.125,2.208.164s1.477.07,2.215.109c1.478.077,2.954.175,4.433.234,2.962.118,5.908.274,8.86.524.159.013.173-.282.024-.314" transform="translate(-27.06 -33.126)" fill="#263238"/>
              <path id="Caminho_66" data-name="Caminho 66" d="M168.386,144.205c.007,1.453,4.542,11.914,10.915,13.061,2.076.37,4.6-10.872,4.6-10.872l.376-.787,5.257-11.024L177.892,122.7l-1.707-1.61s-1.239,3.111-2.743,7c-.071.18-.142.361-.215.554-.091.218-.179.422-.255.63-.232.577-.466,1.169-.688,1.763-.17.452-.339.889-.5,1.37s-.334.945-.508,1.423a78.657,78.657,0,0,0-2.89,10.373" transform="translate(-26.433 -19.009)" fill="#d3766a"/>
              <path id="Caminho_67" data-name="Caminho 67" d="M174.382,128.093a24.5,24.5,0,0,0,10.838,17.515l5.257-11.023L178.833,122.7l-1.707-1.61s-1.239,3.111-2.744,7" transform="translate(-27.374 -19.009)" fill="#263238"/>
              <path id="Caminho_68" data-name="Caminho 68" d="M210.9,115.068c-3.645,21.122-16.708,21.325-21.261,20.534-4.135-.717-18.119-3.687-16.677-25.073s12.414-26.37,21.957-25.227,19.626,8.644,15.981,29.767" transform="translate(-27.135 -13.366)" fill="#d3766a"/>
              <path id="Caminho_69" data-name="Caminho 69" d="M213.318,113.208a14.02,14.02,0,0,1-1.376-.546,2.394,2.394,0,0,1-1.3-.825.761.761,0,0,1,.158-.917,1.892,1.892,0,0,1,1.912-.12,2.78,2.78,0,0,1,1.552,1.264.814.814,0,0,1-.95,1.145" transform="translate(-33.052 -17.362)" fill="#263238"/>
              <path id="Caminho_70" data-name="Caminho 70" d="M197.141,110.64a13.964,13.964,0,0,0,1.479-.056,2.4,2.4,0,0,0,1.5-.345.762.762,0,0,0,.156-.918,1.89,1.89,0,0,0-1.762-.751,2.775,2.775,0,0,0-1.884.674.813.813,0,0,0,.513,1.4" transform="translate(-30.825 -17.043)" fill="#263238"/>
              <path id="Caminho_71" data-name="Caminho 71" d="M199.138,117.918c0-.056-.123.051-.13.111-.168,1.45-.6,3.083-1.981,3.37-.042.009-.049.083,0,.083,1.628.011,2.184-2.162,2.111-3.563" transform="translate(-30.923 -18.508)" fill="#263238"/>
              <path id="Caminho_72" data-name="Caminho 72" d="M197.853,115.9c-2.3-.519-3.167,4.111-1.039,4.592,2.093.474,2.963-4.156,1.039-4.592" transform="translate(-30.704 -18.187)" fill="#263238"/>
              <path id="Caminho_73" data-name="Caminho 73" d="M196.622,115.873c-.454.186-.937.574-1.433.53-.575-.051-.91-.615-1.19-1.151-.029-.056-.077-.023-.089.039a1.72,1.72,0,0,0,.916,2.17c.846.284,1.616-.384,2-1.235.072-.158-.025-.428-.208-.353" transform="translate(-30.429 -18.087)" fill="#263238"/>
              <path id="Caminho_74" data-name="Caminho 74" d="M209.382,119.37c.021-.052.1.089.085.148-.326,1.423-.46,3.108.742,3.837.038.023.019.094-.027.078-1.538-.532-1.338-2.768-.8-4.063" transform="translate(-32.806 -18.736)" fill="#263238"/>
              <path id="Caminho_75" data-name="Caminho 75" d="M210.976,117.893c2.339.277,1.613,4.932-.553,4.676-2.131-.253-1.406-4.908.553-4.676" transform="translate(-32.828 -18.505)" fill="#263238"/>
              <path id="Caminho_76" data-name="Caminho 76" d="M212.362,118.432c.33.3.624.809,1.059.906.5.113.959-.332,1.36-.764.041-.045.072,0,.064.062-.115.894-.553,1.775-1.435,1.812-.8.035-1.257-.819-1.331-1.738-.014-.169.151-.4.283-.278" transform="translate(-33.291 -18.586)" fill="#263238"/>
              <path id="Caminho_77" data-name="Caminho 77" d="M197.514,131.659c.261.413.493.951,1,1.115a3.829,3.829,0,0,0,1.611,0,.051.051,0,0,1,.045.088,1.967,1.967,0,0,1-1.985.347,1.553,1.553,0,0,1-.821-1.519c0-.088.113-.093.152-.033" transform="translate(-30.981 -20.661)" fill="#263238"/>
              <path id="Caminho_78" data-name="Caminho 78" d="M204.77,124.13s-.081,2.2-.259,3.212c-.017.094-.27.1-.617.056-.018,0-.028.007-.04-.006a4.886,4.886,0,0,1-4.359-2.62c-.053-.111.094-.193.175-.114a7.365,7.365,0,0,0,4.174,2.033c.121-.268.013-3.771.175-3.755a8.934,8.934,0,0,1,2.208.926c.3-4.576-.133-9.163.235-13.714a.14.14,0,0,1,.276-.019c.8,4.775.565,10.049.375,14.782-.018.591-1.968-.536-2.344-.78" transform="translate(-31.314 -17.27)" fill="#263238"/>
              <path id="Caminho_79" data-name="Caminho 79" d="M202.932,129.576a5.184,5.184,0,0,1-2.325,1.222,2.332,2.332,0,0,1-1.411-.16c-.963-.444-.824-1.374-.5-2.135a5.6,5.6,0,0,1,.667-1.134,6.718,6.718,0,0,0,3.568,2.206" transform="translate(-31.152 -19.994)" fill="#263238"/>
              <path id="Caminho_80" data-name="Caminho 80" d="M200.607,131.011a2.339,2.339,0,0,1-1.411-.16c-.963-.444-.824-1.375-.5-2.135a2.412,2.412,0,0,1,1.909,2.3" transform="translate(-31.152 -20.205)" fill="#ff9cbd"/>
              <path id="Caminho_81" data-name="Caminho 81" d="M171.875,113.853c3.634.7,5.352-6.89,5.352-6.89s7.447.871,11.125-9.562a16.608,16.608,0,0,1-4.306,8.483s13.294.1,20.077-10.259c0,0-2.844,5.348-5.14,7.1,0,0,5.685-.91,8.88-5.078,0,0,1.577,6.607,3.149,8.561,0,0,2.076-23.046-19.5-23.026,0,0-13.433-.634-19.422,9.374s-.218,21.292-.218,21.292" transform="translate(-26.587 -13.057)" fill="#263238"/>
              <path id="Caminho_82" data-name="Caminho 82" d="M180.588,111.6l-5.35-5.1L174,108.02l5.873,4.419Z" transform="translate(-27.314 -16.717)" fill="#ffc727"/>
              <path id="Caminho_83" data-name="Caminho 83" d="M179.22,113.638l-6.172-4.07-.948,1.721,6.565,3.305Z" transform="translate(-27.016 -17.199)" fill="#ffc727"/>
              <path id="Caminho_84" data-name="Caminho 84" d="M175.087,116.582s-2.821-7.661-6.182-6.821-2.427,11.115.682,13.305a3.625,3.625,0,0,0,5.193-.647Z" transform="translate(-26.181 -17.22)" fill="#d3766a"/>
              <path id="Caminho_85" data-name="Caminho 85" d="M169.693,113.259c-.054-.019-.085.056-.042.088,2.159,1.615,2.841,4.191,3.121,6.749a2,2,0,0,0-2.757-1.292c-.074.028-.04.142.031.147a2.228,2.228,0,0,1,2.175,1.377,10.738,10.738,0,0,1,.631,2.219c.056.245.477.233.46-.038,0-.019,0-.04-.005-.061.872-3.065-.389-8.008-3.615-9.189" transform="translate(-26.628 -17.779)" fill="#263238"/>
              <path id="Caminho_86" data-name="Caminho 86" d="M153.541,171.147c2.183,21.361,7.889,59.419,22.5,64.5,9.4,3.269,38.995-16.057,49.134-24.051,3.6-2.834-11.018-30.341-15.609-28.643-6.013,2.223-23.674,14.454-25.245,13.967-1.3-.4-6.377-14.787-14.851-30.373-10.69-19.66-17.725-13-15.926,4.6" transform="translate(-24.058 -24.263)" fill="#d3766a"/>
              <path id="Caminho_87" data-name="Caminho 87" d="M238.714,205.623c-3.3,6.3-13.262,7.992-13.262,7.992L211.723,186.98s7.781-5.887,10.061-10.543c.662-1.352,4.418-8.292,7.631-15.255,3.647-7.905,8.481-15.727,9.449-16.133,1.865-.778,4.052,1.79,2.854,7.691s-5.523,17-5.607,17.736a4.97,4.97,0,0,0,.061.738l.006.007c.132.3,7.086,5.275,7.108,9.142.023,3.942-2.294,20.907-4.572,25.26" transform="translate(-33.235 -22.748)" fill="#d3766a"/>
              <path id="Caminho_88" data-name="Caminho 88" d="M232.953,179.836s-.217-14.664,1.494-17.192,9.663-19.271,11.512-20.088,4.052,1.793,2.855,7.694-5.525,17-5.61,17.736,2.2,13.45,2.062,14.685-12.312-2.835-12.312-2.835" transform="translate(-36.567 -22.355)" fill="#d3766a"/>
              <path id="Caminho_89" data-name="Caminho 89" d="M231.423,171.577c.331-1.573.728-3.129,1.116-4.691q.309-1.165.653-2.324c.116-.386.234-.772.366-1.158.061-.192.139-.387.211-.582a6.041,6.041,0,0,1,.281-.572c1.479-2.833,2.982-5.679,4.494-8.505,1.534-2.826,3.04-5.642,4.657-8.443a10.217,10.217,0,0,1,1.52-1.953,4.588,4.588,0,0,1,1.015-.765,2.071,2.071,0,0,1,1.295-.274,1.675,1.675,0,0,1,1.091.732,3.694,3.694,0,0,1,.51,1.137,8.792,8.792,0,0,1,.269,2.406,10.345,10.345,0,0,0-.485-2.336,3.431,3.431,0,0,0-.55-1.01,1.3,1.3,0,0,0-.891-.513,2.551,2.551,0,0,0-1.87,1,9.682,9.682,0,0,0-1.336,1.906c-1.458,2.833-2.96,5.69-4.474,8.514-1.535,2.822-3.048,5.644-4.682,8.425a11.633,11.633,0,0,0-.914,2.154c-.266.753-.512,1.516-.765,2.276Z" transform="translate(-36.328 -22.336)" fill="#263238"/>
              <path id="Caminho_90" data-name="Caminho 90" d="M235.669,182.414s-.174-16.075,1.537-18.6,9.663-19.27,11.511-20.088,4.051,1.793,2.855,7.694-5.525,17-5.61,17.736.85,13.241.707,14.476-11-1.216-11-1.216" transform="translate(-36.994 -22.538)" fill="#d3766a"/>
              <path id="Caminho_91" data-name="Caminho 91" d="M233,174.429c.493-1.909,1.059-3.8,1.626-5.685.3-.94.608-1.877.934-2.811.164-.466.335-.932.519-1.4a10.959,10.959,0,0,1,.655-1.361q2.79-5.2,5.638-10.378l2.884-5.157.736-1.283a12.231,12.231,0,0,1,.812-1.285,6.068,6.068,0,0,1,1.077-1.136,2.679,2.679,0,0,1,1.538-.64,1.545,1.545,0,0,1,.877.25,2.007,2.007,0,0,1,.593.623,4.553,4.553,0,0,1,.551,1.469,13.359,13.359,0,0,1,.228,2.994,17.158,17.158,0,0,1-1.189,5.8,18.321,18.321,0,0,0,.778-5.8,13.579,13.579,0,0,0-.335-2.873,4.037,4.037,0,0,0-.525-1.265,1.068,1.068,0,0,0-.956-.55,2.032,2.032,0,0,0-1.114.54,5.915,5.915,0,0,0-.924,1.026c-.528.755-.964,1.67-1.446,2.52l-2.838,5.178c-1.909,3.445-3.81,6.89-5.793,10.3a10.556,10.556,0,0,0-.677,1.27c-.2.443-.385.9-.567,1.35-.362.911-.707,1.832-1.045,2.755Z" transform="translate(-36.576 -22.494)" fill="#263238"/>
              <path id="Caminho_92" data-name="Caminho 92" d="M235.076,183.674s3.113-13.993,4.7-16.346,6.307-14.124,8.027-14.885,3.772,1.669,2.658,7.161-2.455,12.01-2.534,12.7-1.222,11.549-1.355,12.7-11.5-1.327-11.5-1.327" transform="translate(-36.901 -23.908)" fill="#d3766a"/>
              <path id="Caminho_93" data-name="Caminho 93" d="M234.691,179.568c.706-2.437,1.453-4.861,2.188-7.288q.55-1.821,1.136-3.633l.3-.906a7.71,7.71,0,0,1,.361-.908c.267-.584.554-1.152.845-1.719,1.174-2.257,2.393-4.484,3.693-6.668.649-1.093,1.307-2.18,1.992-3.254.342-.538.69-1.072,1.054-1.6a11.884,11.884,0,0,1,1.22-1.56,1.606,1.606,0,0,1,1.131-.488,1.634,1.634,0,0,1,1.1.532,4.7,4.7,0,0,1,1.018,1.807,8.228,8.228,0,0,1,.321,3.951c-.433,2.516-.926,5-1.41,7.489-.488,2.477-.985,5.005-1.5,7.435-.2,1.238-.36,2.5-.53,3.757-.187,1.255-.368,2.512-.6,3.763.056-2.545.2-5.067.414-7.615l1.442-7.489c.463-2.489.937-4.988,1.345-7.473a7.538,7.538,0,0,0-.267-3.558,3.938,3.938,0,0,0-.808-1.493.69.69,0,0,0-1.112-.037,11.606,11.606,0,0,0-1.125,1.427c-.36.513-.708,1.038-1.051,1.567-.687,1.059-1.351,2.135-2.006,3.218-1.3,2.171-2.6,4.342-3.816,6.56-.3.555-.6,1.112-.874,1.674a14.685,14.685,0,0,0-.68,1.743l-1.254,3.59Z" transform="translate(-36.841 -23.789)" fill="#263238"/>
              <path id="Caminho_94" data-name="Caminho 94" d="M181.815,187.287l-25.942,18.622s-4.9-34.776-3.458-45.409c1.626-11.968,7.39-8.52,14.419.558s14.981,26.23,14.981,26.23" transform="translate(-23.884 -23.988)" fill="#f9b113"/>
              <path id="Caminho_95" data-name="Caminho 95" d="M178.429,188.916c-3.625,1.924-13.681,9.226-15.356,10.416-.883.628-4.294,3.286-5.18,3.9-.113.079.03.239.143.161,1.689-1.181,3.506-2.189,5.209-3.36,1.743-1.2,12.2-8.228,15.274-10.99a.081.081,0,0,0-.09-.132" transform="translate(-24.779 -29.654)" fill="#263238"/>
              <path id="Caminho_96" data-name="Caminho 96" d="M152.541,178.662c-.02-.148-.228-.109-.223.033.079,2.983.235,5.967.438,8.946a25.606,25.606,0,0,1-.971-4.583c-.009-.07-.111-.053-.107.015a21.073,21.073,0,0,0,1.13,5.29q.221,3.115.5,6.222c.482,5.272.9,10.564,1.689,15.8a.366.366,0,0,0,.588.228c.879-.677,1.737-1.372,2.57-2.107.086-.077,0-.243-.111-.182-.809.439-1.589.918-2.37,1.4-.33-5.1-.921-10.192-1.4-15.284-.492-5.268-1.033-10.537-1.737-15.782" transform="translate(-23.81 -28.031)" fill="#263238"/>
              <path id="Caminho_97" data-name="Caminho 97" d="M179.684,177.538c-.608-1.572-1.219-3.143-1.882-4.694-.013-.033-.06-.011-.049.021.4,1.173.831,2.336,1.27,3.5-1.229-2.15-2.5-4.274-3.853-6.329-.02-.031-.069,0-.055.033,1.583,3.394,3.354,6.7,5.017,10.056,1.632,3.293,3.317,6.554,5.008,9.817q-.787.773-1.6,1.515a.108.108,0,0,0,.137.167c.675-.439,1.351-.874,2.045-1.283a.362.362,0,0,0,.182-.468c-1.9-4.169-3.971-8.3-6.218-12.33" transform="translate(-27.488 -26.689)" fill="#263238"/>
            </g>
          </g>
          <g id="Grupo_74" data-name="Grupo 74">
            <g id="Grupo_73" data-name="Grupo 73" clip-path="url(#clip-path-3)">
              <path id="Caminho_98" data-name="Caminho 98" d="M320.2,174.286s9.354-8.708,16.088-8.621,22.907,1.7,33.824,1.688c10.183-.013,11.672,21.3-.729,26.593-11.363,4.852-32.654-12.006-36.667-13.739s-10.49-.322-10.49-.322-3.041-3.465-2.026-5.6" transform="translate(-50.231 -26.005)" fill="#4a128c"/>
              <path id="Caminho_100" data-name="Caminho 100" d="M297.276,314.489s-8.925,25.864-13.318,36.364a13.654,13.654,0,0,1-3.3,4.475c-.746.746-29.834.106-30.367,0s3.09-7.086,5.115-8.044,17.367,1.865,17.367,1.865.568-30.367.39-31.29a26.31,26.31,0,0,1-.142-3.37l-.356,4.648a29.08,29.08,0,0,1-1.065-5.078c-.035-1.6.959-17.4.959-17.4Z" transform="translate(-39.281 -46.568)" fill="#bfa6e7"/>
              <path id="Caminho_102" data-name="Caminho 102" d="M257.856,360.755c-1.512.969-3.157,2.885-2.527,4.793.1-1.928,1.474-3.277,2.527-4.793" transform="translate(-40.059 -56.63)" fill="#263238"/>
              <path id="Caminho_103" data-name="Caminho 103" d="M254.317,360.545c-1.512.97-3.157,2.885-2.527,4.793.1-1.927,1.474-3.277,2.527-4.793" transform="translate(-39.503 -56.597)" fill="#263238"/>
              <g id="Grupo_27" data-name="Grupo 27" transform="translate(232.907 250.088)" opacity="0.1">
                <g id="Grupo_26" data-name="Grupo 26">
                  <g id="Grupo_25" data-name="Grupo 25" clip-path="url(#clip-path-11)">
                    <path id="Caminho_104" data-name="Caminho 104" d="M276.275,302.706c2.819,5.5,6.985,11.383,8.414,12.607a109.471,109.471,0,0,0,13.219,9.04c2.012-5.684,3.454-9.862,3.454-9.862l-24.716-17.834s-.173,2.736-.372,6.05" transform="translate(-276.275 -296.656)"/>
                  </g>
                </g>
              </g>
              <path id="Caminho_105" data-name="Caminho 105" d="M407.113,321.629l3.974,5.884c9.681-15.291,16.371-36.715,15.361-54.408-.22-3.829-.578-12.17-1.657-15.274-1.134-3.253-4.533-7.3-4.813-7.622a34.41,34.41,0,0,1,2.984,8.23c-.239-.575-.492-1.129-.765-1.676-8.843-17.917-40.909-24.432-40.909-24.432A86.614,86.614,0,0,1,409,273.417c2.79,9.292,2.827,19.513,1.968,28.144a77.19,77.19,0,0,0-.3-10.889c-.038.742-1.077,20.555-2.216,25.915-.046.2-.086.369-.126.523-.034.13-.059.242-.08.345-.647,2.639-1.131,4.175-1.131,4.175" transform="translate(-59.853 -36.471)" fill="#4a128c"/>
              <g id="Grupo_33" data-name="Grupo 33" transform="translate(347.26 277.118)" opacity="0.1">
                <g id="Grupo_32" data-name="Grupo 32">
                  <g id="Grupo_31" data-name="Grupo 31" clip-path="url(#clip-path-13)">
                    <path id="Caminho_107" data-name="Caminho 107" d="M411.922,336.76l3.974,5.884c1.233-1.941,2.414-3.98,3.531-6.1l-5.7-7.826c-.149,1.222-.3,2.249-.465,3-.045.2-.086.369-.126.524-.034.13-.059.242-.08.345-.647,2.639-1.131,4.175-1.131,4.175" transform="translate(-411.922 -328.719)"/>
                  </g>
                </g>
              </g>
              <path id="Caminho_108" data-name="Caminho 108" d="M394.141,323.48c-.185,2.448.315,11.725-8.954,11.725H339.371c-5.964,0-47.877-34.423-54.947-42.407s-13.26-17.57-13.987-25.252c-2.169-22.89,16.11-57.6,16.11-57.6s-15.141-10.786-20.264-17.654-3.935-21.672-2.667-22.973,26.69,10.246,26.69,10.246,9.808-6.7,16.143-8.451,27.92,16.387,30.74,22.471.1,16.218-3.095,21.882a31.716,31.716,0,0,1-7.661,9,12.073,12.073,0,0,0,.259,5.042c.857,2.772,22.48,32.5,26.424,35.426s25.785,10.917,30.577,19.127,11.4,26.529,10.448,39.417" transform="translate(-41.209 -26.563)" fill="#dcf"/>
              <g id="Grupo_39" data-name="Grupo 39" transform="translate(317.82 241.515)" opacity="0.2">
                <g id="Grupo_38" data-name="Grupo 38">
                  <g id="Grupo_37" data-name="Grupo 37" clip-path="url(#clip-path-15)">
                    <path id="Caminho_110" data-name="Caminho 110" d="M377,286.487c.647,7.952,4.639,19.628,10.605,26.286,6.062,6.767,18.135,7.8,21.532,7.959a87.059,87.059,0,0,0-7.472-18.263c-3.576-6.114-16.623-12.112-24.665-15.982" transform="translate(-377 -286.487)" fill="#4a128c"/>
                  </g>
                </g>
              </g>
              <g id="Grupo_42" data-name="Grupo 42" transform="translate(298.43 237.599)" opacity="0.2">
                <g id="Grupo_41" data-name="Grupo 41">
                  <g id="Grupo_40" data-name="Grupo 40" clip-path="url(#clip-path-16)">
                    <path id="Caminho_111" data-name="Caminho 111" d="M367.318,289.257c-.7,3.087-6.925,3.586-9.909,2.254s-4.688-6.011-2.237-8.892,13,2.892,12.146,6.638" transform="translate(-353.999 -281.841)" fill="#4a128c"/>
                  </g>
                </g>
              </g>
              <g id="Grupo_45" data-name="Grupo 45" transform="translate(289.682 212.961)" opacity="0.2">
                <g id="Grupo_44" data-name="Grupo 44">
                  <g id="Grupo_43" data-name="Grupo 43" clip-path="url(#clip-path-17)">
                    <path id="Caminho_112" data-name="Caminho 112" d="M343.636,260.024c.159,3.781,3.46,9.856,7.03,11.08a8.208,8.208,0,0,0,7.824-1.583c-3.993-5.1-8.761-11.566-12.535-16.9-1.647,1.217-2.441,4.6-2.319,7.408" transform="translate(-343.623 -252.615)" fill="#4a128c"/>
                  </g>
                </g>
              </g>
              <g id="Grupo_48" data-name="Grupo 48" transform="translate(240.974 190.83)" opacity="0.1">
                <g id="Grupo_47" data-name="Grupo 47">
                  <g id="Grupo_46" data-name="Grupo 46" clip-path="url(#clip-path-18)">
                    <path id="Caminho_113" data-name="Caminho 113" d="M289.985,245.846a27.734,27.734,0,0,1-.662-8.971.268.268,0,0,0-.46-.191c-.448.486-1.709,1.851-1.894,2.063.008-.181.016-.362.031-.538q.078-.914.243-1.812a22.213,22.213,0,0,1,.944-3.537,21.2,21.2,0,0,1,1.526-3.325c.611-1.074,1.343-2.067,2.043-3.093.03-.045-.05-.1-.094-.066a14.611,14.611,0,0,0-2.5,2.933,19.968,19.968,0,0,0-1.775,3.244,18.7,18.7,0,0,0-1.137,3.552q-.2.947-.309,1.914a5.368,5.368,0,0,0-.007,1.9c.1.415.71.352.883.062.1-.174,1.7-2.136,1.947-2.419a18.586,18.586,0,0,0,.987,8.326c.049.136.266.093.238-.038" transform="translate(-285.845 -226.364)" fill="#bfa6e7"/>
                  </g>
                </g>
              </g>
              <g id="Grupo_51" data-name="Grupo 51" transform="translate(285.632 196.763)" opacity="0.1">
                <g id="Grupo_50" data-name="Grupo 50">
                  <g id="Grupo_49" data-name="Grupo 49" clip-path="url(#clip-path-19)">
                    <path id="Caminho_114" data-name="Caminho 114" d="M338.818,233.4c.4.16,1.249.481,2.429.9Z" transform="translate(-338.818 -233.401)"/>
                  </g>
                </g>
              </g>
              <path id="Caminho_115" data-name="Caminho 115" d="M347.408,349.873s1.225,4.337.284,5.278-40.7.463-40.772,0,6.109-8.845,10.015-9.271,16.409,3.2,16.409,3.2-22.854-28.43-16.154-45.426c2.949-7.48,20.629-10.388,43.288-1.243,20.592,8.311,15.627,45.263,4.333,49.312s-17.4-1.847-17.4-1.847" transform="translate(-48.179 -46.575)" fill="#4a128c"/>
              <path id="Caminho_117" data-name="Caminho 117" d="M360.584,301.583c-10.195-4.111-31.4-9.884-40.2-1.152-7.042,7.456-2.238,20.506,1.649,28.5a111.48,111.48,0,0,0,12.859,20.016c-2.328-3.209-4.527-6.508-6.56-9.9-5.512-9.26-15.509-27.533-7.779-37.452,8.028-9.117,29.91-3.483,40.03-.007" transform="translate(-49.728 -46.445)" fill="#bfa6e7"/>
              <path id="Caminho_118" data-name="Caminho 118" d="M362.458,298.988a14.748,14.748,0,0,0-6.836-.383,63.993,63.993,0,0,0,6.836.383" transform="translate(-55.824 -46.837)" fill="#bfa6e7"/>
              <path id="Caminho_119" data-name="Caminho 119" d="M354.89,363.6a.8.8,0,0,0,.5-.685,12.293,12.293,0,0,0,.082-2.611,48.3,48.3,0,0,0-1.39-8.544c-.151-.558-.289-1.119-.463-1.671.067.575.159,1.144.23,1.716.161,1.075.61,4.006.781,5.12.249,1.7.536,3.4.63,5.12-.005.524.175,1.241-.37,1.555" transform="translate(-55.51 -54.955)" fill="#bfa6e7"/>
              <path id="Caminho_120" data-name="Caminho 120" d="M354.986,351c-.195.987-.292,2.014-.4,3-.3,2.141.529-.136.583-.939a4.614,4.614,0,0,0-.185-2.058" transform="translate(-55.652 -55.099)" fill="#263238"/>
              <path id="Caminho_121" data-name="Caminho 121" d="M315.954,360.755c-1.512.969-3.157,2.885-2.527,4.793.1-1.928,1.474-3.277,2.527-4.793" transform="translate(-49.179 -56.63)" fill="#263238"/>
              <path id="Caminho_122" data-name="Caminho 122" d="M312.415,360.545c-1.512.97-3.157,2.885-2.527,4.793.1-1.927,1.474-3.277,2.527-4.793" transform="translate(-48.623 -56.597)" fill="#263238"/>
              <path id="Caminho_123" data-name="Caminho 123" d="M281.79,264.086s-15.866-13.508-20.429-22.467a194.018,194.018,0,0,1-11.62-30.611c-.472-1.85-1.947-25.577-1.121-26.989s6.207,1.61,9.068,5.484c1.554,2.1.282,13.65,1.1,16.438.6,2.059,14.676,18.557,15.756,19.665s13.4,7.8,22.764,11.679" transform="translate(-38.988 -28.831)" fill="#dcf"/>
              <path id="Caminho_125" data-name="Caminho 125" d="M251.828,190.409c-.312-2.036-1.555-4.65-3.848-4.877,1.972,1,2.748,3.069,3.848,4.877" transform="translate(-38.927 -29.124)" fill="#263238"/>
              <path id="Caminho_126" data-name="Caminho 126" d="M255.214,187.836c-.881-1.932-2.881-4.449-5.253-4.058,2.293.465,3.638,2.514,5.253,4.058" transform="translate(-39.238 -28.842)" fill="#263238"/>
              <path id="Caminho_127" data-name="Caminho 127" d="M272.58,264.165c3.836,3.148,7.03,6.88,10.524,10.366-4.229-2.581-7.552-6.447-10.524-10.366" transform="translate(-42.788 -41.468)" fill="#bfa6e7"/>
              <path id="Caminho_128" data-name="Caminho 128" d="M278.135,270.313a13.235,13.235,0,0,1,2.682,5,7.466,7.466,0,0,1-2.682-5" transform="translate(-43.66 -42.433)" fill="#bfa6e7"/>
              <path id="Caminho_129" data-name="Caminho 129" d="M292.843,240.876a43.365,43.365,0,0,1-12.036-6.474,71.6,71.6,0,0,1,12.036,6.474" transform="translate(-44.08 -36.795)" fill="#bfa6e7"/>
              <path id="Caminho_130" data-name="Caminho 130" d="M287.555,237.972a7.832,7.832,0,0,1,5.843,1.312,16.576,16.576,0,0,1-5.843-1.312" transform="translate(-45.139 -37.34)" fill="#bfa6e7"/>
              <path id="Caminho_131" data-name="Caminho 131" d="M262.745,167.8c-1.1.839-.663,8.04,1.227,9.633s9.07-1.891,9.557-3.757-9.379-6.944-10.785-5.876" transform="translate(-41.151 -26.317)" fill="#4a128c"/>
              <path id="Caminho_132" data-name="Caminho 132" d="M264.8,177.3c.244,2.437.253,10.016,2.813,10.849,2.233.657,4.579-.879,6.421-2.033-1.759,1.447-4.155,3.145-6.582,2.465C264.41,187.552,264.7,180,264.8,177.3" transform="translate(-41.558 -27.832)" fill="#263238"/>
              <path id="Caminho_133" data-name="Caminho 133" d="M263.242,183.23a9.393,9.393,0,0,0,.7,2.521c-.056-.029-.106.018-.094,0,.514-2.4.344-4.916.723-7.363a29.728,29.728,0,0,1,.045,5.248,6.414,6.414,0,0,1-.474,2.338c-.865.758-.894-2.3-.9-2.742" transform="translate(-41.323 -28.002)" fill="#263238"/>
              <g id="Grupo_60" data-name="Grupo 60" transform="translate(247.71 152.813)" opacity="0.2">
                <g id="Grupo_59" data-name="Grupo 59">
                  <g id="Grupo_58" data-name="Grupo 58" clip-path="url(#clip-path-20)">
                    <path id="Caminho_134" data-name="Caminho 134" d="M307.449,181.835c6.243,2.016,7.838,7.821,6.03,13.419a9.845,9.845,0,0,1-12.655,6.034c-5.993-1.934-7.942-8.572-6.568-12.829a10.349,10.349,0,0,1,13.193-6.624" transform="translate(-293.835 -181.268)" fill="#4a128c"/>
                  </g>
                </g>
              </g>
              <path id="Caminho_135" data-name="Caminho 135" d="M301.525,185.434c3.546.571,4.89,3.579,4.379,6.759a5.39,5.39,0,0,1-6.346,4.318,5.743,5.743,0,0,1-4.621-6.4,5.666,5.666,0,0,1,6.588-4.682" transform="translate(-46.289 -29.095)" fill="#263238"/>
              <path id="Caminho_136" data-name="Caminho 136" d="M301.066,186.161c3.333.537,4.6,3.365,4.116,6.354a5.066,5.066,0,0,1-5.965,4.058,5.4,5.4,0,0,1-4.344-6.011,5.327,5.327,0,0,1,6.193-4.4" transform="translate(-46.279 -29.21)" fill="#fff"/>
              <path id="Caminho_137" data-name="Caminho 137" d="M299.969,186.747c2.721.438,3.754,2.747,3.361,5.187a4.138,4.138,0,0,1-4.87,3.314,4.408,4.408,0,0,1-3.547-4.908,4.348,4.348,0,0,1,5.056-3.593" transform="translate(-46.288 -29.304)" fill="#263238"/>
              <path id="Caminho_138" data-name="Caminho 138" d="M338.77,233.5s8.106-7.8,9.118-8.2,6.087,2.142,6.533,3.983-15.625,5.384-15.625,5.384Z" transform="translate(-53.179 -35.361)" fill="#455a64"/>
              <path id="Caminho_139" data-name="Caminho 139" d="M341.957,234.017c-.233.062-.456.113-.666.168-.351-.623-.7-1.227-1.053-1.827.151-.148.314-.3.487-.464q.618,1.038,1.232,2.124m4.772-3.095c-.589-1.022-1.171-2.012-1.755-2.978-.165.144-.33.3-.493.451.563.941,1.134,1.9,1.7,2.9.109.186.217.373.327.569q.244.412.476.84c.219-.056.437-.121.651-.18-.192-.352-.384-.695-.585-1.028-.105-.2-.214-.387-.323-.574m5.018-2.672c-.114-.191-.223-.378-.331-.564-.355-.618-.718-1.226-1.076-1.82a10.25,10.25,0,0,0-1-.378c.5.838,1.018,1.694,1.535,2.578.1.182.218.373.327.56q.645,1.113,1.286,2.273c.216-.093.418-.18.606-.27q-.675-1.215-1.351-2.379m.658-1.267c-.325.233-.651.465-.989.7-.176.126-.357.249-.537.38q-1.974,1.376-4.149,2.855c-.18.123-.362.245-.546.373-1.3.878-2.661,1.775-4.057,2.684.594-.142,1.246-.305,1.931-.483.834-.551,1.655-1.1,2.453-1.632l.542-.368q2.19-1.477,4.154-2.87c.185-.118.365-.25.541-.376.422-.3.831-.588,1.232-.867-.184-.139-.377-.267-.574-.4" transform="translate(-53.409 -35.396)" fill="#37474f"/>
              <g id="Grupo_63" data-name="Grupo 63" transform="translate(285.591 191.023)" opacity="0.3">
                <g id="Grupo_62" data-name="Grupo 62">
                  <g id="Grupo_61" data-name="Grupo 61" clip-path="url(#clip-path-21)">
                    <path id="Caminho_140" data-name="Caminho 140" d="M338.77,233.711s8.611-8.232,10.421-6.99-8.886,6.428-10.421,6.99" transform="translate(-338.77 -226.593)"/>
                  </g>
                </g>
              </g>
              <path id="Caminho_141" data-name="Caminho 141" d="M339.178,235.342s8.508,2.656,9.215,3.151c1.318.921.692,4.19-.412,5.212s-9.6-7.893-9.6-7.893Z" transform="translate(-53.117 -36.943)" fill="#455a64"/>
              <path id="Caminho_142" data-name="Caminho 142" d="M350.424,239.96c-.389-.089-.779-.177-1.179-.273-.213-.043-.427-.1-.637-.142-.072.207-.137.416-.2.627.214.052.432.1.642.147.5.116,1,.233,1.487.336a3.431,3.431,0,0,0-.11-.695m-1.378.358.2-.631c.093-.283.181-.551.266-.834-.16-.066-.362-.151-.6-.243l-.3.934c-.072.207-.137.416-.2.627-.341,1.044-.7,2.1-1.075,3.175.194.147.382.281.555.392.406-1.152.79-2.3,1.162-3.42" transform="translate(-54.522 -37.456)" fill="#37474f"/>
              <path id="Caminho_143" data-name="Caminho 143" d="M342.345,238.647c-.085.263-.18.528-.265.791-.177-.167-.35-.338-.522-.5.052-.153.1-.3.148-.451-.266-.071-.543-.141-.814-.207-.336-.325-.646-.64-.926-.919l1.948.5c.16-.475.307-.943.459-1.409.206.062.411.133.622.2-.148.45-.3.91-.449,1.366,1.7.425,3.345.823,4.9,1.186-.071.207-.137.416-.2.627-1.559-.362-3.2-.76-4.9-1.186" transform="translate(-53.367 -37.118)" fill="#37474f"/>
              <g id="Grupo_66" data-name="Grupo 66" transform="translate(286.061 198.399)" opacity="0.3">
                <g id="Grupo_65" data-name="Grupo 65">
                  <g id="Grupo_64" data-name="Grupo 64" clip-path="url(#clip-path-22)">
                    <path id="Caminho_144" data-name="Caminho 144" d="M339.327,235.342s9.043,2.786,8.882,4.522-7.9-3.675-8.882-4.522" transform="translate(-339.327 -235.342)"/>
                  </g>
                </g>
              </g>
              <path id="Caminho_145" data-name="Caminho 145" d="M289.545,217.6c-.688,1.491,18.256,28.708,20.872,29.417,1.957.531,21.317-12.4,21.49-14.888.072-1.044-2.219-.23-17.812-5.113-7.234-2.265-23.994-10.623-24.551-9.417" transform="translate(-45.449 -34.139)" fill="#ffcb64"/>
              <path id="Caminho_146" data-name="Caminho 146" d="M294.371,218.988c0-.014.012-.024.015-.039-.207-.08-.414-.161-.611-.233,0,.014-.008.019-.011.034-.114.308-.226.634-.349.952.2.09.4.181.6.281.121-.336.242-.673.359-.995m-.587,1.61-.6-.271c-.312.837-.636,1.7-.972,2.575.14.222.29.451.435.686.395-1.017.776-2.018,1.133-2.989m3.182,7.486c.085-.2.162-.4.243-.6l0-.005c.626-1.586,1.215-3.126,1.757-4.6.075-.212.152-.413.228-.615.132-.37.26-.726.389-1.081-.208-.09-.411-.175-.614-.261-.125.351-.252.716-.385,1.077-.071.207-.148.408-.223.62-.546,1.481-1.13,3.026-1.761,4.607-.076.2-.157.41-.242.612-.115.289-.231.579-.351.873.144.216.293.427.441.647.175-.42.348-.849.513-1.269m10.539,4.2c-.207-.081-.413-.152-.62-.233q-.88,2.248-1.878,4.594c.207.08.409.156.62.232.666-1.561,1.286-3.1,1.878-4.594m0,0c-.207-.081-.413-.152-.62-.233q-.88,2.248-1.878,4.594c.207.08.409.156.62.232.666-1.561,1.286-3.1,1.878-4.594m0,0c-.207-.081-.413-.152-.62-.233q-.88,2.248-1.878,4.594c.207.08.409.156.62.232.666-1.561,1.286-3.1,1.878-4.594m-5.3-2.034c.08-.207.166-.41.246-.617.626-1.595,1.208-3.149,1.75-4.625.071-.207.142-.413.218-.615.121-.336.239-.658.356-.98-.2-.086-.406-.171-.61-.266-.116.331-.238.658-.354,1-.076.2-.152.414-.227.626-.537,1.48-1.12,3.025-1.751,4.616-.077.2-.157.409-.242.612-.541,1.383-1.125,2.8-1.742,4.228.132.19.274.378.406.567.016.022.027.04.042.062a.108.108,0,0,0,.016-.039c.667-1.542,1.3-3.072,1.89-4.567m5.3,2.034c-.207-.081-.413-.152-.62-.233q-.88,2.248-1.878,4.594c.207.08.409.156.62.232.666-1.561,1.286-3.1,1.878-4.594m0,0c-.207-.081-.413-.152-.62-.233q-.88,2.248-1.878,4.594c.207.08.409.156.62.232.666-1.561,1.286-3.1,1.878-4.594m0,0c-.207-.081-.413-.152-.62-.233q-.88,2.248-1.878,4.594c.207.08.409.156.62.232.666-1.561,1.286-3.1,1.878-4.594m-3.306,7.849c.4-.891.792-1.781,1.17-2.656.085-.2.171-.405.257-.6.666-1.561,1.286-3.1,1.878-4.594.081-.207.157-.41.238-.616.625-1.6,1.2-3.163,1.735-4.638.075-.211.147-.417.223-.62q.153-.425.293-.835c-.2-.076-.409-.157-.612-.242-.1.278-.2.562-.3.846-.067.2-.147.408-.223.62-.529,1.479-1.11,3.033-1.731,4.642-1.539-.578-3.1-1.179-4.671-1.807-.08.207-.166.41-.246.617,1.576.627,3.136,1.223,4.675,1.8q-.88,2.248-1.878,4.594c-.085.2-.167.4-.257.6-.323.759-.655,1.517-1,2.283l0,.005c.157.2.3.4.456.6m4.5,3.853c.706-1.527,1.383-3.052,2.016-4.563q2.456.864,4.774,1.635c.08-.207.162-.405.243-.6-1.534-.514-3.128-1.061-4.76-1.632.66-1.575,1.281-3.123,1.863-4.616.075-.212.156-.419.237-.616.619-1.618,1.191-3.18,1.715-4.664.075-.211.147-.417.223-.62.1-.293.194-.575.3-.859,0-.009.008-.019.007-.029-.214-.051-.405-.11-.6-.159a.1.1,0,0,0-.038-.015c-.093.282-.191.561-.293.845-.072.207-.142.412-.218.624-.524,1.474-1.1,3.037-1.715,4.654q-2.312-.8-4.709-1.7c-.081.207-.157.409-.238.616q2.4.889,4.706,1.705c-.578,1.5-1.2,3.046-1.863,4.616-.081.2-.163.4-.248.6q-.956,2.261-2.022,4.559c-.09.2-.18.4-.277.592l.005,0c-.028.053-.06.112-.083.17.165.191.325.368.474.538.075-.16.155-.325.23-.486l.271-.6m7.408-2.724c.086-.2.167-.4.252-.6.65-1.583,1.265-3.135,1.842-4.642.077-.2.157-.41.233-.611.618-1.636,1.184-3.213,1.7-4.686.076-.211.143-.412.213-.619.124-.36.243-.715.363-1.061l-.631-.18c-.115.341-.235.686-.355,1.04-.072.2-.143.4-.218.615-.51,1.478-1.082,3.049-1.694,4.68-.076.2-.157.41-.237.616-.568,1.506-1.183,3.058-1.842,4.643-.081.2-.163.4-.243.6-.633,1.5-1.3,3.036-2,4.58-.056.116-.111.233-.165.358.152-.078.312-.165.472-.254s.312-.166.473-.254q.966-2.137,1.834-4.227m7.5-3.533c.072-.207.152-.413.228-.615.612-1.65,1.169-3.225,1.674-4.7.072-.206.142-.412.21-.614.152-.464.305-.91.45-1.347-.209-.048-.423-.1-.642-.156q-.2.64-.435,1.309c-.067.2-.138.407-.209.614-.51,1.478-1.067,3.053-1.673,4.707q-.123.3-.228.607-.606,1.616-1.282,3.318c.326-.223.647-.442.969-.669q.489-1.251.94-2.456m7.51-4.34c.156-.47.358-1.167.513-1.646a3.97,3.97,0,0,0-.628-.212c-.163.508-.352,1.19-.516,1.679-.067.2-.138.407-.213.619s-.149.45-.227.685c.221-.2.419-.395.6-.573.159-.158.3-.309.432-.451l0-.005,0-.005a.881.881,0,0,1,.025-.09m-37.7-13.691c-1.3-.6-2.595-1.212-3.877-1.841.008.051.023.105.037.169s.039.127.068.2a4.359,4.359,0,0,0,.216.518q1.654.806,3.329,1.575c.075-.211.156-.418.227-.625m37.7,13.691c-.21-.057-.42-.114-.631-.18q-2.2-.634-4.768-1.408c-.2-.067-.412-.133-.627-.194q-2.26-.7-4.745-1.507c-.2-.062-.411-.133-.622-.2-1.519-.5-3.1-1.025-4.714-1.593-.207-.071-.413-.142-.624-.218q-2.3-.793-4.685-1.68c-.207-.08-.413-.152-.62-.232-1.53-.571-3.09-1.167-4.656-1.785-.2-.082-.4-.162-.608-.248-1.528-.6-3.072-1.238-4.618-1.89-.2-.085-.411-.175-.609-.266-1.527-.646-3.051-1.324-4.577-2.011-.076.2-.157.41-.228.615q2.289,1.045,4.582,2.015c.2.09.4.176.6.261,1.551.658,3.091,1.287,4.619,1.9-.537,1.48-1.12,3.025-1.751,4.616.2.085.41.166.617.246.626-1.595,1.208-3.149,1.75-4.625,1.566.619,3.122,1.219,4.652,1.79-.529,1.479-1.11,3.033-1.731,4.642-1.539-.578-3.1-1.179-4.671-1.807-.08.207-.166.41-.246.617,1.576.627,3.136,1.223,4.675,1.8.207.081.414.152.62.233q2.4.889,4.706,1.705c.21.067.412.142.624.218,1.622.562,3.205,1.1,4.739,1.605.08-.207.161-.414.237-.616q-2.3-.757-4.739-1.605c.619-1.618,1.191-3.18,1.715-4.664,1.617.559,3.2,1.093,4.718,1.589-.51,1.478-1.082,3.049-1.694,4.68.207.072.417.137.623.209.618-1.636,1.184-3.213,1.7-4.686,1.653.546,3.242,1.046,4.749,1.5.211.066.421.132.626.194,1.708.524,3.3.995,4.765,1.413.129.04.253.077.378.112.159-.158.3-.309.432-.451l0-.005.067-.08a.085.085,0,0,1-.038-.015m-18.664-.021q-2.312-.8-4.709-1.7c.625-1.6,1.2-3.163,1.735-4.638q2.388.883,4.689,1.684c-.524,1.474-1.1,3.037-1.715,4.654m11.381,3.746c-.209-.057-.415-.119-.626-.185-1.512-.469-3.111-.978-4.774-1.522-.206-.072-.416-.137-.623-.209q-2.3-.757-4.739-1.605c-.207-.072-.412-.142-.615-.219l-.005,0q-2.312-.8-4.709-1.7c-.207-.072-.414-.152-.616-.228-1.539-.578-3.1-1.179-4.671-1.807-.207-.08-.414-.161-.617-.246q-2.307-.918-4.625-1.914l0,.005c-.2-.09-.4-.176-.6-.261-.749-.324-1.495-.653-2.245-.985.058.083.117.176.176.27.17.246.335.5.5.749.445.2.885.387,1.325.578.2.086.405.171.6.252,1.547.663,3.092,1.306,4.63,1.918.2.085.415.17.613.251,1.576.627,3.136,1.223,4.675,1.8.207.081.414.152.62.233q2.4.889,4.706,1.705c.21.067.412.142.624.218,1.622.562,3.205,1.1,4.739,1.605.211.067.416.137.627.2,1.658.55,3.257,1.059,4.778,1.518.21.066.421.132.626.194.6.187,1.186.367,1.755.538.22-.158.438-.326.658-.484-.707-.211-1.439-.434-2.186-.669m-7.474,3.545c-.206-.071-.416-.137-.627-.2-1.534-.514-3.128-1.061-4.76-1.632.66-1.575,1.281-3.123,1.863-4.616-.212-.076-.414-.152-.624-.218-.578,1.5-1.2,3.046-1.863,4.616q-2.32-.826-4.721-1.728c-.212-.076-.413-.152-.62-.232-1.544-.583-3.111-1.193-4.687-1.829l-.058-.023c.016.022.027.04.042.062l.665.922c1.273.508,2.53.995,3.781,1.468.207.08.414.16.62.232q2.4.909,4.73,1.727c.2.076.408.148.615.218q2.456.864,4.774,1.635c.207.071.411.133.618.2,1.141.379,2.262.742,3.339,1.085l.7-.465q-1.831-.58-3.789-1.224m-2.866,4.98c-1.554-.522-3.16-1.071-4.793-1.652-.207-.071-.409-.148-.62-.223-.475-.169-.951-.34-1.427-.518.286.353.566.684.825,1l.005,0c.106.037.207.071.321.108l.005,0c.2.076.414.152.62.223q2.341.831,4.568,1.582c.107-.056.219-.107.331-.168.152-.078.312-.165.472-.254l-.307-.1" transform="translate(-45.45 -34.199)" fill="#f9b113"/>
              <g id="Grupo_69" data-name="Grupo 69" transform="translate(245.515 186.623)" opacity="0.1">
                <g id="Grupo_68" data-name="Grupo 68">
                  <g id="Grupo_67" data-name="Grupo 67" clip-path="url(#clip-path-23)">
                    <path id="Caminho_147" data-name="Caminho 147" d="M320.8,242.181c-4.679,3.1-9.224,5.686-10.12,5.444-2.127-.576-15.082-18.727-19.451-26.253,4.717,7.156,18.574,23.217,20.656,23.738,1.431.358,7.206-2.189,8.916-2.93" transform="translate(-291.231 -221.373)" fill="#ffc727"/>
                  </g>
                </g>
              </g>
              <path id="Caminho_148" data-name="Caminho 148" d="M345.626,193.983s12.355,3.27,15.871,9.014,10.775,20.287,16.608,29.514c5.441,8.607-11.795,21.23-22.886,13.563-10.163-7.027-7.253-34.027-7.928-38.347s-5.321-9.045-5.321-9.045,1.31-4.42,3.657-4.7" transform="translate(-53.681 -30.451)" fill="#4a128c"/>
              <path id="Caminho_617" data-name="Caminho 617" d="M347.408,349.873s1.225,4.337.284,5.278-40.7.463-40.772,0,6.109-8.845,10.015-9.271,16.409,3.2,16.409,3.2-22.854-28.43-16.154-45.426c2.949-7.48,20.629-10.388,43.288-1.243,20.592,8.311,15.627,45.263,4.333,49.312s-17.4-1.847-17.4-1.847" transform="translate(-48.179 -46.575)" fill="#bfa6e7"/>
            </g>
          </g>
          <g id="Grupo_76" data-name="Grupo 76">
            <g id="Grupo_75" data-name="Grupo 75" clip-path="url(#clip-path-3)">
              <path id="Caminho_150" data-name="Caminho 150" d="M63.611,43.986a29.965,29.965,0,0,0,50.077,18.958l14.995,2.2-7.5-12.962a29.975,29.975,0,1,0-57.569-8.2" transform="translate(-9.96 -1.71)" fill="#f9f9f9"/>
              <path id="Caminho_151" data-name="Caminho 151" d="M72.581,19.185a29.926,29.926,0,0,1,25.113-8.34,30.247,30.247,0,0,1,12.791,4.8,30.662,30.662,0,0,1,9.387,10,30.308,30.308,0,0,1,1.846,26.715l-.035-.513,7.458,12.989.55.958-1.087-.167-14.98-2.3.354-.109a30.237,30.237,0,0,1-14.828,7.321A26.276,26.276,0,0,1,95,70.965a29.349,29.349,0,0,1-4.165-.079,29.905,29.905,0,0,1-8.069-1.924,29.553,29.553,0,0,1-7.23-4.025,33.715,33.715,0,0,1-3.163-2.678,33.337,33.337,0,0,1-2.717-3.128,30.144,30.144,0,0,1,2.921-39.946M69.749,59.062a33.221,33.221,0,0,0,2.726,3.1A33.441,33.441,0,0,0,75.641,64.8a27.89,27.89,0,0,0,7.229,3.9,29.566,29.566,0,0,0,8.005,1.763,29.078,29.078,0,0,0,4.1.006,25.761,25.761,0,0,0,4.067-.494,29.518,29.518,0,0,0,14.352-7.393l.148-.138.207.03,15.009,2.1-.537.792-7.546-12.938-.143-.244.108-.269a29.934,29.934,0,0,0,2.11-13.057,29.6,29.6,0,0,0-3.8-12.682,30.882,30.882,0,0,0-8.967-9.782A29.462,29.462,0,0,0,97.6,11.5a29.908,29.908,0,0,0-13.331,1A29.777,29.777,0,0,0,63.61,43.937a30.126,30.126,0,0,0,6.139,15.125" transform="translate(-9.959 -1.66)" fill="#dedede"/>
              <path id="Caminho_152" data-name="Caminho 152" d="M84.994,49.863a35.087,35.087,0,0,0,11.27,9.778,35.108,35.108,0,0,0,11.265-9.778c3.967-5.25,3.771-13.469-1.9-15.247C99.348,32.65,96.264,42.1,96.264,42.1s-3.129-9.508-9.366-7.479c-5.655,1.839-5.871,10-1.9,15.247" transform="translate(-12.918 -5.389)" fill="#4a128c"/>
            </g>
          </g>
        </g>
      </g>
    </g>
  </g>
</svg>
