<svg xmlns="http://www.w3.org/2000/svg" xmlns:xlink="http://www.w3.org/1999/xlink" width="42.563" height="42.563" viewBox="0 0 42.563 42.563">
  <defs>
    <clipPath id="clip-path">
      <rect id="Retângulo_31" data-name="Retângulo 31" width="30.481" height="33.174" transform="translate(0 0)" fill="none"/>
    </clipPath>
  </defs>
  <g id="Profile_ONG" transform="translate(-24 -218)">
    <path id="Caminho_633" data-name="Caminho 633" d="M21.281,0A21.281,21.281,0,1,1,0,21.281,21.281,21.281,0,0,1,21.281,0Z" transform="translate(24 218)" fill="#4a128c"/>
    <g id="Grupo_2" data-name="Grupo 2" transform="translate(30.041 223.886)">
      <g id="Grupo_1" data-name="Grupo 1" transform="translate(0 0)" clip-path="url(#clip-path)">
        <path id="Caminho_3" data-name="Caminho 3" d="M30.929,45.42a.267.267,0,0,0,.24.41,1.4,1.4,0,0,1,.828.252.267.267,0,0,0,.428-.207.783.783,0,0,0-1.5-.456" transform="translate(-23.364 -30.543)" fill="#fff"/>
        <path id="Caminho_4" data-name="Caminho 4" d="M92.455,46.936a1.406,1.406,0,0,1,.864-.042.267.267,0,0,0,.333-.339.783.783,0,0,0-1.561.075.267.267,0,0,0,.364.305" transform="translate(-70.229 -31.263)" fill="#fff"/>
        <path id="Caminho_5" data-name="Caminho 5" d="M36,26.93a.969.969,0,0,1-.769-.686l-.014-.037a3.059,3.059,0,0,0-2.831-1.891s0-.01,0-.009c-.3.017-.678.016-.478-.207a2.546,2.546,0,0,0,.691-1.088c.136-.477-.37-.787-.748-.725-2.079.344-4.118,2.2-5.195,4.718-.141.329-.38.894-.679,1.619a7.637,7.637,0,0,0-3.385-4.273,5.467,5.467,0,0,0-2.959-.608A3.686,3.686,0,0,0,16.1,26.017c-.029.029-.259.223-1.253.329a11.4,11.4,0,0,1-1.181.06h-.006a.484.484,0,0,0-.484.478c-.034,2.743,1.2,3.938,2.13,4.448l0,0a3.747,3.747,0,0,0,1.919.416c.355,0,.678-.023.919-.047a17.171,17.171,0,0,1-.39,6.292l.092.091a.19.19,0,0,1,.029.022c.222.21.453.43.668.666a18.052,18.052,0,0,0,.568-7.1,4.251,4.251,0,0,0-.177-.7.482.482,0,0,0-.519-.278,5.738,5.738,0,0,1-2.356-.077l-.067-.024a2.987,2.987,0,0,1-1.7-2.178c.314-.071.769-.328,1.065-1.163.912-.145,1.43-.412,1.616-.833a2.529,2.529,0,0,1,1.784-1.59,2.724,2.724,0,0,1,2.094.315,1.374,1.374,0,0,1,.51.7A1.73,1.73,0,0,1,21,27.488c-1.079,1.387-1.35,2.1-1.251,3.016a1.7,1.7,0,0,0,.891,1.34,2.345,2.345,0,0,0,2.325-.031,3.489,3.489,0,0,0,1.408-2.7s0,0,0-.007a6.461,6.461,0,0,0-.833-1.567,4.66,4.66,0,0,1-.03,1.4c-.231,1.046-.378,1.571-.966,2A1.379,1.379,0,0,1,21.1,31a.742.742,0,0,1-.4-.6c-.054-.5,0-.967,1.053-2.319a2.633,2.633,0,0,0,.367-2.887,3.1,3.1,0,0,1,.393.238,4.117,4.117,0,0,1,.426.327,6.962,6.962,0,0,1,.954,1.009A10.2,10.2,0,0,1,25.46,29.9C24.047,33.4,22,38.852,21.866,41.3l.091.079a.193.193,0,0,1,.033.022l.046.038a.18.18,0,0,1,.218.015l.177.145c.137.047.271.1.4.158,0-.071-.008-.142-.008-.214,0-2.45,2.75-9.359,3.676-11.642h0c.515-1.274.916-2.216,1.046-2.519a7.336,7.336,0,0,1,3.758-3.955c-1.261,1.208-.809,1.841-.348,1.841h1.25a2.129,2.129,0,0,1,2.12,1.317,1.941,1.941,0,0,0,1.125,1.186.721.721,0,0,0,.361,1.024,2.947,2.947,0,0,1-3.376,1.738.484.484,0,0,0-.1.962l.057,0a15.745,15.745,0,0,0,.253,5.485c.039.183.081.361.125.538.294-.177.584-.361.863-.559a14.436,14.436,0,0,1-.262-5.454A3.79,3.79,0,0,0,36.934,28.5,1.161,1.161,0,0,0,36,26.93" transform="translate(-9.798 -13.212)" fill="#fff"/>
        <path id="Caminho_6" data-name="Caminho 6" d="M73.41,69.147a42.54,42.54,0,0,0-2.155-7.175c-.337-.919-.678-1.817-1-2.636l-.492,1.4c1.231,3.227,2.608,7.215,2.735,8.951a4.827,4.827,0,0,1,.911-.538" transform="translate(-53.136 -41.59)" fill="#fff"/>
        <path id="Caminho_7" data-name="Caminho 7" d="M22.115,1.324a6.36,6.36,0,0,1,6.361,6.361,14.238,14.238,0,0,1-.581,4.007,16.655,16.655,0,0,1-1.552,3.593,24.428,24.428,0,0,1-4.832,5.841,36.041,36.041,0,0,1-4.931,3.724c-.7.44-1.281.772-1.68.991-.4-.218-.981-.551-1.68-.991a35.778,35.778,0,0,1-4.931-3.724,24.439,24.439,0,0,1-4.832-5.841,16.654,16.654,0,0,1-1.552-3.593,14.239,14.239,0,0,1-.581-4.007A6.361,6.361,0,0,1,7.684,1.324a5.869,5.869,0,0,1,4.454,2.159,29.044,29.044,0,0,1,2.718,4.2,30.972,30.972,0,0,1,2.792-4.139,5.909,5.909,0,0,1,4.466-2.221m0-1.324C17.191,0,14.9,5.328,14.9,5.328S12.723,0,7.684,0A7.684,7.684,0,0,0,0,7.684C0,20.062,14.9,27.336,14.9,27.336S29.8,20.062,29.8,7.684A7.684,7.684,0,0,0,22.115,0" transform="translate(0.288 3.849)" fill="#fff"/>
      </g>
    </g>
  </g>
</svg>
